<svg xmlns="http://www.w3.org/2000/svg" xmlns:xlink="http://www.w3.org/1999/xlink" width="1366" height="768" viewBox="0 0 1366 768">
  <defs>
    <clipPath id="clip-Authentication_SIGN_UP_1">
      <rect width="1366" height="768"/>
    </clipPath>
  </defs>
  <g id="Authentication_SIGN_UP_1" data-name="Authentication/SIGN UP – 1" clip-path="url(#clip-Authentication_SIGN_UP_1)">
    <rect width="1366" height="768" fill="#e9effb"/>
    <g id="blob-shape_2_" data-name="blob-shape (2)" transform="translate(150.987 73.023)">
      <path id="Tracé_113" data-name="Tracé 113" d="M83.2-123.5c33.5,15.5,75.7,23.6,105,48.9,29.3,25.4,45.8,68,45,111.7s-18.7,88.4-47.6,126.1c-29,37.6-68.8,68.2-107.7,60.6-38.8-7.6-76.7-53.3-126.2-65.2-49.4-11.9-110.5,10-135.6-6.3S-198,81.5-195,34.3c3-47.1-2-86.8,13.2-116.3,15.1-29.4,50.3-48.6,84-64,33.6-15.5,65.7-27.2,94.2-21.6S49.7-139.1,83.2-123.5Z" fill="#254ebe"/>
    </g>
    <g id="blob-shape_3_" data-name="blob-shape (3)" transform="translate(1292.907 799.233)">
      <path id="Tracé_114" data-name="Tracé 114" d="M115.5-164.8c43.9,13.2,95.6,29,108.5,61.3,13,32.3-13,81.2-26.9,127.1-14,45.9-16,88.7-37.3,116.9-21.2,28.2-61.8,41.7-98.2,38.2C25.2,175.3-7.1,154.8-43,145s-75.4-9-96.3-27.4c-20.8-18.5-22.9-56.2-21.1-90.3,1.7-34,7.4-64.3,11.5-104.4,4.2-40.1,6.8-90,31.3-112C-93-211-46.5-205-5.3-196.7,35.9-188.5,71.7-177.9,115.5-164.8Z" fill="#254ebe"/>
    </g>
    <g id="blob-shape_4_" data-name="blob-shape (4)" transform="translate(1376.906 152.852)">
      <path id="Tracé_115" data-name="Tracé 115" d="M-7.529-185.235c26.766,13.372,58.587,22.042,75.7,41.642C85.277-123.932,87.61-93.4,72.38-72.521S24.422-40.4,4.137-19.644c-20.285,20.7-28,50.923-46.338,63.317-18.276,12.395-47.116,6.9-67.919-6.839-20.739-13.8-33.506-35.9-44.847-55.2C-166.374-37.657-176.419-54.2-191-76.856s-33.636-51.411-28.127-72.476c5.509-21,35.58-34.376,63.253-47.259,27.738-12.883,53.078-25.4,76.539-22.653S-34.23-198.545-7.529-185.235Z" transform="translate(-20.559 10)" fill="#ffc371"/>
    </g>
  </g>
</svg>
