<svg xmlns="http://www.w3.org/2000/svg" width="31.336" height="31.336" viewBox="0 0 31.336 31.336">
  <path id="Icon_awesome-crown" data-name="Icon awesome-crown" d="M24.644,5.328a2,2,0,0,0-2,2,1.958,1.958,0,0,0,.183.824L19.815,9.957a1.33,1.33,0,0,1-1.84-.483L14.582,3.538a2,2,0,1,0-2.523,0L8.667,9.474a1.331,1.331,0,0,1-1.84.483L3.817,8.151A2,2,0,1,0,2,9.325a2.04,2.04,0,0,0,.321-.033L5.4,17.674a18.616,18.616,0,0,1,7.428-1.715,34.5,34.5,0,0,1,8.484,1.358l3.01-8.026a2.04,2.04,0,0,0,.321.033,2,2,0,0,0,0-4Z" transform="translate(0 18.839) rotate(-45)" fill="#8ba3ff" opacity="0.7"/>
</svg>
