<svg xmlns="http://www.w3.org/2000/svg" width="38.068" height="38.068" viewBox="0 0 38.068 38.068">
  <path id="Icon_awesome-crown" data-name="Icon awesome-crown" d="M29.938,6.473A2.428,2.428,0,0,0,27.51,8.9a2.378,2.378,0,0,0,.223,1L24.071,12.1a1.616,1.616,0,0,1-2.235-.587L17.715,4.3a2.427,2.427,0,1,0-3.065,0L10.529,11.51a1.617,1.617,0,0,1-2.235.587L4.637,9.9a2.427,2.427,0,1,0-2.21,1.426,2.479,2.479,0,0,0,.389-.04L6.561,21.471a22.615,22.615,0,0,1,9.024-2.083,41.911,41.911,0,0,1,10.307,1.649l3.656-9.75a2.479,2.479,0,0,0,.389.04,2.427,2.427,0,1,0,0-4.855Z" transform="translate(0 22.885) rotate(-45)" fill="#8ba3ff"/>
</svg>
