<svg xmlns="http://www.w3.org/2000/svg" xmlns:xlink="http://www.w3.org/1999/xlink" height="340" width="1601">
  <defs>
    <path id="path-1" opacity="1" fill-rule="evenodd" d="M0 0L1440 0L1440 290C1440 317.5957512247 1417.5957512247 340 1390 340L50 340C22.404248775300005 340 7.105427357601002e-15 317.5957512247 0 290L0 0Z"/>
    <mask id="mask-2" maskUnits="userSpaceOnUse" maskContentUnits="userSpaceOnUse">
      <rect opacity="1" x="0" y="0" width="1601" height="340" fill="Black"/>
      <use xlink:href="#path-1" fill="White"/>
    </mask>
  </defs>
  <g transform="translate(-1.1368683772161603e-13, 0)" opacity="1">
    <g opacity="1">
      <g opacity="1">
        <use xlink:href="#path-1" fill="rgb(0,38,188)" fill-opacity="1"/>
      </g>
      <g mask="url(#mask-2)">
        <g opacity="0.17">
          <g opacity="1">
            <path fill="rgb(148,192,212)" fill-opacity="1" opacity="1" fill-rule="evenodd" d="M215.10271193267982 -60.91466397318362C215.24723302282544 -118.0244690893155 179.0121796605316 -167.26499066608534 128.62077023424524 -178.43666328212043C78.2293608079589 -189.60833589815553 27.769254134527596 -159.58795434804392 8.187995931516257 -106.78723417756346C2.7818504129856096 -92.24000594963175 0.00009240125790626674 -76.65393853559523 0.0007870420147295454 -60.91466397318348L215.10271193267982 -60.91466397318348L215.10271193267982 -60.91466397318362Z"/>
          </g>
          <g opacity="1">
            <path fill="rgb(244,91,15)" fill-opacity="1" opacity="1" fill-rule="evenodd" d="M0.0007870420147090039 -176.2513176833851C14.160617149716227 -176.24982432074864 28.182716308400604 -179.34082657609238 41.27017562336192 -185.34865551690032C54.34856260291025 -191.35304071298245 66.23638126581714 -200.15839731057807 76.25647240017626 -211.26315067238332C86.26662905335525 -222.3582637760309 94.2106172553028 -235.537827368553 99.63408444493828 -250.04804268792228C110.57936204085752 -279.33465528792107 110.57936204085752 -312.2603102338821 99.63408444493825 -341.54692283388084C94.21118790451561 -356.0584505722111 86.26715316349988 -369.23921212542405 76.25647240017628 -380.3351129779395C66.23662737376958 -391.44020053317286 54.34874539575591 -400.2456040285307 41.270175623361894 -406.24960813342244C28.182891985166552 -412.25845710482645 14.160805220745779 -415.35057723206137 0.0007870420147222734 -415.3502440954574L0.0007870420147222734 -176.2513176833851L0.0007870420147090039 -176.2513176833851Z"/>
          </g>
          <g opacity="1">
            <path fill="rgb(22,22,22)" fill-opacity="1" opacity="1" fill-rule="evenodd" d="M236.67116545878787 231.31491413896418C177.1095393569953 231.30884280916294 128.8283513162163 177.6421085833715 128.82889782824827 111.4433337141702L236.67116545878787 111.4433337141702L236.67116545878787 231.31491413896418Z"/>
          </g>
          <g opacity="1">
            <path fill="rgb(244,91,15)" fill-opacity="1" opacity="1" fill-rule="evenodd" d="M0.0007870420147090039 -33.052074238729034C14.162942651941128 -33.0524468053394 28.18642268862186 -29.951800857109045 41.270175623361894 -23.927252000882838C54.35420456425355 -17.90224030221993 66.24251560707462 -9.072237141830513 76.25647240017625 2.0587026058602476C86.27053890576057 13.190357573156788 94.21420779739941 26.404880177395214 99.63408444493825 40.94803535785648C105.05447013564287 55.49133929401121 107.84422669790077 71.07890773889466 107.84404382428689 86.82060556223813L0.0007870420147090039 86.82060556223813L0.0007870420147090039 -33.052074238729034Z"/>
          </g>
          <g opacity="1">
            <path fill="rgb(255,215,38)" fill-opacity="1" opacity="1" fill-rule="evenodd" d="M128.82889782824816 -294.8289323522819C128.8265366783694 -326.6196624086033 140.18732018417967 -357.10927301136184 160.411839114294 -379.5899509042431C180.6363580444083 -402.07062879712436 208.06780241343034 -414.700737512032 236.67116545874632 -414.70161215324896L236.67116545874632 -294.82893235228187L128.82889782824816 -294.8289323522819Z"/>
          </g>
          <g opacity="1">
            <path fill="rgb(255,215,38)" fill-opacity="1" opacity="1" fill-rule="evenodd" d="M0.0007870420143038627 171.38022330274055C2.3236254644321324e-9 155.48484654478654 5.6805702478949875 140.24015554845795 15.792837161094278 128.9998083343725C25.905104074293558 117.75946112028706 39.62072340018879 111.44420840815481 53.92241543320911 111.44333371417042L107.84305467255399 111.44333371417042L107.84305467255399 231.31491413896418L53.92241543315036 231.31491413896418C24.14168237587163 231.31248559018292 0.0007869618536446604 204.47952178105163 0.0007870420143038627 171.38022330274066L0.0007870420143038627 171.38022330274055Z"/>
          </g>
          <g opacity="1">
            <path fill="rgb(4,142,203)" fill-opacity="1" opacity="1" fill-rule="evenodd" d="M128.82889782824813 27.532347915876073C128.8281107885286 43.42772467370925 134.50868103407228 58.67241567005051 144.62094794725118 69.91276288415865C154.73321486043008 81.15311009826671 168.4488341863139 87.46836281042975 182.75052621933423 87.4692375044462L236.67116545878795 87.4692375044462L236.67116545878795 -32.40454167269405L182.75052621938426 -32.40454167269405C168.4488341863639 -32.40366697869236 154.73321486047485 -26.088414266543495 144.62094794728657 -14.848067052445806C134.5086810340983 -3.607719838348121 128.82811078854186 11.636971157987269 128.82889782824813 27.532347915876073L128.82889782824813 27.532347915876073Z"/>
          </g>
          <g opacity="1">
            <ellipse fill="rgb(255,215,38)" fill-opacity="1" opacity="1" rx="42.84510729114265" ry="47.62497582451734" cx="193.8260581676454" cy="-223.87739288407576"/>
          </g>
          <g opacity="1">
            <path fill="rgb(148,192,212)" fill-opacity="1" opacity="1" fill-rule="evenodd" d="M1570.4176435515321 -176.25131768338528C1570.4213165417736 -208.04164332072818 1559.0616648143352 -238.5313810228438 1538.8379596406262 -261.01239154920535C1518.6142544669167 -283.4934020755669 1491.1833209832955 -296.1239307619868 1462.580321679643 -296.1250968605257L1462.580321679643 -176.25131768338528L1570.4176435515321 -176.25131768338528Z"/>
          </g>
          <g opacity="1">
            <path fill="rgb(148,192,212)" fill-opacity="1" opacity="1" fill-rule="evenodd" d="M1225.905986655951 -294.828932352282C1240.1459717094813 -294.83586006724914 1253.7955221272834 -301.1541589598339 1263.8300640781467 -312.38377108649C1276.5312946303666 -326.5424362545008 1282.0559874350508 -346.80036067920264 1278.5650342398812 -366.41390859631866C1275.0740810447116 -386.0274565134347 1263.0257836565766 -402.4217081382062 1246.4308851043224 -410.13920103432594C1239.9271319269728 -413.150316560219 1232.9514581979768 -414.70091577332624 1225.905986655951 -414.70161215324896L1225.905986655951 -294.828932352282L1225.905986655951 -294.828932352282Z"/>
          </g>
          <g opacity="1">
            <path fill="rgb(244,91,15)" fill-opacity="1" opacity="1" fill-rule="evenodd" d="M1441.5905219170309 -415.3502440954577C1382.1849368611354 -415.3502440954577 1334.0271950750425 -361.82612626857286 1334.0271950750425 -295.80078088942156C1334.0271950750425 -229.77543551027028 1382.1849368611354 -176.25131768338542 1441.5905219170309 -176.25131768338542L1441.5905219170309 -415.3502440954577L1441.5905219170309 -415.3502440954577Z"/>
          </g>
          <g opacity="1">
            <path fill="rgb(22,22,22)" fill-opacity="1" opacity="1" fill-rule="evenodd" d="M1333.753200045153 110.79580114813533C1333.749002237035 79.00539786917707 1345.108516976605 48.5154342982295 1365.3323643465028 26.034471881565693C1385.5562117164009 3.5535094649018255 1412.9874526659232 -9.076587396294938 1441.5905219170322 -9.076878652831738L1441.5905219170322 110.7958011481354L1333.753200045153 110.79580114813533Z"/>
          </g>
          <g opacity="1">
            <path fill="rgb(148,192,212)" fill-opacity="1" opacity="1" fill-rule="evenodd" d="M1462.5803216796537 230.02094838306746C1501.086520313259 230.15073051190666 1536.7177811728072 207.39326219870065 1556.0046678370986 170.35139007749086C1575.2915545013898 133.30951795628107 1575.2915545013898 87.63455177395478 1556.0046678370986 50.592679652745C1536.7177811728075 13.550807531535153 1501.086520313259 -9.206660781670791 1462.5803216796537 -9.076878652831676L1462.5803216796537 230.02094838306746L1462.5803216796537 230.02094838306746Z"/>
          </g>
          <g opacity="1">
            <path fill="rgb(230,230,230)" fill-opacity="1" opacity="1" fill-rule="evenodd" d="M1225.9059866559512 -151.6285895314528C1264.4121852895573 -151.75837166029345 1300.0434461491068 -129.0009033470878 1319.3303328133989 -91.95903122587737C1338.6172194776907 -54.917159104666894 1338.6172194776907 -9.242192922339342 1319.3303328133986 27.799679198871047C1300.0434461491066 64.84155132008144 1264.4121852895569 87.59901963328701 1225.905986655951 87.46923750444628L1225.905986655951 -151.6285895314528L1225.9059866559512 -151.6285895314528Z"/>
          </g>
          <g opacity="1">
            <path fill="rgb(148,192,212)" fill-opacity="1" opacity="1" fill-rule="evenodd" d="M1354.7331082904518 -152.27722147366097C1354.7331082904518 -86.25976928754216 1402.8850929184453 -32.742050157876974 1462.2835761599183 -32.742050157876974C1521.6820594013914 -32.742050157876974 1569.8340440293848 -86.25976928754216 1569.8340440293848 -152.27722147366097L1354.7331082904518 -152.27722147366097L1354.7331082904518 -152.27722147366097Z"/>
          </g>
          <g opacity="1">
            <path fill="rgb(244,91,15)" fill-opacity="1" opacity="1" fill-rule="evenodd" d="M1333.7532000451527 171.38022330274066C1333.7521075058153 204.48237971768282 1309.6079521416202 231.31650576853588 1279.8246475918493 231.31711289131079L1225.905986655951 231.31711289131079L1225.905986655951 111.44333371417052L1279.8246475918895 111.44333371417052C1309.6081784087733 111.44333370860227 1333.7526537588205 138.27781539590333 1333.7532000451527 171.38022330274066L1333.7532000451527 171.38022330274066Z"/>
          </g>
          <g opacity="1">
            <ellipse fill="rgb(255,215,38)" fill-opacity="1" opacity="1" rx="42.8451072911426" ry="47.624975824517314" cx="1505.4204832121338" cy="-367.07663632873164"/>
          </g>
          <g opacity="1">
            <ellipse fill="rgb(244,91,15)" fill-opacity="1" opacity="1" rx="42.845107291142824" ry="47.62497582451734" cx="1268.7560397057557" cy="-223.87739288407576"/>
          </g>
          <g opacity="1">
            <ellipse fill="rgb(255,215,38)" fill-opacity="1" opacity="1" rx="42.84510729114248" ry="47.62497582451728" cx="1397.5831613402568" cy="183.6910376906202"/>
          </g>
          <g opacity="1">
            <path fill="rgb(255,215,38)" fill-opacity="1" opacity="1" fill-rule="evenodd" d="M602.1696546617952 -9.076878652831965C602.1720158116741 22.713851403489365 590.8112323058639 53.20346200624792 570.5867133757495 75.68413989912919C550.3621944456352 98.16481779201047 522.9307500766131 110.79492650691809 494.3273870312972 110.79580114813504L494.3273870312972 -9.076878652831965L602.1696546617952 -9.076878652831965Z"/>
          </g>
          <g opacity="1">
            <path fill="rgb(22,22,22)" fill-opacity="1" opacity="1" fill-rule="evenodd" d="M946.6832898608408 134.76989735785938C932.4436477262255 134.7626769719431 918.7945018605446 128.44440054828138 908.7602015903774 117.2150586236513C896.0589710381574 103.05639345564045 890.5342782334731 82.7984690309386 894.0252314286427 63.18492111382254C897.5161846238125 43.571373196706475 909.5644820119476 27.17712157193498 926.1593805642018 19.459628675815292C932.6627116058677 16.448237183514 939.638112488948 14.897623892062615 946.6832898608409 14.897217556892258L946.6832898608408 134.76989735785938Z"/>
          </g>
          <g opacity="1">
            <path fill="rgb(244,91,15)" fill-opacity="1" opacity="1" fill-rule="evenodd" d="M710.0139005958004 -296.1250968605252C695.7741678018858 -296.13234234102646 682.1248395169721 -302.450142730955 672.0898231736045 -313.67883621856C659.3881426019116 -327.8374862511378 653.8631594618765 -348.0957312655605 657.3541346646474 -367.70962340911956C660.8451098674184 -387.32351555267866 672.8937223867256 -403.7179980993194 689.4890021474289 -411.43536554256923C695.9927400237189 -414.4465368235708 702.9684238835791 -415.997138288634 710.0139005958004 -415.99777666149225L710.0139005958004 -296.1250968605252Z"/>
          </g>
          <g opacity="1">
            <path fill="rgb(148,192,212)" fill-opacity="1" opacity="1" fill-rule="evenodd" d="M257.65700861448215 110.14716920592707C271.896538199535 110.1544861627522 285.54546129337336 116.47321995326713 295.5791077332131 127.70310731630835C308.2803382854331 141.86177248431932 313.80503109011744 162.1196969090211 310.3140778949478 181.7332448261372C306.82312469977813 201.34679274325316 294.774827311643 217.74104436802475 278.1799287593889 225.4585372641444C271.6769433378361 228.46992591149382 264.7018659647719 230.02054201960726 257.65700861448227 230.02094838306732L257.65700861448215 110.14716920592707Z"/>
          </g>
          <g opacity="1">
            <path fill="rgb(148,192,212)" fill-opacity="1" opacity="1" fill-rule="evenodd" d="M473.34154387556083 230.02094838306746C434.83534524195557 230.15073051190666 399.20408438240713 207.39326219870065 379.91719771811603 170.35139007749086C360.6303110538248 133.30951795628107 360.6303110538248 87.63455177395478 379.91719771811603 50.59267965274494C399.20408438240713 13.550807531535153 434.83534524195557 -9.206660781670791 473.34154387556083 -9.076878652831676L473.34154387556083 230.02094838306746Z"/>
          </g>
          <g opacity="1">
            <path fill="rgb(244,91,15)" fill-opacity="1" opacity="1" fill-rule="evenodd" d="M365.4992762450221 -296.1250968605256L473.34154387556185 -296.1250968605256L473.34154387556185 -176.25131768338528C413.7791451957768 -176.25738906965978 365.4976371886641 -229.92546334469432 365.4992762450221 -296.1250968605257L365.4992762450221 -296.1250968605256Z"/>
          </g>
          <g opacity="1">
            <path fill="rgb(255,215,38)" fill-opacity="1" opacity="1" fill-rule="evenodd" d="M494.32738703125466 -415.3502440954577C553.7329720871501 -415.3502440954577 601.8907138732432 -361.82612626857286 601.8907138732432 -295.80078088942156C601.8907138732432 -229.77543551027028 553.7329720871501 -176.25131768338542 494.32738703125466 -176.25131768338542L494.32738703125466 -415.3502440954577Z"/>
          </g>
          <g opacity="1">
            <path fill="rgb(4,142,203)" fill-opacity="1" opacity="1" fill-rule="evenodd" d="M731.5774083632463 230.02094838306692C731.5774083632463 164.00288902825338 779.729835849555 110.48467769110971 839.1288653844451 110.48467769110971C898.5278949193353 110.48467769110971 946.6803224056441 164.00288902825326 946.6803224056441 230.02094838306692L731.5774083632463 230.02094838306692Z"/>
          </g>
          <g opacity="1">
            <path fill="rgb(255,215,38)" fill-opacity="1" opacity="1" fill-rule="evenodd" d="M1182.769079603735 -124.41463173920675C1182.769079603735 -58.39717955308791 1134.6170949757416 -4.879460423422586 1075.2186117342685 -4.879460423422586C1015.8201284927954 -4.879460423422586 967.668143864802 -58.39717955308784 967.668143864802 -124.41463173920675L1182.769079603735 -124.41463173920675Z"/>
          </g>
          <g opacity="1">
            <path fill="rgb(244,91,15)" fill-opacity="1" opacity="1" fill-rule="evenodd" d="M967.668143864802 -9.076878652831853C1006.1743424984045 -9.206660781666471 1041.8056033579485 13.55080753154028 1061.0924900222371 50.592679652748046C1080.3793766865256 87.63455177395582 1080.379376686526 133.30951795627837 1061.0924900222378 170.3513900774863C1041.8056033579494 207.39326219869434 1006.1743424984054 230.15073051190146 967.668143864803 230.02094838306726L967.668143864802 -9.076878652831853Z"/>
          </g>
          <g opacity="1">
            <path fill="rgb(4,142,203)" fill-opacity="1" opacity="1" fill-rule="evenodd" d="M860.4084866046766 -152.9247540396962C860.4084853243505 -195.63173671104425 880.9080540081528 -235.09461676061883 914.1852032324887 -256.4481085471042C947.4623524568246 -277.8016003335895 988.461491401856 -277.8016003335895 1021.738640626192 -256.4481085471042C1055.0157898505279 -235.09461676061892 1075.5153585343303 -195.6317367110443 1075.5153572540041 -152.9247539596415L860.4084866046766 -152.9247540396962Z"/>
          </g>
          <g opacity="1">
            <path fill="rgb(255,215,38)" fill-opacity="1" opacity="1" fill-rule="evenodd" d="M946.6832898608413 -415.99777666149225C946.6839587910022 -400.2585049054541 943.9022017623107 -384.67244299918895 938.4960809714087 -370.12520645729796C933.0942209612642 -355.58811114355876 925.1720415136992 -342.3741129402148 915.1807854857216 -331.23587370511456C905.2002140945293 -320.1091087226538 893.3436469502159 -311.27871609783836 880.2894472752225 -305.24991909837127C853.9428251011092 -293.0835239838577 824.3208405781758 -293.0835239838577 797.9742184040624 -305.24991909837127C784.9200187290689 -311.2787160978383 773.0634515847555 -320.10910872265373 763.0828801935634 -331.2358737051144C753.0916241655857 -342.37411294021473 745.1694447180206 -355.5881111435587 739.7675847079458 -370.1252064571107C734.360422497343 -384.6722061831443 731.5776547619927 -400.25828185842084 731.5774083632463 -415.99777666149225L946.6832898608413 -415.99777666149225Z"/>
          </g>
          <g opacity="1">
            <path fill="rgb(148,192,212)" fill-opacity="1" opacity="1" fill-rule="evenodd" d="M710.0139005957999 -33.699606804764244C650.6083155399045 -33.699606804764244 602.4505737538116 -87.22372463164908 602.4505737538116 -153.24907001080035C602.4505737538116 -219.27441538995163 650.6083155399044 -272.79853321683646 710.0139005957999 -272.79853321683646L710.0139005957999 -33.699606804764244Z"/>
          </g>
          <g opacity="1">
            <path fill="rgb(255,215,38)" fill-opacity="1" opacity="1" fill-rule="evenodd" d="M257.65700861448215 -33.699606804764244L257.65700861448215 -272.79853321683646C317.06259367037757 -272.79853321683646 365.2203354564706 -219.27441538995163 365.2203354564706 -153.24907001080035C365.2203354564706 -87.22372463164908 317.06259367037757 -33.699606804764244 257.65700861448215 -33.699606804764244L257.65700861448215 -33.699606804764244Z"/>
          </g>
          <g opacity="1">
            <path fill="rgb(244,91,15)" fill-opacity="1" opacity="1" fill-rule="evenodd" d="M386.4851194007157 -33.05207423872915C386.3683557745588 -75.84442762321925 406.8418789424633 -115.44183476336471 440.16622457855635 -136.87556177565676C473.49057021464944 -158.3092887879489 514.581593477449 -158.30928878794853 547.9059391135418 -136.87556177565583C581.2302847496346 -115.4418347633632 601.7038079175385 -75.84442762321731 601.5870442913811 -33.05207423872764L386.4851194007157 -33.05207423872915Z"/>
          </g>
          <g opacity="1">
            <path fill="rgb(244,91,15)" fill-opacity="1" opacity="1" fill-rule="evenodd" d="M838.8400330785688 -9.076878652831965C838.9567967047228 33.71547473165117 818.4832735368187 73.31288187179251 785.1589279007281 94.746608884083C751.8345822646377 116.18033589637349 710.7435590018415 116.1803358963748 677.4192133657498 94.7466088840865C644.0948677296581 73.31288187179815 623.6213445617519 33.7154747316581 623.7381081879038 -9.076878652828466L838.8400330785688 -9.076878652831965Z"/>
          </g>
          <g opacity="1">
            <path fill="rgb(22,22,22)" fill-opacity="1" opacity="1" fill-rule="evenodd" d="M838.8400330785684 -152.92475403969627L730.9977654480286 -152.92475403969627L730.9977654480286 -272.79853321683646C790.5601641278136 -272.792461830562 838.8416721349263 -219.12438755552753 838.8400330785682 -152.9247540396963L838.8400330785684 -152.92475403969627Z"/>
          </g>
          <g opacity="1">
            <path fill="rgb(22,22,22)" fill-opacity="1" opacity="1" fill-rule="evenodd" d="M1204.342478888506 -415.9977766614925L1204.342478888506 -296.1250968605254L1096.495265499304 -296.1250968605254C1096.4918546561003 -327.91713685043527 1107.8529799670466 -358.4082583443809 1128.078796134126 -380.88934718219787C1148.3046123012052 -403.3704360200148 1175.7379371711752 -415.9995265228043 1204.3424788884138 -415.9977766614925L1204.342478888506 -415.9977766614925Z"/>
          </g>
          <g opacity="1">
            <path fill="rgb(244,91,15)" fill-opacity="1" opacity="1" fill-rule="evenodd" d="M838.8400330785682 -128.95065782997204L946.6832898608403 -128.95065782997204L946.6832898608403 -9.076878652831738C887.1205048841059 -9.082342933408228 838.8383940591767 -62.750595023744026 838.8400330785682 -128.95065782997204L838.8400330785682 -128.95065782997204Z"/>
          </g>
          <g opacity="1">
            <path fill="rgb(230,230,230)" fill-opacity="1" opacity="1" fill-rule="evenodd" d="M1096.4952654993033 110.14716920592713L1204.342478888505 110.14716920592713L1204.342478888505 230.02094838306735C1144.7788276002782 230.01609128549538 1096.4952653389876 176.34819483732284 1096.495265499303 110.14716920592707L1096.4952654993033 110.14716920592713Z"/>
          </g>
          <g opacity="1">
            <path fill="rgb(230,230,230)" fill-opacity="1" opacity="1" fill-rule="evenodd" d="M656.0912830529317 110.14716920592707C685.8718561205881 110.14838349049744 710.0133543436807 136.9805407016746 710.0139005958004 170.0796612898043L710.0139005958004 230.01655087837446L602.1696546617956 230.01655087837446L602.1696546617956 170.0796612898043C602.1702008816261 136.98097000968875 626.3110962749782 110.1489906121132 656.091283052654 110.14716920592713L656.0912830529317 110.14716920592707Z"/>
          </g>
          <g opacity="1">
            <path fill="rgb(4,142,203)" fill-opacity="1" opacity="1" fill-rule="evenodd" d="M365.49927624502186 -356.0608870729221C365.50036886283567 -322.96090781043586 341.35899349462835 -296.126918320774 311.57764785399 -296.1250968605252L257.65700861448215 -296.1250968605252L257.65700861448215 -415.99777666149225L311.57764785388576 -415.99777666149225C325.87933988690605 -415.99690196749054 339.59495921279506 -409.68164925534165 349.70722612598337 -398.441302041244C359.8194930391716 -387.20095482714635 365.50006328472807 -371.9562638308109 365.4992762450218 -356.0608870729221L365.49927624502186 -356.0608870729221Z"/>
          </g>
          <g opacity="1">
            <path fill="rgb(4,142,203)" fill-opacity="1" opacity="1" fill-rule="evenodd" d="M967.668143864803 -356.0608870729221C967.6675973003769 -389.1595049349265 991.8066843560916 -415.9929197584922 1021.5868048007796 -415.99777666149225L1075.5153572540048 -415.99777666149225L1075.5153572540048 -296.1250968605252L1021.5868048007416 -296.1250968605252C991.8068443492232 -296.12934670508565 967.667597368411 -322.96244711620625 967.668143864803 -356.0608870729221L967.668143864803 -356.0608870729221Z"/>
          </g>
          <g opacity="1">
            <path fill="rgb(148,192,212)" fill-opacity="1" opacity="1" fill-rule="evenodd" d="M1096.495265499304 -212.8616436282664C1096.494718935058 -245.96026149063331 1120.6338059909187 -272.7936763140367 1150.4139264356068 -272.7985332168366L1204.3424788885059 -272.7985332168366L1204.3424788885059 -152.92475403969624L1150.4139264352425 -152.92475403969624C1120.6338059905547 -152.9296109427196 1096.494718934857 -179.76302576630414 1096.495265499304 -212.8616436282664L1096.495265499304 -212.8616436282664Z"/>
          </g>
          <g opacity="1">
            <path fill="rgb(244,91,15)" fill-opacity="1" opacity="1" fill-rule="evenodd" d="M537.1724943223975 134.76989735785918C554.5043529262379 134.7676740167816 570.1306801705741 146.3699550209561 576.76449666059 164.16628266728242C583.3983131506061 181.96261031360876 579.733102772367 202.44803554692737 567.4780523415772 216.06965004558856C555.2230019107872 229.69126454424986 536.791717665877 233.76632016966863 520.7792063805168 226.39450817297268C504.7666950951566 219.02269617627667 494.326586968549 201.65587932410625 494.32738703125483 182.39267443003024C494.32738703125483 156.09262873974092 513.509315054785 134.77171871166732 537.1724944251533 134.7698973578513L537.1724943223975 134.76989735785918Z"/>
          </g>
          <g opacity="1">
            <path fill="rgb(230,230,230)" fill-opacity="1" opacity="1" fill-rule="evenodd" d="M300.50508336082197 -8.429346086796622C317.836761939088 -8.43156942530402 333.46296402217826 3.1704736685292954 340.0968964286554 20.966531358886115C346.73082883513246 38.76258904924299 343.0659810609451 59.24784173915964 330.81134084540156 72.86962917074513C318.5567006298579 86.4914166023306 300.1257408852454 90.5670149742475 284.11316626726057 83.19589578514608C268.1005916492757 75.82477659604467 257.6599761851239 58.45863456590317 257.65997606967926 39.19562973772069C257.65888344391766 12.89472551188106 276.8411314044279 -8.427524638463751 300.50508336080065 -8.429346086796684L300.50508336082197 -8.429346086796622Z"/>
          </g>
          <g opacity="1">
            <path fill="rgb(22,22,22)" fill-opacity="1" opacity="1" fill-rule="evenodd" d="M429.330226691858 -415.99777666149265C446.66190527012395 -416.00000000000006 462.2881073532142 -404.39795690616677 468.9220397596913 -386.6018992158099C475.5559721661683 -368.80584152545305 471.89112439198095 -348.3205888355364 459.6364841764374 -334.6988014039509C447.38184396089383 -321.0770139723654 428.95088421628134 -317.0014156004486 412.93830959829654 -324.37253478954995C396.92573498031174 -331.74365397865137 386.48511951615995 -349.10979600879284 386.4851194007153 -368.37280083697533C386.4840267750106 -394.67370506292946 405.6662747355669 -415.99595521322294 429.33022669193963 -415.99777666149265L429.330226691858 -415.99777666149265Z"/>
          </g>
          <g opacity="1">
            <path fill="rgb(148,192,212)" fill-opacity="1" opacity="1" fill-rule="evenodd" d="M774.4264722613168 -128.3020258877637C791.7577909168335 -128.30247054622805 807.3827787574884 -116.69929963557065 814.0154644867764 -98.90310105932426C820.6481502160646 -81.10690248307779 816.9823257193325 -60.6223710118131 804.7273742187368 -47.00149541147688C792.472422718141 -33.38061981114065 774.0417733656278 -29.30582752726673 758.0296845073678 -36.677204494148C742.0175956491078 -44.04858146102926 731.5774083678621 -61.4144453883694 731.5774083632444 -80.67705006324641C731.5768836577578 -93.30796727029212 736.0911255746644 -105.42173845162783 744.1269691461185 -114.35324875793776C752.1628127175728 -123.28475906424775 763.0619421285724 -128.30231748708732 774.4264722612464 -128.3020258877637L774.4264722613168 -128.3020258877637Z"/>
          </g>
          <g opacity="1">
            <path fill="rgb(255,215,38)" fill-opacity="1" opacity="1" fill-rule="evenodd" d="M1161.492425838701 -8.42934608679675C1178.8245540676169 -8.433792879264445 1194.4522738395208 3.166840185612436 1201.0877646433194 20.96272155045739C1207.723255447118 38.758602915302404 1204.0596287571773 59.24475701057021 1191.8053778230333 72.86768427343061C1179.5511268888895 86.49061153629087 1161.1197792715936 90.56721770110417 1145.1065974389257 83.1964209429333C1129.093415606258 75.82562418476235 1118.6522647680108 58.45913470754843 1118.6522643062203 39.195629737720516C1118.6539016933284 12.89812862081989 1137.831536769611 -8.42145501768727 1161.4924258387127 -8.42934608679675L1161.492425838701 -8.42934608679675Z"/>
          </g>
          <g opacity="1">
            <path fill="rgb(148,192,212)" fill-opacity="1" opacity="1" fill-rule="evenodd" d="M344.5134330893277 664.1558041839742C344.51526951964365 695.9461532961463 333.15425436613043 726.4351990148783 312.9297923088521 748.9154013420824C292.70533025157386 771.3956036692864 265.27418571536856 784.025410559059 236.6711654588657 784.0262852325947L236.6711654588657 664.1558041839742L344.5134330893277 664.1558041839742Z"/>
          </g>
          <g opacity="1">
            <path fill="rgb(255,215,38)" fill-opacity="1" opacity="1" fill-rule="evenodd" d="M689.0270682883726 808.0036795708386C667.2931872266231 807.956850170053 647.730290992787 793.3461521259718 639.4794688581377 770.9986775797659C628.087409492421 740.4662039831076 641.067860571068 705.4449558691864 668.5041481434661 692.6901127602746C675.0071029392795 689.6786125359031 681.9822005925046 688.127991919346 689.0270682883726 688.1277016413515L689.0270682883726 808.0036795708386Z"/>
          </g>
          <g opacity="1">
            <path fill="rgb(22,22,22)" fill-opacity="1" opacity="1" fill-rule="evenodd" d="M452.3566898715994 377.10868535245413C438.11704773698415 377.10146496653806 424.4679018713033 370.78318854287636 414.43360160113616 359.5538466182463C401.73192102944313 345.3951965856685 396.206937889408 325.13695157124585 399.69791309217896 305.5230594276868C403.1888882949499 285.9091672841279 415.237500814257 269.514684737487 431.83278057496034 261.79731729423725C438.3362569940238 258.7864555139925 445.31156162308895 257.2358636195559 452.3566898715994 257.234906175314L452.3566898715994 377.10868535245413Z"/>
          </g>
          <g opacity="1">
            <path fill="rgb(22,22,22)" fill-opacity="1" opacity="1" fill-rule="evenodd" d="M0.0007870420147090039 783.3776532903862C7.04564180603683 783.3780886724164 14.020714109784334 784.9287036535799 20.52370718692126 787.9400644093093C27.035684438640093 790.9581432560587 32.94821333259037 795.3739322987657 37.92288616074554 800.9346907769406C42.908723323063015 806.5066738953616 46.85897751058345 813.1149403066313 49.548386472249675 820.3826552814587C52.24466424510934 827.6569633545228 53.631565606960294 835.4482433900569 53.630615672077575 843.3156422551297C53.63156560696159 851.1830411201914 52.24466424511193 858.9743211557259 49.54838647225344 866.2486292287905C46.85893171363833 873.5163171643508 42.908683148139694 880.1245741707025 37.92288616074559 885.6965937333187C32.94819676517822 891.2573298994085 27.035672111561944 895.6731157752099 20.523707186921285 898.69122010095C14.020714109784347 901.7025808566796 7.045641806036839 903.253195837843 0.0007870420147122217 903.2536312198731L0.0007870420147090039 783.3776532903862Z"/>
          </g>
          <g opacity="1">
            <path fill="rgb(255,215,38)" fill-opacity="1" opacity="1" fill-rule="evenodd" d="M215.68532230309415 903.2536312198729C177.1791236694889 903.383413348712 141.54786280994043 880.625945035506 122.2609761456492 843.5840729142963C102.97408948135799 806.5422007930864 102.97408948135799 760.8672346107601 122.2609761456492 723.8253624895502C141.5478628099404 686.7834903683404 177.17912366948883 664.0260220551345 215.68532230309415 664.1558041839736L215.68532230309415 903.2536312198729Z"/>
          </g>
          <g opacity="1">
            <path fill="rgb(244,91,15)" fill-opacity="1" opacity="1" fill-rule="evenodd" d="M107.8430546725544 376.4600534102452L215.68532230309404 376.4600534102452L215.68532230309404 496.3327332112124C156.1230836197771 496.3272689306382 107.84141565316156 442.6595090477801 107.8430546725544 376.4600534102452L107.8430546725544 376.4600534102452Z"/>
          </g>
          <g opacity="1">
            <path fill="rgb(244,91,15)" fill-opacity="1" opacity="1" fill-rule="evenodd" d="M236.67116545878798 257.2349061753127C275.1773640923933 257.10512404647363 310.8086249519417 279.86259235967947 330.0955116162329 316.90446448088926C349.3823982805241 353.946336602099 349.3823982805241 399.6213027844253 330.0955116162329 436.66317490563506C310.80862495194174 473.7050470268448 275.17736409239336 496.4625153400508 236.67116545878804 496.3327332112117L236.67116545878798 257.2349061753127Z"/>
          </g>
          <g opacity="1">
            <path fill="rgb(148,192,212)" fill-opacity="1" opacity="1" fill-rule="evenodd" d="M473.92514339770764 903.2536312198732C473.80837977155784 860.4612778353872 494.281902939464 820.8638706952498 527.6062485755541 799.4301436829626C560.9305942116442 777.9964166706753 602.0216174744382 777.9964166706758 635.3459631105281 799.4301436829636C668.6703087466179 820.8638706952513 689.1438319145236 860.4612778353891 689.0270682883731 903.2536312198737L473.92514339770764 903.2536312198732Z"/>
          </g>
          <g opacity="1">
            <path fill="rgb(255,215,38)" fill-opacity="1" opacity="1" fill-rule="evenodd" d="M925.1138471830008 549.4666830398078C925.2306108091548 592.259036424291 904.7570876412507 631.8564435644325 871.43274200516 653.290170576723C838.1083963690694 674.7238975890136 797.0173731062732 674.7238975890148 763.6930274701816 653.2901705767265C730.3686818340898 631.8564435644381 709.8951586661836 592.2590364242978 710.0119222923355 549.4666830398113L925.1138471830008 549.4666830398078Z"/>
          </g>
          <g opacity="1">
            <path fill="rgb(4,142,203)" fill-opacity="1" opacity="1" fill-rule="evenodd" d="M710.0139005958004 664.1558041839737C748.5200992294057 664.0260220551345 784.1513600889541 686.7834903683404 803.4382467532452 723.8253624895502C822.7251334175364 760.8672346107601 822.7251334175364 806.5422007930864 803.4382467532452 843.5840729142963C784.1513600889541 880.625945035506 748.5200992294058 903.383413348712 710.0139005958005 903.2536312198729L710.0139005958004 664.1558041839737Z"/>
          </g>
          <g opacity="1">
            <path fill="rgb(244,91,15)" fill-opacity="1" opacity="1" fill-rule="evenodd" d="M602.7522650322082 520.3079287971098C602.7522650322082 454.2898694422962 650.904692518517 400.7716581051525 710.3037220534072 400.7716581051525C769.7027515882972 400.7716581051525 817.8551790746061 454.2898694422961 817.8551790746061 520.3079287971098L602.7522650322082 520.3079287971098Z"/>
          </g>
          <g opacity="1">
            <path fill="rgb(244,91,15)" fill-opacity="1" opacity="1" fill-rule="evenodd" d="M689.0270682883735 257.234906175314C689.1438319145275 300.02725955979713 668.6703087466233 339.62466669993853 635.3459631105327 361.05839371222896C602.0216174744421 382.4921207245195 560.9305942116458 382.49212072452076 527.6062485755541 361.05839371223243C494.2819029394624 339.62466669994416 473.80837977155613 300.027259559804 473.9251433977079 257.2349061753175L689.0270682883735 257.234906175314Z"/>
          </g>
          <g opacity="1">
            <path fill="rgb(148,192,212)" fill-opacity="1" opacity="1" fill-rule="evenodd" d="M452.35668987159994 640.1806085980768C413.8504912379947 640.310390726916 378.2192303784462 617.5529224137101 358.9323437141549 580.5110502925003C339.64545704986375 543.4691781712904 339.64545704986375 497.7942119889642 358.9323437141549 460.7523398677544C378.2192303784461 423.7104677465445 413.85049123799456 400.9529994333386 452.35668987159994 401.0827815621777L452.35668987159994 640.1806085980768Z"/>
          </g>
          <g opacity="1">
            <path fill="rgb(244,91,15)" fill-opacity="1" opacity="1" fill-rule="evenodd" d="M0.0007870420147090039 640.1806085980768L0.0007870420147090039 401.0827815621777C14.16085322066346 401.08190531070545 28.183034186210122 404.174046210968 41.27017562336193 410.18341752421264C54.34886418433217 416.187672154336 66.23676483589593 424.9934630353733 76.25647240017629 436.09901205586874C86.26646747440071 447.19362422600426 94.21015206991655 460.3728681892917 99.63309529320587 474.8828046952344C105.05229501662915 489.3834058626052 107.84229590558283 504.93049599727925 107.84305467255449 520.632244768214C107.84242534016681 536.3336520108643 105.05241693730501 551.8804104126225 99.63309529307648 566.3805854653663C94.20992616419137 580.8909783268251 86.26590103145335 594.0706031897935 76.25548324844392 605.1654774805588C66.23529988869248 616.2703804344478 54.347521635836834 625.0760806504082 41.26918647162946 631.081072012215C28.182156943456157 637.0894580198033 14.160411317078147 640.1812034979018 0.0007870420147737093 640.1806085980768L0.0007870420147090039 640.1806085980768Z"/>
          </g>
          <g opacity="1">
            <path fill="rgb(4,142,203)" fill-opacity="1" opacity="1" fill-rule="evenodd" d="M128.8288978282486 640.1806085980766C128.71213420209313 597.3882552135926 149.185657369997 557.7908480734496 182.51000300608817 536.3571210611582C215.83434864217935 514.9233940488666 256.9253719049768 514.9233940488654 290.24971754106906 536.3571210611547C323.5740631771614 557.790848073444 344.0475863450673 597.3882552135857 343.9308227189141 640.1806085980734L128.8288978282486 640.1806085980766Z"/>
          </g>
          <g opacity="1">
            <path fill="rgb(244,91,15)" fill-opacity="1" opacity="1" fill-rule="evenodd" d="M581.1838115061007 664.1558041839742C581.3005751322547 706.9481575684572 560.8270519643506 746.5455647085985 527.5027063282599 767.9792917208889C494.17836069216935 789.4130187331793 453.08733742937306 789.4130187331808 419.76299179328134 767.9792917208924C386.4386461571896 746.545564708604 365.9651229892834 706.9481575684641 366.08188661543517 664.1558041839777L581.1838115061007 664.1558041839742Z"/>
          </g>
          <g opacity="1">
            <path fill="rgb(148,192,212)" fill-opacity="1" opacity="1" fill-rule="evenodd" d="M581.1838115061015 520.3079287971094L473.34154387556185 520.3079287971094L473.34154387556185 400.43524899614255C532.9035562642123 400.44132035696435 581.1849042867539 454.10872460418534 581.1838115061015 520.3079287971094L581.1838115061015 520.3079287971094Z"/>
          </g>
          <g opacity="1">
            <path fill="rgb(22,22,22)" fill-opacity="1" opacity="1" fill-rule="evenodd" d="M946.6832898608401 257.234906175314L946.6832898608401 377.10868535245413L838.8400330785679 377.10868535245413C838.8376719286924 345.31766372343293 850.1985596484066 314.8277734900443 870.4232640804561 292.34688942413914C890.6479685125056 269.86600535823413 918.0796644761417 257.23578081652903 946.6832898608075 257.234906175314L946.6832898608401 257.234906175314Z"/>
          </g>
          <g opacity="1">
            <path fill="rgb(255,215,38)" fill-opacity="1" opacity="1" fill-rule="evenodd" d="M581.1838115061006 544.2820250068338L689.0270682883728 544.2820250068338L689.0270682883728 664.1558041839743C629.4642833116384 664.1503399033978 581.1821724867091 610.482087813062 581.1838115061006 544.2820250068338L581.1838115061006 544.2820250068338Z"/>
          </g>
          <g opacity="1">
            <path fill="rgb(244,91,15)" fill-opacity="1" opacity="1" fill-rule="evenodd" d="M838.8400330785688 783.3776532903862L946.6832898608409 783.3776532903862L946.6832898608409 903.2536312198731C887.1195059778418 903.2487740335454 838.8367552002493 849.57882619179 838.8400330785688 783.3776532903862L838.8400330785688 783.3776532903862Z"/>
          </g>
          <g opacity="1">
            <path fill="rgb(4,142,203)" fill-opacity="1" opacity="1" fill-rule="evenodd" d="M398.43110487353385 783.3776532903862C428.2129968150334 783.3800818835501 452.3543722038296 810.215055804428 452.35273326466984 843.3156422551297L452.35273326466984 903.2536312198731L344.51343308932763 903.2536312198731L344.51343308932763 843.3156422551297C344.51179399469964 810.2167729283052 368.65075813594206 783.3825102748629 398.4311048735085 783.3776532903862L398.43110487353385 783.3776532903862Z"/>
          </g>
          <g opacity="1">
            <path fill="rgb(4,142,203)" fill-opacity="1" opacity="1" fill-rule="evenodd" d="M107.84305467255447 317.1761932685771C107.84469361169901 350.27617255061784 83.70376108120394 377.1106542640031 53.92241543312123 377.1130828571472L0.0007870420147090039 377.1130828571472L0.0007870420147090039 257.234906175314L53.92241543315081 257.234906175314C68.22462166823465 257.2360723769635 81.94058654272669 263.552057457998 92.05275326399169 274.7933241997197C102.16491998525669 286.03459094144154 107.84489115252796 301.28024509765663 107.84305467255447 317.1761932685771L107.84305467255447 317.1761932685771Z"/>
          </g>
          <g opacity="1">
            <path fill="rgb(255,215,38)" fill-opacity="1" opacity="1" fill-rule="evenodd" d="M710.0139005958 317.17619326857704C710.0131135561093 301.2808165106231 715.6936838016807 286.0361255142945 725.8059507148799 274.79577830020907C735.9182176280792 263.55543108612363 749.6338369539744 257.24017837399134 763.9355289869948 257.23930368000697L817.8571573780722 257.23930368000697L817.8571573780722 377.10868535245413L763.9335506834713 377.10868535245413C734.1543627572685 377.10504274053744 710.0149928889209 350.2737745258478 710.0139005958 317.17619326857704L710.0139005958 317.17619326857704Z"/>
          </g>
          <g opacity="1">
            <path fill="rgb(230,230,230)" fill-opacity="1" opacity="1" fill-rule="evenodd" d="M838.8400330785681 460.3710392085394C838.8389404607543 427.271059946053 862.9803158289617 400.43707045639127 892.7616614696 400.43524899614255L946.6832898608403 400.43524899614255L946.6832898608403 520.3079287971095L892.7616614697042 520.3079287971095C878.4599694366839 520.3070541031077 864.7443501107947 513.9918013909588 854.6320831976064 502.7514541768612C844.5198162844182 491.51110696276356 838.8392460388619 476.2664159664281 838.840033078568 460.3710392085393L838.8400330785681 460.3710392085394Z"/>
          </g>
          <g opacity="1">
            <path fill="rgb(230,230,230)" fill-opacity="1" opacity="1" fill-rule="evenodd" d="M279.5172619016631 808.0036795708388C296.8488505160939 808.0019009092698 312.4747490461901 819.6042259745041 319.1083697799807 837.4003189008762C325.7419905137713 855.1964118272483 322.076898546877 875.6814842203655 309.82218049839855 889.3030436913243C297.5674624499202 902.9246031622831 279.1365802955037 907 263.12412711845195 899.6288163525405C247.11167394140026 892.2576327050808 236.6711655326722 874.8915601885448 236.67116545878804 855.6286553953562C236.66959122061806 842.9979521085916 241.18308873546997 830.8840030104833 249.2185180064288 821.952334631308C257.2539472773877 813.0206662521324 268.1529241535704 808.0030962339224 279.517261901613 808.0036795708388L279.5172619016631 808.0036795708388Z"/>
          </g>
          <g opacity="1">
            <path fill="rgb(4,142,203)" fill-opacity="1" opacity="1" fill-rule="evenodd" d="M42.84589433315725 664.7989392453164C60.17641279020336 664.797605290456 75.80116121963208 676.3994387215 82.43427996890051 694.1944753094208C89.06739871816893 711.9895118973415 85.40259439713708 732.4732857112876 73.14877451607113 746.0941612905722C60.89495463500517 759.7150368698567 42.46532548790795 763.7905867757883 26.453669689625304 756.4203717945338C10.442013891342667 749.0501568132796 0.0015872367901523551 731.6856303980114 0.0007870420145881773 712.4239150698335C2.0450849009260097e-13 699.7936703935103 4.5136145439312445 687.6803962342306 12.548659236785152 678.7489491346947C20.58370392963906 669.817502035159 31.481969296830563 664.7995223691786 42.845894333230476 664.7989392453163L42.84589433315725 664.7989392453164Z"/>
          </g>
          <g opacity="1">
            <path fill="rgb(22,22,22)" fill-opacity="1" opacity="1" fill-rule="evenodd" d="M171.67400511939033 257.2349061753132C189.00568369765625 257.2326828368059 204.63188578074647 268.83472593063925 211.2658181872236 286.63078362099606C217.89975059370067 304.42684131135286 214.2349028195133 324.9120940012696 201.98026260396978 338.533881432855C189.72562238842625 352.1556688644406 171.29466264381378 356.2312672363575 155.28208802582898 348.8601480472561C139.26951340784416 341.48902885815465 128.82889794369237 324.1228868280131 128.8288978282477 304.8598819998307C128.8278052024861 278.558977773991 148.01005316299634 257.2367276236461 171.67400511936904 257.2349061753132L171.67400511939033 257.2349061753132Z"/>
          </g>
          <g opacity="1">
            <path fill="rgb(22,22,22)" fill-opacity="1" opacity="1" fill-rule="evenodd" d="M516.770250688851 544.9306569490421C534.1019292671169 544.9284336105349 549.7281313502071 556.5304767043681 556.3620637566843 574.326534394725C562.9959961631614 592.1225920850817 559.3311483889739 612.6078447749983 547.0765081734304 626.2296322065837C534.8218679578868 639.8514196381692 516.3909082132743 643.9270180100862 500.3783335952896 636.5558988209847C484.3657589773047 629.1847796318833 473.9251435131529 611.8186376017419 473.9251433977082 592.5556327735595C473.9240507719466 566.2547285477199 493.1062987324568 544.932478397375 516.7702506888296 544.9306569490421L516.770250688851 544.9306569490421Z"/>
          </g>
          <g opacity="1">
            <path fill="rgb(22,22,22)" fill-opacity="1" opacity="1" fill-rule="evenodd" d="M903.8371934179658 664.7989392453167C921.1680719335221 664.797605262738 936.7930706966625 676.3999144931554 943.4259576331624 694.1954909787055C950.0588445696621 711.9910674642558 946.3933150688358 732.4751863640913 934.1386747775381 746.0957160971016C921.8840344862405 759.7162458301115 903.45375634138 763.7907102798554 887.4422271836615 756.4191097081543C871.4306980259432 749.0475091364533 860.9912859985441 731.6816330743414 860.992086126823 712.419517565141C860.993178567671 686.1203306471932 880.1747865904234 664.8007605747902 903.837193417837 664.7989392453165L903.8371934179658 664.7989392453167Z"/>
          </g>
          <g opacity="1">
            <path fill="rgb(22,22,22)" fill-opacity="1" opacity="1" fill-rule="evenodd" d="M1227.65678522239 352.48595720052106C1241.8967483514446 352.49300666292106 1255.5462583799754 358.8112868595429 1265.5808626445862 370.04079593472903C1278.2820931968063 384.19946110274003 1283.8067860014908 404.4573855274418 1280.315832806321 424.0709334445578C1276.8248796111516 443.6844813616739 1264.7765822230162 460.07873298644535 1248.181683670762 467.7962258825651C1241.677953445511 470.8074250427008 1234.702264519785 472.35802763383833 1227.65678522239 472.35863700148803L1227.65678522239 352.48595720052106Z"/>
          </g>
          <g opacity="1">
            <path fill="rgb(22,22,22)" fill-opacity="1" opacity="1" fill-rule="evenodd" d="M1464.9048282509152 783.3776532903862C1479.145274082706 783.3841886075982 1492.7951881541705 789.7034472245709 1502.828905673111 800.934690776941C1515.5305862448038 815.0933408095185 1521.0555693848391 835.3515858239413 1517.564594182068 854.9654779675004C1514.0736189792972 874.5793701110596 1502.02500645999 890.9738526577004 1485.4297266992867 898.6912201009502C1478.9262798016123 901.703451530075 1471.9504032354612 903.2540958311758 1464.9048282509154 903.2536312198733L1464.9048282509152 783.3776532903862Z"/>
          </g>
          <g opacity="1">
            <path fill="rgb(148,192,212)" fill-opacity="1" opacity="1" fill-rule="evenodd" d="M1442.7577209613235 257.234906175314C1442.7577209613235 323.2523583614328 1394.6057363333298 376.7700774910981 1335.2072530918567 376.7700774910981C1275.8087698503837 376.7700774910981 1227.65678522239 323.2523583614328 1227.65678522239 257.234906175314L1442.7577209613235 257.234906175314Z"/>
          </g>
          <g opacity="1">
            <path fill="rgb(148,192,212)" fill-opacity="1" opacity="1" fill-rule="evenodd" d="M991.5660497208339 611.6704862975871C991.5660497208339 545.6530341114683 1039.7180343488274 492.13531498180294 1099.1165175903004 492.13531498180294C1158.5150008317735 492.13531498180294 1206.6669854597667 545.6530341114683 1206.6669854597667 611.6704862975871L991.5660497208339 611.6704862975871Z"/>
          </g>
          <g opacity="1">
            <path fill="rgb(4,142,203)" fill-opacity="1" opacity="1" fill-rule="evenodd" d="M1206.6669854597667 496.3327332112116C1168.1607868261615 496.4625153400508 1132.5295259666132 473.7050470268449 1113.2426393023218 436.6631749056352C1093.9557526380306 399.6213027844253 1093.9557526380306 353.9463366020991 1113.2426393023218 316.9044644808894C1132.5295259666132 279.86259235967947 1168.1607868261615 257.10512404647363 1206.6669854597667 257.2349061753127L1206.6669854597667 496.3327332112116Z"/>
          </g>
          <g opacity="1">
            <path fill="rgb(244,91,15)" fill-opacity="1" opacity="1" fill-rule="evenodd" d="M1313.9305993268222 640.1806085980766C1313.9305993268222 706.1980607841955 1265.7786146988287 759.7157799138608 1206.3801314573557 759.7157799138608C1146.9816482158826 759.7157799138608 1098.8296635878892 706.1980607841955 1098.8296635878892 640.1806085980766L1313.9305993268222 640.1806085980766Z"/>
          </g>
          <g opacity="1">
            <path fill="rgb(255,215,38)" fill-opacity="1" opacity="1" fill-rule="evenodd" d="M1227.65678522239 903.2536312198724C1227.65678522239 837.236179033754 1275.8087698503837 783.718459904089 1335.2072530918567 783.718459904089C1394.6057363333298 783.718459904089 1442.7577209613235 837.236179033754 1442.7577209613235 903.2536312198724L1227.65678522239 903.2536312198724Z"/>
          </g>
          <g opacity="1">
            <path fill="rgb(4,142,203)" fill-opacity="1" opacity="1" fill-rule="evenodd" d="M1464.9048282509152 520.9554613631444C1503.4103193903263 520.8256804253797 1539.040926039794 543.582729919238 1558.3274586476296 580.6239212549496C1577.6139912554652 617.6651125906611 1577.6139912554654 663.3392396668322 1558.3274586476302 700.3804310025441C1539.040926039795 737.421622338256 1503.4103193903277 760.1786718321148 1464.9048282509166 760.0488908943507L1464.9048282509152 520.9554613631444Z"/>
          </g>
          <g opacity="1">
            <path fill="rgb(244,91,15)" fill-opacity="1" opacity="1" fill-rule="evenodd" d="M1335.4941070942682 496.3327332112124C1335.4941070942682 430.3122451816196 1383.6483060138382 376.79206501456207 1443.0495207223967 376.79206501456207C1502.4507354309553 376.79206501456207 1550.6049343505254 430.31224518161946 1550.6049343505254 496.3327332112124L1335.4941070942682 496.3327332112124Z"/>
          </g>
          <g opacity="1">
            <path fill="rgb(4,142,203)" fill-opacity="1" opacity="1" fill-rule="evenodd" d="M1336.077706616414 640.1806085980766L1443.9249200056158 640.1806085980766L1443.9249200056158 760.0488908943507C1384.3629738138898 760.0446410612027 1336.0798915114708 706.3797390421386 1336.077706616414 640.1806085980767L1336.077706616414 640.1806085980766Z"/>
          </g>
          <g opacity="1">
            <path fill="rgb(244,91,15)" fill-opacity="1" opacity="1" fill-rule="evenodd" d="M970.0005636499227 903.2536312198731L970.0005636499227 783.3776532903862L1077.8398638252652 783.3776532903862C1077.8440616118205 815.1687408097731 1066.484370004636 845.6593766509442 1046.2601800710656 868.1409259764218C1026.0359901374952 890.6224753018996 998.6042485352209 903.2530483679308 970.0005636498901 903.2536312198731L970.0005636499227 903.2536312198731Z"/>
          </g>
          <g opacity="1">
            <path fill="rgb(244,91,15)" fill-opacity="1" opacity="1" fill-rule="evenodd" d="M1335.4941070942675 616.206512388353L1227.65678522239 616.206512388353L1227.65678522239 496.33273321121266C1256.2610718676124 496.32923225413697 1283.694445411836 508.9582623971455 1303.9190609073767 531.4402848525572C1324.1436764029172 553.9223073079687 1335.5019794294242 584.4147567272553 1335.4941070942675 616.206512388353L1335.4941070942675 616.206512388353Z"/>
          </g>
          <g opacity="1">
            <path fill="rgb(230,230,230)" fill-opacity="1" opacity="1" fill-rule="evenodd" d="M1077.8398638252647 377.10868535245424L970.0005636499228 377.10868535245424L970.0005636499228 257.234906175314C1029.561124565498 257.24461986652955 1077.8398644664937 310.9110939296269 1077.8398638252647 377.10868535245436L1077.8398638252647 377.10868535245424Z"/>
          </g>
          <g opacity="1">
            <path fill="rgb(4,142,203)" fill-opacity="1" opacity="1" fill-rule="evenodd" d="M1518.8333807041786 377.10868535245436C1489.0498498872946 377.1086853580226 1464.9053745372473 350.2742036707216 1464.9048282509152 317.1717957638842L1464.9048282509152 257.234906175314L1572.7520416401173 257.234906175314L1572.7520416401173 317.17619326857715C1572.7504033142561 350.2730938438277 1548.6119560788857 377.10382874595047 1518.833380704154 377.1086853524545L1518.8333807041786 377.10868535245436Z"/>
          </g>
          <g opacity="1">
            <path fill="rgb(230,230,230)" fill-opacity="1" opacity="1" fill-rule="evenodd" d="M1206.6669854597665 843.3156422551297C1206.6690843351205 859.2109955398503 1200.9893743059406 874.4561468423304 1190.8774932797928 885.6968898956251C1180.7656122536448 896.9376329489199 1167.0499955815596 903.2530482037258 1152.7483245238523 903.2536312198731L1098.8296635878892 903.2536312198731L1098.8296635878892 783.3776532903862L1152.7483245238277 783.3776532903862C1167.049995581535 783.3782363065263 1180.7656122536227 789.6936515613254 1190.8774932797753 800.934394614615C1200.9893743059279 812.1751376679047 1206.669084335114 827.4202889703819 1206.6669854597665 843.3156422551297L1206.6669854597665 843.3156422551297Z"/>
          </g>
          <g opacity="1">
            <path fill="rgb(4,142,203)" fill-opacity="1" opacity="1" fill-rule="evenodd" d="M1077.8398638252652 700.1218956913397C1077.8424880885384 716.0164169763303 1072.1626310630802 731.2607774089902 1062.050351735628 742.4999013825616C1051.9380724081761 753.7390253561329 1038.222125219948 760.0518075879314 1023.9212028893375 760.0488908943505L970.0005636499228 760.0488908943505L970.0005636499228 640.1806085980766L1023.9212028893264 640.1806085980766C1038.2233881844834 640.1811914827226 1051.9394546729768 646.4970594696192 1062.0514210227957 657.7385159066041C1072.1633873726146 668.9799723435889 1077.8427498790243 684.2259710184356 1077.8398638252652 700.1218956913397L1077.8398638252652 700.1218956913397Z"/>
          </g>
          <g opacity="1">
            <path fill="rgb(255,215,38)" fill-opacity="1" opacity="1" fill-rule="evenodd" d="M1400.4912674336654 615.5578804461444C1376.8258366048174 615.5578804461444 1357.6412143838604 594.2354524805681 1357.6412143838604 567.9329046216271C1357.6412143838604 541.630356762686 1376.8258366048174 520.3079287971098 1400.4912674336651 520.3079287971096C1424.1566982625127 520.3079287971096 1443.34132048347 541.6303567626858 1443.34132048347 567.9329046216269C1443.3426324538054 580.5642805021142 1438.8285075663623 592.6787266970131 1430.792279384078 601.6104582973813C1422.756051201794 610.5421898977498 1411.8562102437077 615.5593386136352 1400.4912674337113 615.5578804461444L1400.4912674336654 615.5578804461444Z"/>
          </g>
          <g opacity="1">
            <path fill="rgb(255,215,38)" fill-opacity="1" opacity="1" fill-rule="evenodd" d="M1012.8427034858694 495.6852006451769C989.1772726570218 495.685200645177 969.9926504360647 474.3627726796009 969.9926504360645 448.0602248206599C969.9926504360645 421.7576769617188 989.1772726570217 400.43524899614266 1012.8427034858694 400.43524899614255C1036.508134314717 400.43524899614255 1055.692756535674 421.7576769617187 1055.692756535674 448.06022482065964C1055.6938060681514 460.69151130259536 1051.1795969042073 472.80578801782553 1043.1434256176271 481.7374563823921C1035.107254331047 490.66912474695874 1024.2075658604344 495.6863671305242 1012.8427034858631 495.685200645177L1012.8427034858694 495.6852006451769Z"/>
          </g>
        </g>
      </g>
    </g>
  </g>
</svg>