<svg xmlns="http://www.w3.org/2000/svg" xmlns:xlink="http://www.w3.org/1999/xlink" height="340" width="1601">
  <defs>
    <path id="path-1" opacity="1" fill-rule="evenodd" d="M0 0L1601 0L1601 290C1601 317.5957512247 1578.5957512247 340 1551 340L50 340C22.404248775300005 340 7.105427357601002e-15 317.5957512247 0 290L0 0Z"/>
    <mask id="mask-2" maskUnits="userSpaceOnUse" maskContentUnits="userSpaceOnUse">
      <rect opacity="1" x="0" y="0" width="1601" height="340" fill="Black"/>
      <use xlink:href="#path-1" fill="White"/>
    </mask>
  </defs>
  <g transform="translate(-1.1368683772161603e-13, 0)" opacity="1">
    <g opacity="1">
      <g opacity="1">
        <use xlink:href="#path-1" fill="rgb(0,38,188)" fill-opacity="1"/>
      </g>
      <g mask="url(#mask-2)">
        <g opacity="0.17">
          <g opacity="1">
            <path fill="rgb(148,192,212)" fill-opacity="1" opacity="1" fill-rule="evenodd" d="M239.1523901418198 -60.91466397318362C239.31306949273863 -118.0244690893155 199.02673585868828 -167.26499066608534 143.00128690626852 -178.43666328212043C86.97583795384878 -189.60833589815553 30.874011020401873 -159.58795434804392 9.103459365526064 -106.78723417756346C3.0928767438819182 -92.24000594963175 0.00010273223188050906 -76.65393853559523 0.0008750376844319462 -60.91466397318348L239.1523901418198 -60.91466397318348L239.1523901418198 -60.91466397318362Z"/>
          </g>
          <g opacity="1">
            <path fill="rgb(244,91,15)" fill-opacity="1" opacity="1" fill-rule="evenodd" d="M0.0008750376844091079 -176.2513176833851C15.74385281714978 -176.24982432074864 31.333700562325948 -179.34082657609238 45.88441053680726 -185.34865551690032C60.425033838374524 -191.35304071298245 73.64197667123142 -200.15839731057807 84.78236966158487 -211.26315067238332C95.91171744057065 -222.3582637760309 104.74388765676373 -235.537827368553 110.77372860857375 -250.04804268792228C122.94274904681451 -279.33465528792107 122.94274904681451 -312.2603102338821 110.77372860857372 -341.54692283388084C104.74452210772883 -356.0584505722111 95.91230014914119 -369.23921212542405 84.78236966158488 -380.3351129779395C73.64225029542021 -391.44020053317286 60.42523706847585 -400.2456040285307 45.88441053680722 -406.24960813342244C31.333895880730314 -412.25845710482645 15.744061915565274 -415.35057723206137 0.000875037684423861 -415.3502440954574L0.000875037684423861 -176.2513176833851L0.0008750376844091079 -176.2513176833851Z"/>
          </g>
          <g opacity="1">
            <path fill="rgb(22,22,22)" fill-opacity="1" opacity="1" fill-rule="evenodd" d="M263.1323165968885 231.31491413896413C196.91136979899267 231.30884280916288 143.23207670643205 177.64210858337148 143.23268432154538 111.4433337141702L263.1323165968885 111.4433337141702L263.1323165968885 231.31491413896413Z"/>
          </g>
          <g opacity="1">
            <path fill="rgb(244,91,15)" fill-opacity="1" opacity="1" fill-rule="evenodd" d="M0.0008750376844091079 -33.052074238729034C15.746438323442883 -33.0524468053394 31.33782133644695 -29.951800857109045 45.88441053680722 -23.927252000882838C60.43130660234025 -17.90224030221993 73.64879686592117 -9.072237141830513 84.78236966158487 2.0587026058602476C95.91606443619634 13.190357573156788 104.74787964141423 26.404880177395206 110.77372860857373 40.94803535785648C116.80014353275297 55.4913392940112 119.90181037731887 71.07890773889466 119.90160705741899 86.82060556223811L0.0008750376844091079 86.82060556223811L0.0008750376844091079 -33.052074238729034Z"/>
          </g>
          <g opacity="1">
            <path fill="rgb(255,215,38)" fill-opacity="1" opacity="1" fill-rule="evenodd" d="M143.2326843215453 -294.8289323522819C143.2300591819926 -326.6196624086033 155.86104139921636 -357.1092730113619 178.34677390415598 -379.58995090424315C200.83250640909557 -402.0706287971244 231.33093865548744 -414.70073751203205 263.1323165968422 -414.701612153249L263.1323165968422 -294.82893235228187L143.2326843215453 -294.8289323522819Z"/>
          </g>
          <g opacity="1">
            <path fill="rgb(255,215,38)" fill-opacity="1" opacity="1" fill-rule="evenodd" d="M0.0008750376839586697 171.38022330274055C2.5834197003860027e-9 155.48484654478654 6.315689560333248 140.24015554845795 17.55856409368885 128.9998083343725C28.801438627044444 117.75946112028706 44.050540391459904 111.44420840815481 59.951241047616534 111.44333371417042L119.90050731302706 111.44333371417042L119.90050731302706 231.31491413896418L59.951241047551214 231.31491413896418C26.840856585951727 231.31248559018292 0.0008749485608924315 204.47952178105163 0.0008750376839586697 171.38022330274066L0.0008750376839586697 171.38022330274055Z"/>
          </g>
          <g opacity="1">
            <path fill="rgb(4,142,203)" fill-opacity="1" opacity="1" fill-rule="evenodd" d="M143.23268432154535 27.532347915876073C143.23180928641273 43.42772467370925 149.54749884413178 58.67241567005051 160.79037337746473 69.91276288415865C172.03324791079763 81.15311009826671 187.28234967520038 87.46836281042975 203.18305033135704 87.4692375044462L263.13231659688853 87.4692375044462L263.13231659688853 -32.40454167269405L203.18305033141266 -32.40454167269405C187.282349675256 -32.40366697869236 172.0332479108474 -26.088414266543495 160.79037337750404 -14.848067052445806C149.54749884416069 -3.607719838348121 143.23180928642748 11.636971157987269 143.23268432154535 27.532347915876073L143.23268432154535 27.532347915876073Z"/>
          </g>
          <g opacity="1">
            <ellipse fill="rgb(255,215,38)" fill-opacity="1" opacity="1" rx="47.63542831466628" ry="47.62497582451734" cx="215.49688828222241" cy="-223.87739288407576"/>
          </g>
          <g opacity="1">
            <path fill="rgb(148,192,212)" fill-opacity="1" opacity="1" fill-rule="evenodd" d="M1745.9990606430576 -176.25131768338528C1746.0031442940135 -208.04164332072818 1733.3734203942713 -238.5313810228438 1710.888592628224 -261.01239154920535C1688.403764862176 -283.4934020755669 1657.9059006210114 -296.1239307619868 1626.1049270896588 -296.1250968605257L1626.1049270896588 -176.25131768338528L1745.9990606430576 -176.25131768338528Z"/>
          </g>
          <g opacity="1">
            <path fill="rgb(148,192,212)" fill-opacity="1" opacity="1" fill-rule="evenodd" d="M1362.9690865529005 -294.828932352282C1378.8011810464436 -294.83586006724914 1393.9768270317918 -301.1541589598339 1405.1332865202169 -312.38377108649C1419.254585210567 -326.5424362545008 1425.396969363553 -346.80036067920264 1421.5157082069788 -366.4139085963187C1417.634447050405 -386.02745651343474 1404.2390830792908 -402.42170813820627 1385.7887826750139 -410.139201034326C1378.5578737604742 -413.15031656021904 1370.8022809548333 -414.7009157733263 1362.9690865529005 -414.701612153249L1362.9690865529005 -294.828932352282L1362.9690865529005 -294.828932352282Z"/>
          </g>
          <g opacity="1">
            <path fill="rgb(244,91,15)" fill-opacity="1" opacity="1" fill-rule="evenodd" d="M1602.7683511035877 -415.3502440954577C1536.720891607415 -415.3502440954577 1483.1788467466272 -361.82612626857286 1483.1788467466272 -295.80078088942156C1483.1788467466272 -229.77543551027028 1536.720891607415 -176.25131768338542 1602.7683511035877 -176.25131768338542L1602.7683511035877 -415.3502440954577L1602.7683511035877 -415.3502440954577Z"/>
          </g>
          <g opacity="1">
            <path fill="rgb(22,22,22)" fill-opacity="1" opacity="1" fill-rule="evenodd" d="M1482.8742175502016 110.79580114813534C1482.8695504038146 79.00539786917709 1495.4991219996837 48.51543429822951 1517.9841078602437 26.0344718815657C1540.469093720804 3.5535094649018273 1570.9672998042658 -9.076587396294938 1602.768351103589 -9.076878652831738L1602.768351103589 110.79580114813541L1482.8742175502016 110.79580114813534Z"/>
          </g>
          <g opacity="1">
            <path fill="rgb(148,192,212)" fill-opacity="1" opacity="1" fill-rule="evenodd" d="M1626.1049270896706 230.02094838306746C1668.9163326538387 230.15073051190666 1708.5313664289338 207.39326219870065 1729.9746341716634 170.35139007749086C1751.4179019143926 133.30951795628107 1751.4179019143926 87.63455177395478 1729.9746341716634 50.592679652745C1708.531366428934 13.550807531535153 1668.9163326538387 -9.206660781670791 1626.1049270896706 -9.076878652831676L1626.1049270896706 230.02094838306746L1626.1049270896706 230.02094838306746Z"/>
          </g>
          <g opacity="1">
            <path fill="rgb(230,230,230)" fill-opacity="1" opacity="1" fill-rule="evenodd" d="M1362.9690865529008 -151.6285895314528C1405.78049211707 -151.75837166029345 1445.3955258921665 -129.0009033470878 1466.8387936348965 -91.95903122587737C1488.2820613776269 -54.917159104666894 1488.2820613776269 -9.242192922339342 1466.8387936348963 27.799679198871047C1445.3955258921662 64.84155132008144 1405.7804921170693 87.59901963328701 1362.9690865529005 87.46923750444628L1362.9690865529005 -151.6285895314528L1362.9690865529008 -151.6285895314528Z"/>
          </g>
          <g opacity="1">
            <path fill="rgb(148,192,212)" fill-opacity="1" opacity="1" fill-rule="evenodd" d="M1506.1997960923704 -152.27722147366097C1506.1997960923704 -86.25976928754216 1559.7354401127993 -32.742050157876974 1625.7750037722426 -32.742050157876974C1691.8145674316856 -32.742050157876974 1745.3502114521145 -86.25976928754216 1745.3502114521145 -152.27722147366097L1506.1997960923704 -152.27722147366097L1506.1997960923704 -152.27722147366097Z"/>
          </g>
          <g opacity="1">
            <path fill="rgb(244,91,15)" fill-opacity="1" opacity="1" fill-rule="evenodd" d="M1482.8742175502007 171.38022330274066C1482.8730028588957 204.48237971768282 1456.0293967907871 231.31650576853588 1422.9161533295487 231.31711289131079L1362.9690865529005 231.31711289131079L1362.9690865529005 111.44333371417052L1422.9161533295935 111.44333371417052C1456.029648355865 111.44333370860227 1482.8736101860218 138.27781539590333 1482.8742175502007 171.38022330274066L1482.8742175502007 171.38022330274066Z"/>
          </g>
          <g opacity="1">
            <ellipse fill="rgb(255,215,38)" fill-opacity="1" opacity="1" rx="47.635428314666285" ry="47.62497582451734" cx="1673.7348566823796" cy="-367.0766363287317"/>
          </g>
          <g opacity="1">
            <ellipse fill="rgb(244,91,15)" fill-opacity="1" opacity="1" rx="47.6354283146664" ry="47.62497582451734" cx="1410.6100135895242" cy="-223.87739288407576"/>
          </g>
          <g opacity="1">
            <ellipse fill="rgb(255,215,38)" fill-opacity="1" opacity="1" rx="47.635428314665944" ry="47.62497582451729" cx="1553.8407231289937" cy="183.69103769062022"/>
          </g>
          <g opacity="1">
            <path fill="rgb(255,215,38)" fill-opacity="1" opacity="1" fill-rule="evenodd" d="M669.4955674399542 -9.076878652831965C669.4981925795071 22.713851403489365 656.8672103622833 53.20346200624792 634.3814778573437 75.68413989912919C611.8957453524041 98.16481779201047 581.3973131060121 110.79492650691809 549.5959351646575 110.79580114813504L549.5959351646575 -9.076878652831965L669.4955674399542 -9.076878652831965Z"/>
          </g>
          <g opacity="1">
            <path fill="rgb(22,22,22)" fill-opacity="1" opacity="1" fill-rule="evenodd" d="M1052.527741018893 134.76989735785938C1036.6960277845048 134.7626769719431 1021.5208315824527 128.44440054828138 1010.3646407959682 117.2150586236513C996.243342105618 103.05639345564045 990.1009579526321 82.7984690309386 993.9822191092062 63.18492111382254C997.8634802657803 43.571373196706475 1011.2588442368943 27.17712157193498 1029.7091446411714 19.459628675815292C1036.9395842229126 16.448237183514 1044.6948736769484 14.897623892062615 1052.5277410188933 14.897217556892258L1052.527741018893 134.76989735785938Z"/>
          </g>
          <g opacity="1">
            <path fill="rgb(244,91,15)" fill-opacity="1" opacity="1" fill-rule="evenodd" d="M789.3973992040809 -296.1250968605252C773.5655851741801 -296.13234234102646 758.3901861574114 -302.450142730955 747.2331992367644 -313.67883621856C733.1114002122641 -327.8374862511378 726.9686932628224 -348.0957312655605 730.8499788875698 -367.70962340911956C734.7312645123172 -387.32351555267866 748.1269788480192 -403.7179980993194 766.5777030819679 -411.43536554256923C773.8085949847042 -414.4465368235708 781.564199053896 -415.997138288634 789.3973992040809 -415.99777666149225L789.3973992040809 -296.1250968605252Z"/>
          </g>
          <g opacity="1">
            <path fill="rgb(148,192,212)" fill-opacity="1" opacity="1" fill-rule="evenodd" d="M286.4644936054069 110.14716920592707C302.2960817065663 110.1544861627522 317.4710302296464 116.47321995326713 328.6264940839404 127.70310731630835C342.74779277429053 141.86177248431932 348.8901769272764 162.1196969090211 345.0089157707024 181.7332448261372C341.12765461412835 201.34679274325316 327.7322906430142 217.74104436802475 309.2819902387372 225.4585372641444C302.05193491935813 228.46992591149382 294.29700514555543 230.02054201960726 286.46449360540703 230.02094838306732L286.4644936054069 110.14716920592707Z"/>
          </g>
          <g opacity="1">
            <path fill="rgb(148,192,212)" fill-opacity="1" opacity="1" fill-rule="evenodd" d="M526.2637581560923 230.02094838306746C483.4523525919243 230.15073051190666 443.8373188168291 207.39326219870065 422.3940510740998 170.35139007749086C400.95078333137053 133.30951795628107 400.95078333137053 87.63455177395478 422.3940510740998 50.59267965274494C443.8373188168291 13.550807531535153 483.45235259192424 -9.206660781670791 526.2637581560923 -9.076878652831676L526.2637581560923 230.02094838306746Z"/>
          </g>
          <g opacity="1">
            <path fill="rgb(244,91,15)" fill-opacity="1" opacity="1" fill-rule="evenodd" d="M406.3641258807503 -296.1250968605256L526.2637581560934 -296.1250968605256L526.2637581560934 -176.25131768338528C460.04195240169344 -176.25738906965978 406.3623035687856 -229.92546334469432 406.3641258807503 -296.1250968605257L406.3641258807503 -296.1250968605256Z"/>
          </g>
          <g opacity="1">
            <path fill="rgb(255,215,38)" fill-opacity="1" opacity="1" fill-rule="evenodd" d="M549.5959351646102 -415.3502440954577C615.6433946607829 -415.3502440954577 669.185439521571 -361.82612626857286 669.185439521571 -295.80078088942156C669.185439521571 -229.77543551027028 615.6433946607829 -176.25131768338542 549.5959351646102 -176.25131768338542L549.5959351646102 -415.3502440954577Z"/>
          </g>
          <g opacity="1">
            <path fill="rgb(4,142,203)" fill-opacity="1" opacity="1" fill-rule="evenodd" d="M813.3718269371925 230.02094838306692C813.3718269371925 164.00288902825338 866.9079633299565 110.48467769110971 932.9481343614559 110.48467769110971C998.9883053929552 110.48467769110971 1052.5244417857193 164.00288902825326 1052.5244417857193 230.02094838306692L813.3718269371925 230.02094838306692Z"/>
          </g>
          <g opacity="1">
            <path fill="rgb(255,215,38)" fill-opacity="1" opacity="1" fill-rule="evenodd" d="M1315.0092336427638 -124.41463173920675C1315.0092336427638 -58.39717955308791 1261.4735896223349 -4.879460423422586 1195.4340259628916 -4.879460423422586C1129.3944623034483 -4.879460423422586 1075.8588182830194 -58.39717955308784 1075.8588182830194 -124.41463173920675L1315.0092336427638 -124.41463173920675Z"/>
          </g>
          <g opacity="1">
            <path fill="rgb(244,91,15)" fill-opacity="1" opacity="1" fill-rule="evenodd" d="M1075.8588182830194 -9.076878652831853C1118.6702238471844 -9.206660781666471 1158.285257622275 13.550807531540276 1179.7285253650014 50.59267965274804C1201.1717931077278 87.6345517739558 1201.1717931077283 133.30951795627834 1179.728525365002 170.3513900774863C1158.2852576222758 207.39326219869432 1118.6702238471855 230.15073051190143 1075.8588182830206 230.02094838306724L1075.8588182830194 -9.076878652831853Z"/>
          </g>
          <g opacity="1">
            <path fill="rgb(4,142,203)" fill-opacity="1" opacity="1" fill-rule="evenodd" d="M956.6069354542273 -152.9247540396962C956.6069340307536 -195.63173671104425 979.3984683798976 -235.09461676061883 1016.3961877605656 -256.4481085471042C1053.3939071412335 -277.8016003335895 1098.9769775933137 -277.8016003335895 1135.9746969739815 -256.4481085471042C1172.9724163546493 -235.09461676061892 1195.7639507037936 -195.6317367110443 1195.7639492803198 -152.9247539596415L956.6069354542273 -152.9247540396962Z"/>
          </g>
          <g opacity="1">
            <path fill="rgb(255,215,38)" fill-opacity="1" opacity="1" fill-rule="evenodd" d="M1052.527741018894 -415.99777666149225C1052.528484739163 -400.2585049054541 1049.435711820458 -384.67244299918895 1043.425156691129 -370.12520645729796C1037.4193387215169 -355.58811114355876 1028.611415599606 -342.3741129402148 1017.5030816407226 -331.23587370511456C1006.4066269203761 -320.1091087226538 993.2244296995109 -311.27871609783836 978.7106979775218 -305.24991909837127C949.4183770742194 -293.0835239838577 916.4844901150414 -293.0835239838577 887.1921692117389 -305.24991909837127C872.6784374897496 -311.2787160978383 859.4962402688844 -320.10910872265373 848.3997855485381 -331.2358737051144C837.2914515896546 -342.37411294021473 828.4835284677437 -355.5881111435587 822.4777104982093 -370.1252064571107C816.4659975126709 -384.6722061831443 813.3721008846877 -400.25828185842084 813.3718269371925 -415.99777666149225L1052.527741018894 -415.99777666149225Z"/>
          </g>
          <g opacity="1">
            <path fill="rgb(148,192,212)" fill-opacity="1" opacity="1" fill-rule="evenodd" d="M789.3973992040803 -33.699606804764244C723.3499397079079 -33.699606804764244 669.8078948471198 -87.22372463164908 669.8078948471198 -153.24907001080035C669.8078948471198 -219.27441538995163 723.3499397079078 -272.79853321683646 789.3973992040803 -272.79853321683646L789.3973992040803 -33.699606804764244Z"/>
          </g>
          <g opacity="1">
            <path fill="rgb(255,215,38)" fill-opacity="1" opacity="1" fill-rule="evenodd" d="M286.4644936054069 -33.699606804764244L286.4644936054069 -272.79853321683646C352.5119531015795 -272.79853321683646 406.0539979623676 -219.27441538995163 406.0539979623676 -153.24907001080035C406.0539979623676 -87.22372463164908 352.5119531015795 -33.699606804764244 286.4644936054069 -33.699606804764244L286.4644936054069 -33.699606804764244Z"/>
          </g>
          <g opacity="1">
            <path fill="rgb(244,91,15)" fill-opacity="1" opacity="1" fill-rule="evenodd" d="M429.69630288926794 -33.05207423872915C429.56648444101984 -75.84442762321925 452.32906124089146 -115.44183476336471 489.3792538543533 -136.87556177565676C526.4294464678151 -158.3092887879489 572.1146744148582 -158.30928878794853 609.1648670283197 -136.87556177565583C646.2150596417812 -115.4418347633632 668.9776364416522 -75.84442762321731 668.8478179934035 -33.05207423872764L429.69630288926794 -33.05207423872915Z"/>
          </g>
          <g opacity="1">
            <path fill="rgb(244,91,15)" fill-opacity="1" opacity="1" fill-rule="evenodd" d="M932.6270089991589 -9.076878652831965C932.7568274474038 33.71547473165117 909.9942506475326 73.31288187179251 872.9440580340735 94.746608884083C835.8938654206145 116.18033589637349 790.2086374735751 116.1803358963748 753.1584448601149 94.7466088840865C716.1082522466545 73.31288187179815 693.3456754467811 33.7154747316581 693.4754938950235 -9.076878652828466L932.6270089991589 -9.076878652831965Z"/>
          </g>
          <g opacity="1">
            <path fill="rgb(22,22,22)" fill-opacity="1" opacity="1" fill-rule="evenodd" d="M932.6270089991583 -152.92475403969627L812.7273767238153 -152.92475403969627L812.7273767238153 -272.79853321683646C878.949182478215 -272.792461830562 932.6288313111229 -219.12438755552753 932.6270089991581 -152.9247540396963L932.6270089991583 -152.92475403969627Z"/>
          </g>
          <g opacity="1">
            <path fill="rgb(22,22,22)" fill-opacity="1" opacity="1" fill-rule="evenodd" d="M1338.9946588197904 -415.9977766614925L1338.9946588197904 -296.1250968605254L1219.08952782249 -296.1250968605254C1219.0857356280671 -327.91713685043527 1231.7170978661402 -358.4082583443809 1254.2042726463442 -380.88934718219787C1276.6914474265484 -403.3704360200148 1307.1919704243414 -415.9995265228043 1338.9946588196879 -415.9977766614925L1338.9946588197904 -415.9977766614925Z"/>
          </g>
          <g opacity="1">
            <path fill="rgb(244,91,15)" fill-opacity="1" opacity="1" fill-rule="evenodd" d="M932.6270089991583 -128.95065782997204L1052.5277410188926 -128.95065782997204L1052.5277410188926 -9.076878652831738C986.3055057773984 -9.082342933408228 932.6251867282931 -62.750595023744026 932.6270089991583 -128.95065782997204L932.6270089991583 -128.95065782997204Z"/>
          </g>
          <g opacity="1">
            <path fill="rgb(230,230,230)" fill-opacity="1" opacity="1" fill-rule="evenodd" d="M1219.0895278224893 110.14716920592713L1338.9946588197895 110.14716920592713L1338.9946588197895 230.02094838306735C1272.7714604083649 230.01609128549538 1219.0895276442493 176.34819483732284 1219.0895278224891 110.14716920592707L1219.0895278224893 110.14716920592713Z"/>
          </g>
          <g opacity="1">
            <path fill="rgb(230,230,230)" fill-opacity="1" opacity="1" fill-rule="evenodd" d="M729.445933449822 110.14716920592707C762.5561400340704 110.14838349049744 789.3967918779392 136.9805407016746 789.3973992040806 170.0796612898043L789.3973992040806 230.01655087837446L669.4955674399548 230.01655087837446L669.4955674399548 170.0796612898043C669.4961747301969 136.98097000968875 696.3361563446113 110.1489906121132 729.4459334495133 110.14716920592713L729.445933449822 110.14716920592707Z"/>
          </g>
          <g opacity="1">
            <path fill="rgb(4,142,203)" fill-opacity="1" opacity="1" fill-rule="evenodd" d="M406.36412588075 -356.0608870729221C406.3653406593055 -322.96090781043586 379.5248254061806 -296.126918320774 346.41375987099866 -296.1250968605252L286.4644936054069 -296.1250968605252L286.4644936054069 -415.99777666149225L346.41375987088276 -415.99777666149225C362.3144605270393 -415.99690196749054 377.56356229144785 -409.68164925534165 388.8064368247912 -398.441302041244C400.04931135813456 -387.20095482714635 406.36500091586777 -371.9562638308109 406.36412588074995 -356.0608870729221L406.36412588075 -356.0608870729221Z"/>
          </g>
          <g opacity="1">
            <path fill="rgb(4,142,203)" fill-opacity="1" opacity="1" fill-rule="evenodd" d="M1075.8588182830206 -356.0608870729221C1075.858210609655 -389.1595049349265 1102.696181704238 -415.9929197584922 1135.8058850597556 -415.99777666149225L1195.7639492803205 -415.99777666149225L1195.7639492803205 -296.1250968605252L1135.8058850597133 -296.1250968605252C1102.6963595854904 -296.12934670508565 1075.8582106852957 -322.96244711620625 1075.8588182830206 -356.0608870729221L1075.8588182830206 -356.0608870729221Z"/>
          </g>
          <g opacity="1">
            <path fill="rgb(148,192,212)" fill-opacity="1" opacity="1" fill-rule="evenodd" d="M1219.08952782249 -212.8616436282664C1219.0889201493248 -245.96026149063331 1245.92689124407 -272.7936763140367 1279.0365945995877 -272.7985332168366L1338.99465881979 -272.7985332168366L1338.99465881979 -152.92475403969624L1279.0365945991828 -152.92475403969624C1245.9268912436653 -152.9296109427196 1219.0889201491013 -179.76302576630414 1219.08952782249 -212.8616436282664L1219.08952782249 -212.8616436282664Z"/>
          </g>
          <g opacity="1">
            <path fill="rgb(244,91,15)" fill-opacity="1" opacity="1" fill-rule="evenodd" d="M597.2313634792766 134.76989735785918C616.5010201631297 134.7676740167816 633.874457606312 146.3699550209561 641.2499716344478 164.16628266728242C648.6254856625835 181.96261031360876 644.5504844017776 202.44803554692737 630.9252512492118 216.06965004558856C617.300018096646 229.69126454424986 596.8080138771312 233.76632016966863 579.0052148716718 226.39450817297268C561.2024158662123 219.02269617627667 549.5950456504493 201.65587932410625 549.5959351646104 182.39267443003024C549.5959351646104 156.09262873974092 570.9225093074381 134.77171871166732 597.2313635935212 134.7698973578513L597.2313634792766 134.76989735785918Z"/>
          </g>
          <g opacity="1">
            <path fill="rgb(230,230,230)" fill-opacity="1" opacity="1" fill-rule="evenodd" d="M334.10322115324726 -8.429346086796622C353.3726776836666 -8.43156942530402 370.74597597188017 3.170473668529297 378.1216188765814 20.96653135888612C385.49726178128265 38.762589049243 381.4226636656757 59.247841739159654 367.7978865926999 72.86962917074514C354.173109519724 86.49141660233062 333.68146608144303 90.56701497424751 315.8785966624196 83.19589578514609C298.0757272433962 75.82477659604469 286.467792966933 58.45863456590318 286.46779283858103 39.195629737720694C286.4665780511891 12.894725511881063 307.7935079017286 -8.427524638463751 334.10322115322356 -8.429346086796684L334.10322115324726 -8.429346086796622Z"/>
          </g>
          <g opacity="1">
            <path fill="rgb(22,22,22)" fill-opacity="1" opacity="1" fill-rule="evenodd" d="M477.3317312039337 -415.9977766614926C496.601187734353 -416 513.9744860225666 -404.3979569061667 521.3501289272679 -386.60189921580985C528.725771831969 -368.80584152545305 524.6511737163621 -348.32058883553634 511.0263966433863 -334.6988014039509C497.4016195704104 -321.0770139723654 476.90997613212943 -317.0014156004486 459.1071067131061 -324.37253478954995C441.30423729408267 -331.74365397865137 429.69630301761947 -349.10979600879284 429.6963028892675 -368.37280083697533C429.69508810193884 -394.6737050629294 451.02201795252955 -415.9959552132229 477.3317312040245 -415.9977766614926L477.3317312039337 -415.9977766614926Z"/>
          </g>
          <g opacity="1">
            <path fill="rgb(148,192,212)" fill-opacity="1" opacity="1" fill-rule="evenodd" d="M861.0116542294223 -128.3020258877637C880.2807105957295 -128.30247054622805 897.6526588824576 -116.69929963557065 905.0269157245341 -98.90310105932426C912.4011725666106 -81.10690248307779 908.3254885254523 -60.6223710118131 894.7003653640261 -47.00149541147688C881.0752422025998 -33.38061981114065 860.5839438599793 -29.30582752726673 842.7816145113165 -36.677204494148C824.9792851626537 -44.04858146102926 813.3718269423243 -61.4144453883694 813.3718269371903 -80.67705006324641C813.3712435667153 -93.30796727029212 818.3902028090538 -105.42173845162783 827.3244983353719 -114.35324875793776C836.2587938616903 -123.28475906424775 848.3765064915585 -128.30231748708732 861.0116542293441 -128.3020258877637L861.0116542294223 -128.3020258877637Z"/>
          </g>
          <g opacity="1">
            <path fill="rgb(255,215,38)" fill-opacity="1" opacity="1" fill-rule="evenodd" d="M1291.3537317831672 -8.42934608679675C1310.6236882376768 -8.433792879264445 1327.9986739007452 3.166840185612436 1335.376049440246 20.96272155045739C1342.7534249797473 38.758602915302404 1338.6801844723896 59.24475701057021 1325.0558402046365 72.86768427343061C1311.4314959368837 86.49061153629087 1290.9394212595985 90.56721770110417 1273.1358767359172 83.1964209429333C1255.332332212236 75.82562418476235 1243.7238027038793 58.45913470754843 1243.7238021904582 39.195629737720516C1243.7256226465415 12.89812862081989 1265.0474238667693 -8.42145501768727 1291.3537317831801 -8.42934608679675L1291.3537317831672 -8.42934608679675Z"/>
          </g>
          <g opacity="1">
            <path fill="rgb(148,192,212)" fill-opacity="1" opacity="1" fill-rule="evenodd" d="M383.03194887223174 664.1558041839742C383.03399062565944 695.9461532961463 370.40275086123256 726.4351990148783 347.91708158782797 748.9154013420824C325.4314123144235 771.3956036692864 294.933313423823 784.025410559059 263.132316596975 784.0262852325947L263.132316596975 664.1558041839742L383.03194887223174 664.1558041839742Z"/>
          </g>
          <g opacity="1">
            <path fill="rgb(255,215,38)" fill-opacity="1" opacity="1" fill-rule="evenodd" d="M766.0641224511699 808.0036795708386C741.9002727429331 807.956850170053 720.1501360273971 793.3461521259718 710.9768261401932 770.9986775797659C698.3110712481707 740.4662039831076 712.7428088710276 705.4449558691864 743.2466258178397 692.6901127602746C750.4766470873517 689.6786125359031 758.23159940875 688.127991919346 766.0641224511699 688.1277016413515L766.0641224511699 808.0036795708386Z"/>
          </g>
          <g opacity="1">
            <path fill="rgb(22,22,22)" fill-opacity="1" opacity="1" fill-rule="evenodd" d="M502.9326808919657 377.10868535245413C487.1009676575775 377.10146496653806 471.92577145552536 370.78318854287636 460.7695806690409 359.5538466182463C446.6477816445406 345.3951965856685 440.50507469509876 325.13695157124585 444.3863603198462 305.5230594276868C448.2676459445936 285.9091672841279 461.6633602802954 269.514684737487 480.1140845142441 261.79731729423725C487.34468572738336 258.7864555139925 495.09986816567044 257.2358636195559 502.9326808919657 257.234906175314L502.9326808919657 377.10868535245413Z"/>
          </g>
          <g opacity="1">
            <path fill="rgb(22,22,22)" fill-opacity="1" opacity="1" fill-rule="evenodd" d="M0.0008750376844091079 783.3776532903862C7.833383702406226 783.3780886724164 15.588307840114389 784.9287036535799 22.81837167101454 787.9400644093093C30.058424157126932 790.9581432560587 36.6320066288036 795.3739322987657 42.162875516217795 800.9346907769406C47.7061569723777 806.5066738953616 52.09807152391952 813.1149403066313 55.08817134866092 820.3826552814587C58.08590795584726 827.6569633545228 59.62787259496072 835.4482433900569 59.62681645208069 843.3156422551297C59.627872594962156 851.1830411201914 58.08590795585014 858.9743211557259 55.088171348665114 866.2486292287905C52.0980206066215 873.5163171643508 47.70611230567476 880.1245741707025 42.162875516217845 885.6965937333187C36.631988209062726 891.2573298994085 30.058410451812968 895.6731157752099 22.818371671014567 898.69122010095C15.588307840114403 901.7025808566796 7.833383702406236 903.253195837843 0.0008750376844126855 903.2536312198731L0.0008750376844091079 783.3776532903862Z"/>
          </g>
          <g opacity="1">
            <path fill="rgb(255,215,38)" fill-opacity="1" opacity="1" fill-rule="evenodd" d="M239.80013958837066 903.2536312198729C196.98873402420256 903.383413348712 157.37370024910737 880.625945035506 135.93043250637803 843.5840729142963C114.4871647636487 806.5422007930864 114.4871647636487 760.8672346107601 135.93043250637803 723.8253624895502C157.37370024910734 686.7834903683404 196.9887340242025 664.0260220551345 239.80013958837066 664.1558041839736L239.80013958837066 903.2536312198729Z"/>
          </g>
          <g opacity="1">
            <path fill="rgb(244,91,15)" fill-opacity="1" opacity="1" fill-rule="evenodd" d="M119.9005073130275 376.4600534102452L239.8001395883706 376.4600534102452L239.8001395883706 496.3327332112124C173.57851171893276 496.3272689306382 119.89868504216088 442.6595090477801 119.9005073130275 376.4600534102452L119.9005073130275 376.4600534102452Z"/>
          </g>
          <g opacity="1">
            <path fill="rgb(244,91,15)" fill-opacity="1" opacity="1" fill-rule="evenodd" d="M263.1323165968886 257.2349061753127C305.9437221610567 257.10512404647363 345.55875593615184 279.86259235967947 367.0020236788812 316.90446448088926C388.4452914216105 353.946336602099 388.4452914216105 399.6213027844253 367.0020236788812 436.66317490563506C345.5587559361519 473.7050470268448 305.94372216105677 496.4625153400508 263.13231659688864 496.3327332112117L263.1323165968886 257.2349061753127Z"/>
          </g>
          <g opacity="1">
            <path fill="rgb(148,192,212)" fill-opacity="1" opacity="1" fill-rule="evenodd" d="M526.9126073470346 903.2536312198732C526.7827888987945 860.4612778353874 549.5453656986679 820.86387069525 586.5955583121264 799.4301436829627C623.6457509255849 777.9964166706754 669.3309788726219 777.9964166706759 706.3811714860801 799.4301436829637C743.4313640995383 820.8638706952514 766.193940899411 860.4612778353891 766.0641224511702 903.2536312198737L526.9126073470346 903.2536312198732Z"/>
          </g>
          <g opacity="1">
            <path fill="rgb(255,215,38)" fill-opacity="1" opacity="1" fill-rule="evenodd" d="M1028.5467148194334 549.4666830398078C1028.6765332676782 592.259036424291 1005.9139564678071 631.8564435644325 968.8637638543479 653.290170576723C931.8135712408889 674.7238975890136 886.1283432938496 674.7238975890148 849.0781506803894 653.2901705767265C812.0279580669289 631.8564435644381 789.2653812670555 592.2590364242978 789.395199715298 549.4666830398113L1028.5467148194334 549.4666830398078Z"/>
          </g>
          <g opacity="1">
            <path fill="rgb(4,142,203)" fill-opacity="1" opacity="1" fill-rule="evenodd" d="M789.3973992040806 664.1558041839737C832.2088047682488 664.0260220551345 871.823838543344 686.7834903683404 893.2671062860733 723.8253624895502C914.7103740288027 760.8672346107601 914.7103740288027 806.5422007930864 893.2671062860733 843.5840729142963C871.823838543344 880.625945035506 832.2088047682489 903.383413348712 789.3973992040807 903.2536312198729L789.3973992040806 664.1558041839737Z"/>
          </g>
          <g opacity="1">
            <path fill="rgb(244,91,15)" fill-opacity="1" opacity="1" fill-rule="evenodd" d="M670.1433168865037 520.3079287971098C670.1433168865037 454.2898694422962 723.6794532792678 400.7716581051525 789.7196243107674 400.7716581051525C855.7597953422667 400.7716581051525 909.2959317350309 454.2898694422961 909.2959317350309 520.3079287971098L670.1433168865037 520.3079287971098Z"/>
          </g>
          <g opacity="1">
            <path fill="rgb(244,91,15)" fill-opacity="1" opacity="1" fill-rule="evenodd" d="M766.0641224511706 257.234906175314C766.1939408994156 300.02725955979713 743.4313640995442 339.62466669993853 706.3811714860852 361.05839371222896C669.3309788726262 382.4921207245195 623.6457509255868 382.49212072452076 586.5955583121265 361.05839371223243C549.5453656986662 339.62466669994416 526.7827888987927 300.027259559804 526.9126073470351 257.2349061753175L766.0641224511706 257.234906175314Z"/>
          </g>
          <g opacity="1">
            <path fill="rgb(148,192,212)" fill-opacity="1" opacity="1" fill-rule="evenodd" d="M502.93268089196636 640.1806085980768C460.12127532779823 640.310390726916 420.50624155270305 617.5529224137101 399.06297380997364 580.5110502925003C377.61970606724435 543.4691781712904 377.61970606724435 497.7942119889642 399.06297380997364 460.7523398677544C420.506241552703 423.7104677465445 460.1212753277982 400.9529994333386 502.93268089196636 401.0827815621777L502.93268089196636 640.1806085980768Z"/>
          </g>
          <g opacity="1">
            <path fill="rgb(244,91,15)" fill-opacity="1" opacity="1" fill-rule="evenodd" d="M0.0008750376844091079 640.1806085980768L0.0008750376844091079 401.0827815621777C15.744115282140413 401.08190531070545 31.33405398064055 404.174046210968 45.88441053680725 410.18341752421264C60.42536913827485 416.187672154336 73.64240312657594 424.9934630353733 84.78236966158488 436.09901205586874C95.91153779619134 447.19362422600426 104.74337046106692 460.3728681892917 110.77262886418234 474.8828046952344C116.79772522334947 489.3834058626052 119.89966371169312 504.93049599727925 119.90050731302757 520.632244768214C119.89980761778267 536.3336520108643 116.79786077543424 551.8804104126225 110.77262886403848 566.3805854653663C104.74311929782664 580.8909783268251 95.91090802177555 594.0706031897935 84.78126991719354 605.1654774805588C73.64077439013656 616.2703804344478 60.423876485399134 625.0760806504082 45.883310792415806 631.081072012215C31.333078657273123 637.0894580198033 15.743623971279241 640.1812034979018 0.0008750376844810476 640.1806085980768L0.0008750376844091079 640.1806085980768Z"/>
          </g>
          <g opacity="1">
            <path fill="rgb(4,142,203)" fill-opacity="1" opacity="1" fill-rule="evenodd" d="M143.23268432154586 640.1806085980766C143.10286587329938 597.3882552135926 165.86544267317026 557.7908480734496 202.91563528663 536.3571210611582C239.96582790008972 514.9233940488666 285.65105584713046 514.9233940488654 322.7012484605914 536.3571210611547C359.7514410740524 557.790848073444 382.5140178739256 597.3882552135857 382.3841994256816 640.1806085980734L143.23268432154586 640.1806085980766Z"/>
          </g>
          <g opacity="1">
            <path fill="rgb(244,91,15)" fill-opacity="1" opacity="1" fill-rule="evenodd" d="M646.1633904314356 664.1558041839742C646.2932088796804 706.9481575684572 623.5306320798093 746.5455647085985 586.48043946635 767.9792917208889C549.4302468528911 789.4130187331793 503.74501890585157 789.4130187331808 466.69482629239127 767.9792917208924C429.644633678931 746.545564708604 406.8820568790575 706.9481575684641 407.0118753272999 664.1558041839777L646.1633904314356 664.1558041839742Z"/>
          </g>
          <g opacity="1">
            <path fill="rgb(148,192,212)" fill-opacity="1" opacity="1" fill-rule="evenodd" d="M646.1633904314365 520.3079287971094L526.2637581560934 520.3079287971094L526.2637581560934 400.4352489961425C592.4851344298638 400.4413203569643 646.1646053910367 454.10872460418534 646.1633904314365 520.3079287971094L646.1633904314365 520.3079287971094Z"/>
          </g>
          <g opacity="1">
            <path fill="rgb(22,22,22)" fill-opacity="1" opacity="1" fill-rule="evenodd" d="M1052.5277410188924 257.234906175314L1052.5277410188924 377.10868535245413L932.6270089991579 377.10868535245413C932.6243838596088 345.31766372343293 945.2554819424298 314.8277734900443 967.7414206894516 292.34688942413914C990.2273594364733 269.86600535823413 1020.7260714071548 257.23578081652903 1052.527741018856 257.234906175314L1052.5277410188924 257.234906175314Z"/>
          </g>
          <g opacity="1">
            <path fill="rgb(255,215,38)" fill-opacity="1" opacity="1" fill-rule="evenodd" d="M646.1633904314356 544.2820250068338L766.0641224511701 544.2820250068338L766.0641224511701 664.1558041839743C699.8418872096757 664.1503399033978 646.1615681605704 610.482087813062 646.1633904314356 544.2820250068338L646.1633904314356 544.2820250068338Z"/>
          </g>
          <g opacity="1">
            <path fill="rgb(244,91,15)" fill-opacity="1" opacity="1" fill-rule="evenodd" d="M932.6270089991589 783.3776532903862L1052.5277410188933 783.3776532903862L1052.5277410188933 903.2536312198731C986.3043951878643 903.2487740335454 932.6233646358328 849.57882619179 932.6270089991589 783.3776532903862L932.6270089991589 783.3776532903862Z"/>
          </g>
          <g opacity="1">
            <path fill="rgb(4,142,203)" fill-opacity="1" opacity="1" fill-rule="evenodd" d="M442.9779159045331 783.3776532903862C476.0895888200476 783.3800818835501 502.93010409606336 810.215055804428 502.9282819144003 843.3156422551297L502.9282819144003 903.2536312198731L383.0319488722316 903.2536312198731L383.0319488722316 843.3156422551297C383.03012651771814 810.2167729283052 409.8679609553078 783.3825102748629 442.9779159045049 783.3776532903862L442.9779159045331 783.3776532903862Z"/>
          </g>
          <g opacity="1">
            <path fill="rgb(4,142,203)" fill-opacity="1" opacity="1" fill-rule="evenodd" d="M119.90050731302759 317.1761932685771C119.90232949467371 350.2761725506179 93.06230659097743 377.1106542640032 59.95124104751882 377.11308285714733L0.0008750376844091079 377.11308285714733L0.0008750376844091079 257.234906175314L59.951241047551704 257.234906175314C75.85251339641923 257.2360723769635 91.10199934368434 263.552057457998 102.34476248309076 274.79332419971973C113.5875256224972 286.0345909414416 119.90254912166478 301.28024509765663 119.90050731302759 317.1761932685771L119.90050731302759 317.1761932685771Z"/>
          </g>
          <g opacity="1">
            <path fill="rgb(255,215,38)" fill-opacity="1" opacity="1" fill-rule="evenodd" d="M789.3973992040804 317.17619326857704C789.3965241689798 301.2808165106231 795.7122137267296 286.0361255142945 806.9550882600853 274.79577830020907C818.1979627934409 263.55543108612363 833.4470645578564 257.24017837399134 849.347765214013 257.23930368000697L909.2981312238151 257.23930368000697L909.2981312238151 377.10868535245413L849.345565725165 377.10868535245413C816.2368991488797 377.10504274053744 789.3986136216406 350.2737745258478 789.3973992040804 317.17619326857704L789.3973992040804 317.17619326857704Z"/>
          </g>
          <g opacity="1">
            <path fill="rgb(230,230,230)" fill-opacity="1" opacity="1" fill-rule="evenodd" d="M932.6270089991581 460.3710392085394C932.6257942206025 427.27105994605296 959.4663094737275 400.4370704563912 992.5773750089095 400.4352489961425L1052.5277410188928 400.4352489961425L1052.5277410188928 520.3079287971095L992.5773750090253 520.3079287971095C976.6766743528688 520.3070541031077 961.42757258846 513.9918013909588 950.1846980551167 502.7514541768612C938.9418235217734 491.51110696276356 932.6261339640402 476.2664159664281 932.627008999158 460.37103920853923L932.6270089991581 460.3710392085394Z"/>
          </g>
          <g opacity="1">
            <path fill="rgb(230,230,230)" fill-opacity="1" opacity="1" fill-rule="evenodd" d="M310.76884465594634 808.0036795708388C330.0382011640738 808.0019009092698 347.41116196038223 819.6042259745041 354.7864583456592 837.4003189008762C362.16175473093614 855.1964118272483 358.08688512052095 875.6814842203655 344.46202151245575 889.3030436913243C330.8371579043905 902.9246031622831 310.3456007313205 907 292.54286633100116 899.6288163525405C274.74013193068186 892.2576327050808 263.13231667903347 874.8915601885448 263.13231659688864 855.6286553953562C263.1305663501455 842.9979521085916 268.14869796214407 830.8840030104833 277.0825328668698 821.952334631308C286.01636777159564 813.0206662521324 298.1339108124071 808.0030962339224 310.7688446558906 808.0036795708388L310.76884465594634 808.0036795708388Z"/>
          </g>
          <g opacity="1">
            <path fill="rgb(4,142,203)" fill-opacity="1" opacity="1" fill-rule="evenodd" d="M47.63630335235052 664.7989392453164C66.90447005355249 664.797605290456 84.27615216154928 676.3994387215 91.65089043764566 694.1944753094208C99.025628713742 711.9895118973415 94.95107890959478 732.4732857112876 81.32721388904854 746.0941612905722C67.70334886850227 759.7150368698567 47.21318479593099 763.7905867757883 29.411336925757023 756.4203717945338C11.609489055583063 749.0501568132796 0.0017646986812735559 731.6856303980114 0.0008750376842747722 712.4239150698335C2.2737367544323206e-13 699.7936703935103 5.018261725579113 687.6803962342306 13.95166905423127 678.7489491346947C22.885076382883426 669.817502035159 35.00182836404564 664.7995223691786 47.63630335243194 664.7989392453163L47.63630335235052 664.7989392453164Z"/>
          </g>
          <g opacity="1">
            <path fill="rgb(22,22,22)" fill-opacity="1" opacity="1" fill-rule="evenodd" d="M190.868112636211 257.2349061753132C210.13756916663027 257.2326828368059 227.51086745484378 268.83472593063925 234.88651035954507 286.63078362099606C242.2621532642463 304.42684131135286 238.1875551486394 324.9120940012696 224.56277807566357 338.533881432855C210.9380010026877 352.1556688644406 190.4463575644068 356.2312672363575 172.6434881453834 348.8601480472561C154.84061872636002 341.48902885815465 143.2326844498968 324.1228868280131 143.23268432154478 304.8598819998307C143.2314695341529 278.558977773991 164.5583993846924 257.2367276236461 190.86811263618733 257.2349061753132L190.868112636211 257.2349061753132Z"/>
          </g>
          <g opacity="1">
            <path fill="rgb(22,22,22)" fill-opacity="1" opacity="1" fill-rule="evenodd" d="M574.5480356617015 544.9306569490421C593.8174921921208 544.9284336105349 611.1907904803343 556.5304767043681 618.5664333850356 574.326534394725C625.9420762897369 592.1225920850817 621.8674781741298 612.6078447749983 608.242701101154 626.2296322065837C594.6179240281782 639.8514196381692 574.1262805898973 643.9270180100862 556.323411170874 636.5558988209847C538.5205417518506 629.1847796318833 526.9126074753873 611.8186376017419 526.9126073470353 592.5556327735595C526.9113925596434 566.2547285477199 548.2383224101828 544.932478397375 574.5480356616778 544.9306569490421L574.5480356617015 544.9306569490421Z"/>
          </g>
          <g opacity="1">
            <path fill="rgb(22,22,22)" fill-opacity="1" opacity="1" fill-rule="evenodd" d="M1004.8912129598356 664.7989392453167C1024.1597799760896 664.797605262738 1041.5317404064976 676.3999144931554 1048.9062209518702 694.1954909787055C1056.2807014972423 711.9910674642558 1052.2053454341708 732.4751863640913 1038.5805682769712 746.0957160971016C1024.9557911197714 759.7162458301115 1004.4649054878814 763.7907102798554 986.6631984173904 756.4191097081543C968.8614913468995 749.0475091364533 957.2548950581036 731.6816330743414 957.2557846451692 712.419517565141C957.256999226973 686.1203306471932 978.5832175911584 664.8007605747902 1004.8912129596926 664.7989392453165L1004.8912129598356 664.7989392453167Z"/>
          </g>
          <g opacity="1">
            <path fill="rgb(22,22,22)" fill-opacity="1" opacity="1" fill-rule="evenodd" d="M1364.9156341257271 352.48595720052106C1380.7477042435162 352.49300666292106 1395.923305323848 358.8112868595429 1407.0798340930435 370.04079593472903C1421.2011327833936 384.19946110274003 1427.3435169363795 404.4573855274418 1423.4622557798054 424.0709334445578C1419.5809946232316 443.6844813616739 1406.1856306521174 460.07873298644535 1387.7353302478405 467.7962258825651C1380.504446851572 470.8074250427008 1372.7488371501227 472.35802763383833 1364.9156341257271 472.35863700148803L1364.9156341257271 352.48595720052106Z"/>
          </g>
          <g opacity="1">
            <path fill="rgb(22,22,22)" fill-opacity="1" opacity="1" fill-rule="evenodd" d="M1628.6893264095247 783.3776532903862C1644.5219331988976 783.3841886075982 1659.6979834964077 789.7034472245709 1670.8535263768406 800.934690776941C1684.9753254013408 815.0933408095185 1691.1180323507829 835.3515858239413 1687.2367467260353 854.9654779675004C1683.3554611012878 874.5793701110596 1669.9597467655863 890.9738526577004 1651.5090225316376 898.6912201009502C1644.2784541405429 901.703451530075 1636.5226358194263 903.2540958311758 1628.689326409525 903.2536312198733L1628.6893264095247 783.3776532903862Z"/>
          </g>
          <g opacity="1">
            <path fill="rgb(148,192,212)" fill-opacity="1" opacity="1" fill-rule="evenodd" d="M1604.0660494854712 257.234906175314C1604.0660494854712 323.2523583614328 1550.5304054650423 376.7700774910981 1484.4908418055993 376.7700774910981C1418.451278146156 376.7700774910981 1364.9156341257271 323.2523583614328 1364.9156341257271 257.234906175314L1604.0660494854712 257.234906175314Z"/>
          </g>
          <g opacity="1">
            <path fill="rgb(148,192,212)" fill-opacity="1" opacity="1" fill-rule="evenodd" d="M1102.4286427798993 611.6704862975871C1102.4286427798993 545.6530341114683 1155.9642868003282 492.13531498180294 1222.0038504597715 492.13531498180294C1288.043414119215 492.13531498180294 1341.5790581396436 545.6530341114683 1341.5790581396436 611.6704862975871L1102.4286427798993 611.6704862975871Z"/>
          </g>
          <g opacity="1">
            <path fill="rgb(4,142,203)" fill-opacity="1" opacity="1" fill-rule="evenodd" d="M1341.5790581396436 496.3327332112116C1298.7676525754755 496.4625153400508 1259.1526188003804 473.7050470268449 1237.7093510576508 436.6631749056352C1216.2660833149216 399.6213027844253 1216.2660833149216 353.9463366020991 1237.7093510576508 316.9044644808894C1259.1526188003804 279.86259235967947 1298.7676525754755 257.10512404647363 1341.5790581396436 257.2349061753127L1341.5790581396436 496.3327332112116Z"/>
          </g>
          <g opacity="1">
            <path fill="rgb(244,91,15)" fill-opacity="1" opacity="1" fill-rule="evenodd" d="M1460.8353399460016 640.1806085980766C1460.8353399460016 706.1980607841954 1407.2996959255727 759.7157799138606 1341.2601322661294 759.7157799138606C1275.2205686066861 759.7157799138606 1221.6849245862572 706.1980607841954 1221.6849245862572 640.1806085980766L1460.8353399460016 640.1806085980766Z"/>
          </g>
          <g opacity="1">
            <path fill="rgb(255,215,38)" fill-opacity="1" opacity="1" fill-rule="evenodd" d="M1364.9156341257271 903.2536312198724C1364.9156341257271 837.2361790337538 1418.451278146156 783.7184599040888 1484.4908418055993 783.7184599040888C1550.5304054650423 783.7184599040888 1604.0660494854712 837.2361790337538 1604.0660494854712 903.2536312198724L1364.9156341257271 903.2536312198724Z"/>
          </g>
          <g opacity="1">
            <path fill="rgb(4,142,203)" fill-opacity="1" opacity="1" fill-rule="evenodd" d="M1628.6893264095247 520.9554613631444C1671.499945377717 520.8256804253797 1711.11425179841 543.582729919238 1732.5571258992047 580.6239212549496C1753.9999999999998 617.6651125906611 1754 663.3392396668322 1732.5571258992054 700.3804310025441C1711.114251798411 737.421622338256 1671.4999453777186 760.1786718321148 1628.6893264095263 760.0488908943507L1628.6893264095247 520.9554613631444Z"/>
          </g>
          <g opacity="1">
            <path fill="rgb(244,91,15)" fill-opacity="1" opacity="1" fill-rule="evenodd" d="M1484.8097676791135 496.3327332112124C1484.8097676791135 430.31224518161963 1538.3478735612186 376.7920650145621 1604.3904740809426 376.7920650145621C1670.4330746006665 376.7920650145621 1723.9711804827716 430.31224518161946 1723.9711804827716 496.3327332112124L1484.8097676791135 496.3327332112124Z"/>
          </g>
          <g opacity="1">
            <path fill="rgb(4,142,203)" fill-opacity="1" opacity="1" fill-rule="evenodd" d="M1485.4586168700548 640.1806085980766L1605.363747867355 640.1806085980766L1605.363747867355 760.0488908943507C1539.1424451916928 760.0446410612027 1485.4610460485173 706.3797390421386 1485.4586168700548 640.1806085980767L1485.4586168700548 640.1806085980766Z"/>
          </g>
          <g opacity="1">
            <path fill="rgb(244,91,15)" fill-opacity="1" opacity="1" fill-rule="evenodd" d="M1078.4520155580042 903.2536312198731L1078.4520155580042 783.3776532903862L1198.3483486001735 783.3776532903862C1198.3530157225866 815.1687408097731 1185.723247484321 845.6593766509442 1163.2378807595667 868.1409259764218C1140.7525140348123 890.6224753018996 1110.2537513228392 903.2530483679308 1078.452015557968 903.2536312198731L1078.4520155580042 903.2536312198731Z"/>
          </g>
          <g opacity="1">
            <path fill="rgb(244,91,15)" fill-opacity="1" opacity="1" fill-rule="evenodd" d="M1484.809767679113 616.206512388353L1364.9156341257271 616.206512388353L1364.9156341257271 496.33273321121266C1396.718038930589 496.32923225413697 1427.2186160446877 508.9582623971455 1449.7044559116046 531.4402848525572C1472.1902957785214 553.9223073079687 1484.8185201850754 584.4147567272553 1484.809767679113 616.206512388353L1484.809767679113 616.206512388353Z"/>
          </g>
          <g opacity="1">
            <path fill="rgb(230,230,230)" fill-opacity="1" opacity="1" fill-rule="evenodd" d="M1198.3483486001728 377.10868535245424L1078.4520155580044 377.10868535245424L1078.4520155580044 257.234906175314C1144.671778075946 257.24461986652955 1198.3483493130948 310.9110939296269 1198.3483486001728 377.10868535245436L1198.3483486001728 377.10868535245424Z"/>
          </g>
          <g opacity="1">
            <path fill="rgb(4,142,203)" fill-opacity="1" opacity="1" fill-rule="evenodd" d="M1688.647390630132 377.10868535245436C1655.5338956038604 377.1086853580226 1628.6899337737036 350.2742036707216 1628.6893264095247 317.1717957638842L1628.6893264095247 257.234906175314L1748.5944574068249 257.234906175314L1748.5944574068249 317.17619326857715C1748.5926359070306 350.2730938438277 1721.7553761682611 377.10382874595047 1688.6473906301046 377.1086853524545L1688.647390630132 377.10868535245436Z"/>
          </g>
          <g opacity="1">
            <path fill="rgb(230,230,230)" fill-opacity="1" opacity="1" fill-rule="evenodd" d="M1341.5790581396432 843.3156422551297C1341.5813916809223 859.2109955398503 1335.2666585165355 874.4561468423304 1324.0242130145475 885.6968898956251C1312.7817675125593 896.9376329489199 1297.5326686986646 903.2530482037258 1281.6319913629775 903.2536312198731L1221.6849245862572 903.2536312198731L1221.6849245862572 783.3776532903862L1281.6319913629502 783.3776532903862C1297.5326686986373 783.3782363065263 1312.7817675125348 789.6936515613254 1324.0242130145282 800.934394614615C1335.2666585165214 812.1751376679047 1341.581391680915 827.4202889703819 1341.5790581396432 843.3156422551297L1341.5790581396432 843.3156422551297Z"/>
          </g>
          <g opacity="1">
            <path fill="rgb(4,142,203)" fill-opacity="1" opacity="1" fill-rule="evenodd" d="M1198.3483486001733 700.1218956913397C1198.3512662706596 716.0164169763303 1192.036369674994 731.2607774089902 1180.7934813394031 742.4999013825616C1169.5505930038123 753.7390253561329 1154.301126720234 760.0518075879314 1138.4012818234924 760.0488908943505L1078.4520155580044 760.0488908943505L1078.4520155580044 640.1806085980766L1138.40128182348 640.1806085980766C1154.3025308912206 640.1811914827226 1169.552129813497 646.4970594696192 1180.7946701788164 657.7385159066041C1192.0372105441359 668.9799723435889 1198.351557330776 684.2259710184356 1198.3483486001733 700.1218956913397L1198.3483486001733 700.1218956913397Z"/>
          </g>
          <g opacity="1">
            <path fill="rgb(255,215,38)" fill-opacity="1" opacity="1" fill-rule="evenodd" d="M1557.0739716397904 615.5578804461444C1530.7626141696614 615.5578804461444 1509.4330446031668 594.2354524805681 1509.4330446031668 567.9329046216271C1509.4330446031668 541.630356762686 1530.7626141696614 520.3079287971098 1557.0739716397902 520.3079287971096C1583.3853291099185 520.3079287971096 1604.7148986764134 541.6303567626858 1604.7148986764134 567.9329046216269C1604.7163573323212 580.5642805021142 1599.6975282039903 592.6787266970131 1590.7628050652147 601.6104582973813C1581.828081926439 610.5421898977498 1569.7095781945666 615.5593386136352 1557.0739716398414 615.5578804461444L1557.0739716397904 615.5578804461444Z"/>
          </g>
          <g opacity="1">
            <path fill="rgb(255,215,38)" fill-opacity="1" opacity="1" fill-rule="evenodd" d="M1126.084144639498 495.68520064517696C1099.7727871693694 495.6852006451771 1078.4432176028747 474.36277267960094 1078.4432176028745 448.0602248206599C1078.4432176028745 421.7576769617188 1099.7727871693692 400.4352489961426 1126.0841446394977 400.4352489961425C1152.3955021096262 400.4352489961425 1173.7250716761212 421.75767696171863 1173.7250716761212 448.06022482065964C1173.7262385521603 460.69151130259536 1168.707315724747 472.80578801782553 1159.7726558429313 481.73745638239217C1150.8379959611157 490.6691247469588 1138.7196617656637 495.6863671305243 1126.084144639491 495.6852006451771L1126.084144639498 495.68520064517696Z"/>
          </g>
        </g>
      </g>
    </g>
  </g>
</svg>