<svg xmlns="http://www.w3.org/2000/svg" width="21" height="21" viewBox="0 0 21 21">
  <g id="bxl-linkedin-square" transform="translate(9 9)">
    <path id="bxl-linkedin-square-2" data-name="bxl-linkedin-square" d="M19.833,0H1.167A1.166,1.166,0,0,0,0,1.167V19.833A1.166,1.166,0,0,0,1.167,21H19.833A1.166,1.166,0,0,0,21,19.833V1.167A1.166,1.166,0,0,0,19.833,0ZM6.229,17.893H3.111V7.871H6.229ZM4.67,6.5A1.806,1.806,0,1,1,6.476,4.7,1.806,1.806,0,0,1,4.67,6.5Zm13.224,11.39H14.78V13.02c0-1.162-.021-2.657-1.619-2.657-1.622,0-1.868,1.267-1.868,2.575v4.956H8.182V7.873h2.987v1.37h.043a3.27,3.27,0,0,1,2.945-1.618c3.155,0,3.737,2.074,3.737,4.774v5.5Z" transform="translate(-9 -9)" fill="#0026bc"/>
  </g>
</svg>
