<svg xmlns="http://www.w3.org/2000/svg" width="19.363" height="19.363" viewBox="0 0 19.363 19.363">
  <g id="bxs-phone" transform="matrix(0.966, 0.259, -0.259, 0.966, 4.092, 0)">
    <path id="bxs-phone-2" data-name="bxs-phone" d="M15.519,3.426l-3.608,3.28a.888.888,0,0,1-1.234-.038L8.554,4.483a5.1,5.1,0,0,0-2.6,1.473,5.07,5.07,0,0,0-1.473,2.6l2.182,2.125A.888.888,0,0,1,6.7,11.912L3.425,15.519A.887.887,0,0,1,2.19,15.6L.265,13.945a.887.887,0,0,1-.257-.576A13.4,13.4,0,0,1,3.815,3.814,13.438,13.438,0,0,1,13.05,0c.179,0,.289.005.319.007a.88.88,0,0,1,.575.258l1.651,1.927A.885.885,0,0,1,15.519,3.426Z" fill="#fff"/>
  </g>
</svg>
