<svg id="bxs-microphone-off" xmlns="http://www.w3.org/2000/svg" width="16.485" height="17" viewBox="0 0 16.485 17">
  <g id="bxs-microphone-off-2" data-name="bxs-microphone-off">
    <path id="Tracé_4679" data-name="Tracé 4679" d="M18.778,17.53l-2.887-2.887a6.734,6.734,0,0,0,1.438-4.155h-1.7a5.048,5.048,0,0,1-.95,2.944L13.449,12.2a3.333,3.333,0,0,0,.482-1.713V5.393a3.4,3.4,0,0,0-3.379-3.414A.786.786,0,0,0,10.376,2,3.4,3.4,0,0,0,7.139,5.393v.5L3.494,2.246l-1.2,1.2L17.577,18.73ZM5.441,10.488h-1.7a6.8,6.8,0,0,0,5.944,6.734v1.757h1.7V17.222a6.738,6.738,0,0,0,1.9-.535l-1.315-1.314a5.086,5.086,0,0,1-6.531-4.885Z" transform="translate(-2.293 -1.979)" fill="#8ba3ff"/>
    <path id="Tracé_4680" data-name="Tracé 4680" d="M8.007,12.067a4,4,0,0,0,3.926,3.926Z" transform="translate(-3.374 -3.872)" fill="#8ba3ff"/>
  </g>
</svg>
