<svg xmlns="http://www.w3.org/2000/svg" width="17.814" height="17.815" viewBox="0 0 17.814 17.815">
  <g id="bxs-phone" transform="translate(8.907 8.907)">
    <path id="bxs-phone-2" data-name="bxs-phone" d="M17.487,13.955l-4.065-3.7a1,1,0,0,0-1.391.043L9.638,12.763A5.741,5.741,0,0,1,6.712,11.1a5.713,5.713,0,0,1-1.66-2.926L7.511,5.783a1,1,0,0,0,.043-1.391L3.859.328A1,1,0,0,0,2.468.241L.3,2.1a1,1,0,0,0-.29.649A15.1,15.1,0,0,0,4.3,13.517a15.142,15.142,0,0,0,10.406,4.3c.2,0,.326-.006.359-.008a.992.992,0,0,0,.648-.291l1.86-2.171A1,1,0,0,0,17.487,13.955Z" transform="translate(-8.907 -8.907)" fill="#8ba3ff"/>
  </g>
</svg>
