<svg xmlns="http://www.w3.org/2000/svg" width="13.795" height="12.416" viewBox="0 0 13.795 12.416">
  <g id="bxs-camera" transform="translate(10 9)">
    <g id="bxs-camera-2" data-name="bxs-camera" transform="translate(-10 -9)">
      <path id="Tracé_4683" data-name="Tracé 4683" d="M11.069,9a2.069,2.069,0,1,0,2.069,2.069A2.1,2.1,0,0,0,11.069,9Z" transform="translate(-4.172 -4.172)" fill="#fff"/>
      <path id="Tracé_4684" data-name="Tracé 4684" d="M14.416,4.069H12.632L10.765,2.2a.687.687,0,0,0-.488-.2H7.518a.687.687,0,0,0-.488.2L5.163,4.069H3.38A1.381,1.381,0,0,0,2,5.449v7.587a1.381,1.381,0,0,0,1.38,1.38H14.416a1.381,1.381,0,0,0,1.38-1.38V5.449A1.381,1.381,0,0,0,14.416,4.069ZM8.9,12.346A3.5,3.5,0,0,1,5.449,8.9,3.5,3.5,0,0,1,8.9,5.449,3.5,3.5,0,0,1,12.346,8.9,3.5,3.5,0,0,1,8.9,12.346Z" transform="translate(-2 -2)" fill="#fff"/>
    </g>
  </g>
</svg>
