<svg id="calendar" xmlns="http://www.w3.org/2000/svg" width="120.352" height="123.655" viewBox="0 0 120.352 123.655">
  <path id="Tracé_4640" data-name="Tracé 4640" d="M307.077,140.126a1.008,1.008,0,0,1,1.006,1.006v69.44a1.008,1.008,0,0,1-1.006,1.006h-52.77a1.008,1.008,0,0,1-1.006-1.006v-1.419A10.55,10.55,0,0,1,263.854,198.6h21.934a7.665,7.665,0,0,0,7.664-7.664V159.608l7.277-.568v-4.929c0-.542-7.716-1.006-8.283-1.006h-7.9a5.732,5.732,0,0,1-5.729-5.729h0A7.268,7.268,0,0,1,286.1,140.1h20.979Z" transform="translate(-195.627 -108.102)" fill="#f4f7fd"/>
  <path id="Tracé_4641" data-name="Tracé 4641" d="M64.843,102.435a2.07,2.07,0,0,1,2.064-2.064h37.03a2.064,2.064,0,1,1,0,4.129H66.907A2.054,2.054,0,0,1,64.843,102.435ZM142.256,171.8H33.929V123.981H135.753a2.07,2.07,0,0,0,2.064-2.064v-6.5a2.07,2.07,0,0,0-2.064-2.064H33.929V104.5H57.824a2.07,2.07,0,0,0,2.064-2.064V91.364a2.064,2.064,0,0,0-4.129,0v9.006H31.864a2.07,2.07,0,0,0-2.064,2.064v12.98a2.07,2.07,0,0,0,2.064,2.064H133.689v2.374H31.864a2.07,2.07,0,0,0-2.064,2.064v51.945a2.07,2.07,0,0,0,2.064,2.064H142.23a2.07,2.07,0,0,0,2.064-2.064A2.048,2.048,0,0,0,142.256,171.8Zm0-71.427H115.084V91.364a2.064,2.064,0,1,0-4.129,0v11.07a2.07,2.07,0,0,0,2.064,2.064h27.146V164.83a2.064,2.064,0,0,0,4.129,0v-62.4A2.032,2.032,0,0,0,142.256,100.37ZM77.332,152.315a2.07,2.07,0,0,0-2.064,2.064v6.5a2.07,2.07,0,0,0,2.064,2.064H96.814a2.07,2.07,0,0,0,2.064-2.064v-6.5a2.07,2.07,0,0,0-2.064-2.064h-6.5a2.064,2.064,0,0,0,0,4.129H94.75v2.374H79.4v-2.374h4.438a2.07,2.07,0,0,0,2.064-2.064V134.9a2.052,2.052,0,0,0-1.445-1.961,2.1,2.1,0,0,0-2.322.774l-6.5,9.161a2.073,2.073,0,0,0,3.38,2.4l2.735-3.871v10.915Z" transform="translate(-29.8 -70.411)" fill="#8ba3ff"/>
  <path id="Tracé_4642" data-name="Tracé 4642" d="M155.049,110.519a2.07,2.07,0,0,1-2.064,2.064H138.173a2.064,2.064,0,0,1,0-4.129h14.812A2.038,2.038,0,0,1,155.049,110.519Zm-89.026,20.1H39.368a2.064,2.064,0,1,0,0,4.129H66.024a2.064,2.064,0,1,0,0-4.129Zm11.457,2.064a2.322,2.322,0,1,1-2.322-2.322A2.329,2.329,0,0,1,77.481,132.685Zm7.741,0a2.322,2.322,0,1,1-2.322-2.322A2.329,2.329,0,0,1,85.222,132.685Zm7.741,0a2.322,2.322,0,1,1-2.322-2.322A2.329,2.329,0,0,1,92.964,132.685ZM131.386,27.66a9.5,9.5,0,0,0,9.5-9.5,2.064,2.064,0,1,0-4.129,0,5.38,5.38,0,0,1-5.367,5.367,2.064,2.064,0,0,0,0,4.129Zm20.334,0a2.064,2.064,0,1,0,0-4.129,5.38,5.38,0,0,1-5.367-5.367,2.064,2.064,0,1,0-4.129,0A9.488,9.488,0,0,0,151.72,27.66Zm-7.432,12.9a2.07,2.07,0,0,0,2.064-2.064,5.38,5.38,0,0,1,5.367-5.367,2.064,2.064,0,1,0,0-4.129,9.5,9.5,0,0,0-9.5,9.5A2.054,2.054,0,0,0,144.289,40.563Zm-5.471,0a2.07,2.07,0,0,0,2.064-2.064,9.5,9.5,0,0,0-9.5-9.5,2.064,2.064,0,0,0,0,4.129,5.38,5.38,0,0,1,5.367,5.367A2.054,2.054,0,0,0,138.818,40.563ZM42.541,28.46v4.077a2.064,2.064,0,0,0,4.129,0V28.46h4.077a2.064,2.064,0,0,0,0-4.129H46.67V20.255a2.064,2.064,0,1,0-4.129,0v4.077H38.464a2.064,2.064,0,0,0,0,4.129ZM153.965,132.943a6.812,6.812,0,1,1-6.812-6.812A6.806,6.806,0,0,1,153.965,132.943Zm-4.129,0a2.684,2.684,0,1,0-2.684,2.684A2.7,2.7,0,0,0,149.837,132.943Z" transform="translate(-34.697 -16.1)" fill="#8ba3ff"/>
  <g id="Groupe_1177" data-name="Groupe 1177" transform="translate(26.527 1.342)">
    <path id="Tracé_4643" data-name="Tracé 4643" d="M217.1,26.925V21.3h15.018v5.625Zm36.849,0V21.3H238.931v5.625Z" transform="translate(-195.295 -21.3)" fill="#abdcff"/>
    <path id="Tracé_4644" data-name="Tracé 4644" d="M132.6,26.925V21.3h15.018v5.625Z" transform="translate(-132.6 -21.3)" fill="#dee8ff"/>
  </g>
</svg>
