<svg id="_35x25" data-name="35x25" xmlns="http://www.w3.org/2000/svg" width="164.904" height="20.308" viewBox="0 0 164.904 20.308">
  <g id="visa">
    <path id="visa-bg" d="M3.316,0h21.8a3.316,3.316,0,0,1,3.316,3.316V16.993a3.316,3.316,0,0,1-3.316,3.316H3.316A3.316,3.316,0,0,1,0,16.993V3.316A3.316,3.316,0,0,1,3.316,0Z" fill="#224dba"/>
    <path id="visa-logo" d="M11.1,6.283h0l-.133,0a4.45,4.45,0,0,1-1.712-.328L9.534,4.64a3.912,3.912,0,0,0,1.62.375c.46,0,.925-.188.925-.609.044-.269-.147-.451-.786-.75-.625-.317-1.343-.789-1.343-1.641C9.95.848,11.059,0,12.588,0a3.9,3.9,0,0,1,1.434.282l-.278,1.312A2.859,2.859,0,0,0,12.477,1.3c-.087,0-.175,0-.26.012a.614.614,0,0,0-.648.515c0,.28.353.467.763.684.63.333,1.413.748,1.413,1.706C13.745,5.472,12.707,6.283,11.1,6.283Zm4.217-.048H13.7L16.012.609A.7.7,0,0,1,16.66.14H18l1.249,6.093H17.817l-.185-.89H15.641l-.323.89Zm1.574-4.453-.833,2.3h1.3ZM8.238,6.234H6.665L7.96.14H9.534l-1.3,6.093Zm-3.425,0H3.147L1.9,1.36A.79.79,0,0,0,1.527.844,5.363,5.363,0,0,0,0,.328V.14H2.684a.708.708,0,0,1,.695.61l.648,3.515L5.692.14H7.312l-2.5,6.093Z" transform="translate(4.874 7.311)" fill="#fff"/>
  </g>
  <g id="diners-club" transform="translate(34.118)">
    <path id="dc-bg" d="M3.316,0h21.8a3.316,3.316,0,0,1,3.316,3.316V16.993a3.316,3.316,0,0,1-3.316,3.316H3.316A3.316,3.316,0,0,1,0,16.993V3.316A3.316,3.316,0,0,1,3.316,0Z" fill="#2183cb"/>
    <path id="dc-logo" d="M5.687,11.822a5.7,5.7,0,0,1-4.022-1.754A5.869,5.869,0,0,1,0,5.963,5.715,5.715,0,0,1,5.433,0H7.859a5.73,5.73,0,0,1,4.107,1.733A6.054,6.054,0,0,1,13.7,5.911v.052a6.091,6.091,0,0,1-1.789,4.144,5.847,5.847,0,0,1-4.148,1.715ZM1.018,5.911a4.858,4.858,0,0,0,4.821,4.883,4.883,4.883,0,0,0,0-9.765A4.857,4.857,0,0,0,1.018,5.911ZM6.6,2.674a3.359,3.359,0,0,1,2.435,4.06A3.324,3.324,0,0,1,6.6,9.2ZM2.693,5.089A3.357,3.357,0,0,1,5.078,2.674V9.2A3.381,3.381,0,0,1,2.693,5.089Z" transform="translate(7.482 4.244)" fill="#fff"/>
  </g>
  <g id="amex" transform="translate(68.236)">
    <path id="amex-bg" d="M3.316,0h21.8a3.316,3.316,0,0,1,3.316,3.316V16.993a3.316,3.316,0,0,1-3.316,3.316H3.316A3.316,3.316,0,0,1,0,16.993V3.316A3.316,3.316,0,0,1,3.316,0Z" fill="#007ecd"/>
    <path id="amex-logo" d="M13.32,6.5h-.7V3.769h1.7a.8.8,0,0,1,.084,0,.737.737,0,0,1,.8.8.7.7,0,0,1-.393.638.674.674,0,0,1,.336.619V6.5h-.682V5.967A.453.453,0,0,0,14,5.552H13.32V6.5Zm0-2.107v.517h.725c.212,0,.384-.116.384-.258s-.172-.259-.384-.259Zm-5.629,2.1H5.082V3.76H7.635l.8.868.809-.863h.538v0h1.7c.005,0,.032,0,.074,0a.754.754,0,0,1,.815.806c0,.8-.292,1.054-1.2,1.054h-.687v.877h-1.3l-.744-.809-.748.809ZM9.786,4.2h0l-.87.948.87.951V4.2Zm-4,1.238V5.9H7.266l.692-.752L7.266,4.4H5.788v.42h1.44v.619Zm4.7-1.054V4.9h.725c.212,0,.384-.116.384-.258s-.172-.259-.384-.259h-.725Zm7.2,2.106H15.5V3.769h2.187V4.4H16.2v.42H17.65v.619H16.2V5.9h1.482v.59Zm4.125,0c-.05,0-.081,0-.085,0H20.478V5.861h1.089a.661.661,0,0,0,.068,0c.123,0,.329-.028.329-.219,0-.211-.432-.228-.565-.228h-.029s-.026,0-.064,0a1.146,1.146,0,0,1-.533-.124A.726.726,0,0,1,20.4,4.6a.8.8,0,0,1,.848-.841H22.62V4.4H21.539a.625.625,0,0,0-.108-.009c-.121,0-.266.035-.266.2s.312.2.446.2l.064,0s.028,0,.073,0c.234,0,1,.054,1,.746A.877.877,0,0,1,21.811,6.493Zm-2.473,0c-.05,0-.081,0-.085,0H18V5.861H19.1a.647.647,0,0,0,.067,0c.122,0,.325-.028.325-.219,0-.211-.432-.228-.565-.228H18.9s-.026,0-.064,0A1.145,1.145,0,0,1,18.3,5.3.726.726,0,0,1,17.93,4.6a.8.8,0,0,1,.848-.841h1.373V4.4H19.066a.625.625,0,0,0-.108-.009c-.121,0-.266.035-.266.2s.311.2.445.2l.064,0s.028,0,.073,0c.234,0,1,.054,1,.746A.877.877,0,0,1,19.338,6.493ZM13.5,2.762h-.7V.023h.7V2.761Zm5.429-.009H17.552L17.3,2.18H16.023l-.243.572h-1.1a1.2,1.2,0,0,1-.944-1.288C13.737.185,14.5.015,14.825,0h.02l.865.023V.638L15,.646s-.463.007-.519.6a1.774,1.774,0,0,0-.009.19c0,.559.3.677.545.677a.958.958,0,0,0,.29-.048L16.177.023h.981L18.21,2.5V.023H19.2l1.1,1.8V.023h.707V2.752h-.969L18.926.929V2.753ZM16.668.67l-.346.813H17ZM10.613,2.753h-.7V.023h1.7a.8.8,0,0,1,.084,0,.738.738,0,0,1,.8.8.7.7,0,0,1-.393.637.675.675,0,0,1,.341.619v.673h-.687V2.222a.451.451,0,0,0-.467-.416h-.682v.947Zm0-2.107v.518h.725c.211,0,.383-.116.383-.259s-.172-.259-.383-.259ZM3.922,2.753H2.538L2.3,2.18H1.015l-.248.572H0L1.164.023h.987L3.217,2.531V.023H4.324l.771,1.7.767-1.7H6.971V2.752H6.26V.869L5.382,2.753H4.806L3.922.877V2.753ZM1.655.67l-.341.813H2ZM9.547,2.753H7.359V.023H9.547V.66H8.065v.42H9.509V1.7H8.065v.462H9.547v.59Z" transform="translate(3.249 7.311)" fill="#fff"/>
  </g>
  <g id="discover" transform="translate(102.354)">
    <path id="discover-bg" d="M3.358,0H25.074a3.358,3.358,0,0,1,3.358,3.358V16.95a3.358,3.358,0,0,1-3.358,3.358H3.358A3.358,3.358,0,0,1,0,16.95V3.358A3.358,3.358,0,0,1,3.358,0Z" fill="#ffa200"/>
    <path id="discover-logo" d="M16.165,3.941h-.387L14.187.087h.774l.989,2.541L16.981.087h.774L16.165,3.94Zm-7.008,0A1.943,1.943,0,0,1,7.223,1.993,1.853,1.853,0,0,1,9.054.081c.048,0,.1,0,.146.006A1.643,1.643,0,0,1,10.1.3v.847A1.216,1.216,0,0,0,9.2.722a1.313,1.313,0,0,0-.9.441A1.2,1.2,0,0,0,8,2.035v.084A1.2,1.2,0,0,0,9.243,3.305a1.125,1.125,0,0,0,.86-.423v.847A2.351,2.351,0,0,1,9.157,3.941Zm3.215,0H12.3a2.017,2.017,0,0,1-1.978-1.99A1.965,1.965,0,0,1,12.3,0a2.04,2.04,0,0,1,2.02,1.99,2.076,2.076,0,0,1-.583,1.378A1.89,1.89,0,0,1,12.372,3.939ZM5.8,3.9l-.08,0a1.456,1.456,0,0,1-1.29-.72L4.9,2.712a.844.844,0,0,0,.774.508h.043a.555.555,0,0,0,.515-.551.442.442,0,0,0-.215-.381A2.662,2.662,0,0,0,5.5,2.077c-.658-.2-.9-.477-.9-1.016V1.019A1.1,1.1,0,0,1,5.685,0l.076,0A1.713,1.713,0,0,1,6.836.426L6.448.934a.9.9,0,0,0-.6-.3A.407.407,0,0,0,5.781.632a.488.488,0,0,0-.45.429c0,.211.133.3.559.466.822.324,1.073.57,1.118,1.1v.127A1.205,1.205,0,0,1,5.8,3.9ZM1.22,3.862c-.048,0-.1,0-.145-.006H0V.087H1.29A1.9,1.9,0,0,1,2.618.7,1.789,1.789,0,0,1,3.1,1.993a1.923,1.923,0,0,1-.688,1.44A1.985,1.985,0,0,1,1.22,3.862ZM.731.722v2.5H.946a1.106,1.106,0,0,0,.135.008,1.408,1.408,0,0,0,.853-.3,1.332,1.332,0,0,0,.387-.974,1.3,1.3,0,0,0-.387-.931,1.405,1.405,0,0,0-.854-.3A1.108,1.108,0,0,0,.946.722ZM21.366,3.857h-.731V.087H21.71c.859,0,1.333.391,1.333,1.1a1.026,1.026,0,0,1-.86,1.1l1.16,1.565h-.9l-.988-1.524h-.086V3.856Zm0-3.177V1.823h.215c.457,0,.688-.2.688-.593,0-.36-.238-.551-.688-.551Zm-1.2,3.176H18.1V.087h2.063V.722H18.83v.847h1.29V2.2H18.83V3.221h1.332v.635Zm-16.035,0H3.4V.087h.731V3.855Z" transform="translate(2.694 8.184)" fill="#fff"/>
  </g>
  <g id="mastercard" transform="translate(136.473)">
    <path id="mastercard-bg" d="M3.316,0h21.8a3.316,3.316,0,0,1,3.316,3.316V16.993a3.316,3.316,0,0,1-3.316,3.316H3.316A3.316,3.316,0,0,1,0,16.993V3.316A3.316,3.316,0,0,1,3.316,0Z" fill="#353a48"/>
    <g id="mastercard-logo" transform="translate(5.237 4.65)">
      <path id="Combined_Shape" data-name="Combined Shape" d="M9.128,9.875a5.474,5.474,0,0,1-3.592,1.34A5.573,5.573,0,0,1,0,5.608,5.573,5.573,0,0,1,5.537,0,5.474,5.474,0,0,1,9.128,1.34,5.474,5.474,0,0,1,12.72,0a5.573,5.573,0,0,1,5.537,5.608,5.573,5.573,0,0,1-5.537,5.608A5.474,5.474,0,0,1,9.128,9.875Z" transform="translate(0 0)" fill="#ff5e00"/>
      <path id="Combined_Shape-2" data-name="Combined Shape" d="M5.537,11.215A5.579,5.579,0,0,1,0,5.608,5.579,5.579,0,0,1,5.537,0,5.5,5.5,0,0,1,9.128,1.34a5.655,5.655,0,0,0,0,8.536A5.5,5.5,0,0,1,5.537,11.215Z" transform="translate(0 0)" fill="#ed0006"/>
      <path id="Combined_Shape-3" data-name="Combined Shape" d="M3.591,11.215A5.5,5.5,0,0,1,0,9.876,5.632,5.632,0,0,0,1.945,5.608,5.633,5.633,0,0,0,0,1.34,5.5,5.5,0,0,1,3.591,0,5.579,5.579,0,0,1,9.128,5.608,5.579,5.579,0,0,1,3.591,11.215Z" transform="translate(9.128 0)" fill="#f9a000"/>
    </g>
  </g>
</svg>
