<svg xmlns="http://www.w3.org/2000/svg" width="11.8" height="13.486" viewBox="0 0 11.8 13.486">
  <path id="Icon_awesome-trash" data-name="Icon awesome-trash" d="M11.379.843H8.218L7.97.35A.632.632,0,0,0,7.4,0H4.393A.625.625,0,0,0,3.83.35L3.582.843H.421A.421.421,0,0,0,0,1.264v.843a.421.421,0,0,0,.421.421H11.379a.421.421,0,0,0,.421-.421V1.264A.421.421,0,0,0,11.379.843ZM1.4,12.3a1.264,1.264,0,0,0,1.262,1.185H9.137A1.264,1.264,0,0,0,10.4,12.3l.558-8.929H.843Z" transform="translate(0 0)" fill="#8ba3ff"/>
</svg>
