<svg id="copy" xmlns="http://www.w3.org/2000/svg" width="122.204" height="119.236" viewBox="0 0 122.204 119.236">
  <path id="Tracé_4619" data-name="Tracé 4619" d="M249.546,52.237V152.788H168.5v-5.767c0-8.791,8.792-15.915,19.618-15.915h0c11.534,0,20.919-7.6,20.919-16.989V74.6c0-13.371,13.343-24.2,29.795-24.2h8.452A2.066,2.066,0,0,1,249.546,52.237Z" transform="translate(-129.518 -47.319)" fill="#8ba3ff" opacity="0.25"/>
  <path id="Tracé_4620" data-name="Tracé 4620" d="M207.857,39.5H126.9a2.268,2.268,0,0,0-2.261,2.261V145.167a2.268,2.268,0,0,0,2.261,2.261h80.961a2.268,2.268,0,0,0,2.261-2.261V41.761A2.25,2.25,0,0,0,207.857,39.5ZM205.6,142.906H129.157V44.023H205.6ZM143.97,65.564a2.268,2.268,0,0,1,2.261-2.261h42.29a2.261,2.261,0,1,1,0,4.523h-42.29A2.268,2.268,0,0,1,143.97,65.564Zm0,17.131a2.268,2.268,0,0,1,2.261-2.261h42.29a2.261,2.261,0,0,1,0,4.523h-42.29A2.268,2.268,0,0,1,143.97,82.694Zm0,17.131a2.268,2.268,0,0,1,2.261-2.261h42.29a2.261,2.261,0,1,1,0,4.523h-42.29A2.268,2.268,0,0,1,143.97,99.825ZM110.5,129.676V53.069a2.268,2.268,0,0,1,2.261-2.261H119.8a2.261,2.261,0,0,1,0,4.523h-4.777v74.318a2.268,2.268,0,0,1-2.261,2.261A2.244,2.244,0,0,1,110.5,129.676Zm85.484,22.5v4.3a2.268,2.268,0,0,1-2.261,2.261H112.761a2.268,2.268,0,0,1-2.261-2.261V138.129a2.261,2.261,0,0,1,4.523,0v16.085h76.438v-2.035a2.261,2.261,0,0,1,4.523,0Z" transform="translate(-87.914 -39.5)" fill="#8ba3ff"/>
  <path id="Tracé_4621" data-name="Tracé 4621" d="M33.229,75.963A7.456,7.456,0,0,1,40.692,68.5a2.261,2.261,0,0,1,0,4.523,2.94,2.94,0,1,0,0,5.88,2.261,2.261,0,0,1,0,4.523A7.492,7.492,0,0,1,33.229,75.963ZM47.646,152.74H59.8a2.261,2.261,0,1,0,0-4.523H47.646a2.261,2.261,0,0,0,0,4.523ZM64.07,156.7H32.861a2.261,2.261,0,1,0,0,4.523H64.07a2.261,2.261,0,1,0,0-4.523Z" transform="translate(-30.6 -60.302)" fill="#8ba3ff"/>
</svg>
