<svg xmlns="http://www.w3.org/2000/svg" width="213.093" height="114.017" viewBox="0 0 213.093 114.017">
  <g id="Groupe_1139" data-name="Groupe 1139" transform="translate(-969 -274.7)">
    <path id="Background" d="M58.7,89.6a8.96,8.96,0,0,1,0-17.921H8.932a8.96,8.96,0,0,1,0-17.919H59.972a8.96,8.96,0,0,0,0-17.921h-31.9a8.96,8.96,0,0,1,0-17.919H79.112A8.96,8.96,0,0,1,79.112,0H204.16a8.96,8.96,0,0,1,0,17.921H153.12a8.96,8.96,0,0,1,0,17.919h28.073a8.96,8.96,0,0,1,0,17.921H168.21c-6.22,0-11.261,4.011-11.261,8.959s7.655,8.96,7.655,8.96a8.96,8.96,0,0,1,0,17.921ZM195.228,44.8a8.932,8.932,0,1,1,8.932,8.96A8.946,8.946,0,0,1,195.228,44.8Z" transform="translate(969 274.7)" fill="#f3f7ff"/>
    <g id="Search" transform="translate(1014.512 275.98)">
      <ellipse id="Oval" cx="42.746" cy="42.88" rx="42.746" ry="42.88" fill="#f3f7ff" stroke="#75a4fe" stroke-miterlimit="10" stroke-width="2.5"/>
      <path id="Oval-2" data-name="Oval" d="M26.965,67.192a44.869,44.869,0,0,0,6.849.648,33.92,33.92,0,0,0,0-67.84,33.61,33.61,0,0,0-13.5,2.809A33.962,33.962,0,0,0,8.529,56.442" transform="translate(8.932 8.96)" fill="#fff" stroke="#75a4fe" stroke-linecap="round" stroke-miterlimit="10" stroke-width="2.5"/>
      <path id="Oval-3" data-name="Oval" d="M0,0A33.754,33.754,0,0,0,9.192,5.34" transform="translate(21.434 69.216)" fill="none" stroke="#75a4fe" stroke-linecap="round" stroke-miterlimit="10" stroke-width="2.5"/>
      <path id="Oval-4" data-name="Oval" d="M24.244,0A24.229,24.229,0,0,0,0,24.32" transform="translate(19.14 19.2)" fill="none" stroke="#a4c3fe" stroke-linecap="round" stroke-miterlimit="10" stroke-width="2.5"/>
      <path id="Path_4" data-name="Path 4" d="M0,0,7.656,7.68" transform="translate(77.836 76.8)" fill="none" stroke="#75a4fe" stroke-miterlimit="10" stroke-width="2.5"/>
      <g id="Rectangle" transform="translate(81.162 78.779)" fill="#e8f0fe" stroke-miterlimit="10">
        <path d="M 21.58509635925293 32.27648544311523 L 8.176076889038086 18.82541275024414 C 5.519216537475586 16.16023254394531 4.056026458740234 12.61641311645508 4.056026458740234 8.846753120422363 C 4.056026458740234 5.415322780609131 5.268443584442139 2.170999765396118 7.489972591400146 -0.3937938213348389 L 20.89899635314941 13.05727291107178 C 23.55585670471191 15.72245311737061 25.01904678344727 19.26627349853516 25.01904678344727 23.03593254089355 C 25.01904678344727 26.46736335754395 23.80662536621094 29.71169281005859 21.58509635925293 32.27648544311523 Z" stroke="none"/>
        <path d="M 21.47073173522949 30.39120864868164 C 22.96461868286133 28.24960517883301 23.76905822753906 25.7049674987793 23.76905822753906 23.03593254089355 C 23.76905822753906 19.59942054748535 22.43539237976074 16.36901092529297 20.01373672485352 13.93976593017578 L 7.604345798492432 1.491480469703674 C 6.110463619232178 3.633085012435913 5.306025505065918 6.177722454071045 5.306025505065918 8.846765518188477 C 5.306025505065918 12.28326511383057 6.639692306518555 15.51367664337158 9.061336517333984 17.94292068481445 L 21.47073173522949 30.39120864868164 M 21.60995292663574 33.95891189575195 C 21.54333877563477 33.95891189575195 21.47672462463379 33.93830490112305 21.43563652038574 33.89708709716797 L 7.2908034324646 19.70792198181152 C 1.311103343963623 13.70946598052979 1.311103343963623 3.984054327011108 7.2908034324646 -2.014401197433472 C 7.331892013549805 -2.055617809295654 7.398506164550781 -2.076226234436035 7.4651198387146 -2.076226234436035 C 7.531733989715576 -2.076226234436035 7.598347663879395 -2.055617809295654 7.639436721801758 -2.014401197433472 L 21.78426933288574 12.17476558685303 C 27.76398086547852 18.17322158813477 27.76398086547852 27.89863204956055 21.78426933288574 33.89708709716797 C 21.7431812286377 33.93830490112305 21.67656707763672 33.95891189575195 21.60995292663574 33.95891189575195 Z" stroke="none" fill="#75a4fe"/>
      </g>
      <path id="Line" d="M0,0,14.036,14.08" transform="translate(90.596 85.76)" fill="none" stroke="#fff" stroke-linecap="round" stroke-miterlimit="10" stroke-width="2.5"/>
    </g>
  </g>
</svg>
