<svg xmlns="http://www.w3.org/2000/svg" width="102.885" height="105.426" viewBox="0 0 102.885 105.426">
  <g id="hand_shake" transform="translate(-18.826 -25.7)">
    <path id="Tracé_4650" data-name="Tracé 4650" d="M251.767,152.281v26.141h-4.7l-6.195,3.88s3.585,3.9.658,6.944c0,0-2.5,4.311-6.944.658,0,0-.182,4.311-1.566,5.31s-3.7,1.679-7.806-.567c0,0,1.883,4.629-1,6.422-2.859,1.793-6.785-1.089-6.785-1.089s2.11,2.973.136,5.2c-1.951,2.224-8.078-1.067-10.325-4.107-2.224-3.063-3.744-1.906-3.744-1.906s-6.785,4.4-8.464.794-.908.84,4.833-3.676S217.888,182.1,217.888,182.1c4.9-4.652,4.334-11.641.7-17.359-3.517-5.514-8.85-9.236-5.151-12.412.159-.136.34-.295.522-.431.159.136.318.25.477.386,10.325,8.056,14.046,5.559,13.842,1.7-.113-2.02-3.426-4.924-4.947-7.443,1.135-.522,1.883-.84,1.883-.84l11.618,6.558h14.931Z" transform="translate(-137.953 -92.77)" fill="#f6f9ff"/>
    <path id="Tracé_4651" data-name="Tracé 4651" d="M164.211,127.041H149.756l-11.21-6.331a1.833,1.833,0,0,0-1.838.023l-.227-.272-.023-.023c-.477-.59-1-1.248-1.52-1.929l-.477-.635c-.045-.045-.091-.113-.136-.159l-.068-.068h0c-.023-.023-.045-.068-.068-.091-1.566-2-5.083-2.156-10.665-2.156h-8.714c-5.628,0-16.452,10.506-17.609,11.618H82.815A1.821,1.821,0,0,0,81,128.834v26.141a1.821,1.821,0,0,0,1.815,1.815h2.5a1.815,1.815,0,1,0,0-3.631h-.681v-22.51H97.973a1.8,1.8,0,0,0,1.316-.567l.386-.408c5.038-5.038,12.48-10.642,15.113-10.642H123.5c2.11,0,7.057,0,7.806.749.045.045.068.091.113.136l.023.023a2.413,2.413,0,0,0,.2.25l.431.545q.817,1.055,1.566,1.974l1.588,2.042c2.269,2.836,3.653,4.7,4.062,5.854.182.522.295.794-.613,1.725a3.057,3.057,0,0,1-1.021.159c-2.61-.068-6.649-2.088-8.85-4.425l-.908-.953a1.79,1.79,0,0,0-2.428-.182L89.419,154.975a9.037,9.037,0,0,0-.885.772,1.727,1.727,0,0,0-.522,1.293,1.363,1.363,0,0,0-.159.613c0,.068-.023.136-.023.2-.136,1.2-.545,4.4,3.109,7.556a5.24,5.24,0,0,0,3.495,1.248,1.954,1.954,0,0,0,.363-.023c.386,2.178,1.407,5.2,3.971,6.354a7.849,7.849,0,0,0,3.245.681,9.8,9.8,0,0,0,1.407-.113,5.446,5.446,0,0,0,.613-.113c.431,2.11,1.566,4.743,4.039,5.56a10.015,10.015,0,0,0,3.109.477,9.153,9.153,0,0,0,1.362-.091,6.1,6.1,0,0,0,2.451-.7h0c.749-.522,1.656-1.2,2.7-1.974a5.357,5.357,0,0,0,1.611,2.814l.045.045,4.2,3.631a5.611,5.611,0,0,0,3.858,1.543h.136A5.372,5.372,0,0,0,131.353,183a5.5,5.5,0,0,0,1.5-3.336,5.292,5.292,0,0,0,2,.363h.295a5.319,5.319,0,0,0,4.969-5.559V174.4a1.328,1.328,0,0,0-.045-.295,5.214,5.214,0,0,0,2.7.749,4.015,4.015,0,0,0,.522-.023,5.29,5.29,0,0,0,3.608-1.883,5.446,5.446,0,0,0,1.225-3.858,6.857,6.857,0,0,0,2.7.318A6.865,6.865,0,0,0,155.384,167h0a6.615,6.615,0,0,0,1.543-4.9,6.87,6.87,0,0,0-.953-2.9l4.039-2.36h4.221a1.821,1.821,0,0,0,1.815-1.815V128.856A1.855,1.855,0,0,0,164.211,127.041ZM128.7,180.5l-.023.023a1.776,1.776,0,0,1-1.2.567,1.891,1.891,0,0,1-1.384-.522L126,180.48l-4.221-3.631a1.841,1.841,0,0,1-.567-1.293,1.692,1.692,0,0,1,.5-1.293l.023-.023a1.767,1.767,0,0,1,1.339-.567,1.8,1.8,0,0,1,1.271.477c.023.023.045.045.068.045l4.266,3.7a1.933,1.933,0,0,1,.567,1.271A2.08,2.08,0,0,1,128.7,180.5ZM136,175.828h0a1.644,1.644,0,0,1-2.36.136l-.023-.023-6.535-5.741a1.659,1.659,0,0,1-.136-2.36,1.63,1.63,0,0,1,1.225-.545,1.663,1.663,0,0,1,1.112.431l6.558,5.718a1.809,1.809,0,0,1,.567,1.157A1.607,1.607,0,0,1,136,175.828Zm8.056-5.2h0a1.477,1.477,0,0,1-1.066.567h-.068a1.723,1.723,0,0,1-1.225-.34l-7.511-6.513-.045-.045a1.476,1.476,0,0,1-.567-1.067v-.045a1.654,1.654,0,0,1,.363-1.2,1.708,1.708,0,0,1,1.135-.613c.091,0,.182-.023.25-.023a1.358,1.358,0,0,1,.772.25c.272.295.567.545.84.794l.045.023.045.045,6.808,5.764.023.023a1.592,1.592,0,0,1,.59,1.112A1.678,1.678,0,0,1,144.061,170.632Zm8.532-5.991a3.165,3.165,0,0,1-2.156,1.135,2.947,2.947,0,0,1-2.246-.7l-4.425-3.631-3.653-3.154c-.045-.045-.091-.113-.136-.159a3.138,3.138,0,0,1,.2-3.721,3.11,3.11,0,0,1,4.38-.408l7.6,6.286a3.048,3.048,0,0,1,1.112,2.133A2.913,2.913,0,0,1,152.593,164.641Zm9.8-11.459h-2.882a1.819,1.819,0,0,0-.908.25l-5.264,3.086-6.444-5.31a6.587,6.587,0,0,0-4.924-1.52A6.729,6.729,0,0,0,136,157.766c-.227-.023-.477-.045-.7-.045a1.914,1.914,0,0,0-.431.045H134.8a5.4,5.4,0,0,0-3.608,1.906,5.273,5.273,0,0,0-1.18,3.858,3.445,3.445,0,0,0,.068.477,5.167,5.167,0,0,0-1.838-.34,5.28,5.28,0,0,0-5.2,6.354,5.384,5.384,0,0,0-3.926,1.679,1.837,1.837,0,0,0-1.339.363c-1.906,1.475-3.472,2.632-4.652,3.495a6.776,6.776,0,0,1-3.88-.045c-1.18-.386-1.725-2.973-1.747-3.948,5.242-3.858,13.3-10.416,13.479-10.6a1.816,1.816,0,0,0-2.451-2.678c-.567.477-9.848,8.01-14.591,11.369a4.975,4.975,0,0,1-3.631,0c-1.135-.522-1.793-2.746-2-4.13.068-.045.136-.068.2-.113,4.674-3.313,14.772-11.459,15.113-11.8a1.822,1.822,0,0,0,0-2.564,1.8,1.8,0,0,0-2.473-.068c-.522.431-9.871,8.01-14.636,11.414-.545.295-2.2,1.067-3.177.227-2.178-1.883-2-3.426-1.883-4.357a1.4,1.4,0,0,0,.023-.295h0l.045-.045c.023-.023.068-.045.091-.068l34.764-27.049c2.927,2.95,7.806,5.264,11.255,5.333h.113a4.956,4.956,0,0,0,3.472-1.2c2.791-2.836,2.065-5.355-.272-8.668l7.42,4.175a1.774,1.774,0,0,0,.885.227h13.116v22.51Z" transform="translate(-50.397 -69.345)" fill="#a8c4ff"/>
    <path id="Tracé_4652" data-name="Tracé 4652" d="M131.985,38.861a1.821,1.821,0,0,1-1.815,1.815,4.731,4.731,0,0,0-4.72,4.72,1.815,1.815,0,1,1-3.631,0,8.358,8.358,0,0,1,8.351-8.351A1.821,1.821,0,0,1,131.985,38.861Zm-19.7,1.815a4.731,4.731,0,0,1,4.72,4.72,1.815,1.815,0,0,0,3.631,0,8.358,8.358,0,0,0-8.351-8.351,1.815,1.815,0,1,0,0,3.631Zm0-4.811a8.358,8.358,0,0,0,8.351-8.351,1.815,1.815,0,1,0-3.631,0,4.731,4.731,0,0,1-4.72,4.72,1.815,1.815,0,1,0,0,3.631Zm17.881,0a1.815,1.815,0,1,0,0-3.631,4.731,4.731,0,0,1-4.72-4.72,1.815,1.815,0,1,0-3.631,0A8.358,8.358,0,0,0,130.169,35.866Zm-73.635,6.1h-.885v-.885a1.815,1.815,0,1,0-3.631,0v.885h-.885a1.815,1.815,0,1,0,0,3.631h.885v.885a1.815,1.815,0,1,0,3.631,0V45.6h.885a1.815,1.815,0,0,0,0-3.631Zm67.554,64.445a1.821,1.821,0,0,0-1.815,1.815v.885h-.885a1.815,1.815,0,0,0,0,3.631h.885v.885a1.815,1.815,0,1,0,3.631,0v-.885h.885a1.815,1.815,0,0,0,0-3.631H125.9v-.885A1.821,1.821,0,0,0,124.088,106.415ZM59.394,28.2H30.915a1.815,1.815,0,1,0,0,3.631H59.394a1.815,1.815,0,1,0,0-3.631Zm69.913,99.3H100.829a1.815,1.815,0,0,0,0,3.631h28.478a1.815,1.815,0,0,0,0-3.631Zm-35.785-3.426H80.088a1.815,1.815,0,1,0,0,3.631H93.522a1.815,1.815,0,1,0,0-3.631Zm-52.94-24.28a1.821,1.821,0,0,0-1.815,1.815,2.36,2.36,0,1,1-4.72,0,1.815,1.815,0,1,0-3.631,0,5.991,5.991,0,1,0,11.981,0A1.821,1.821,0,0,0,40.582,99.789Z" transform="translate(-10.274)" fill="#a8c4ff"/>
  </g>
</svg>
