<svg xmlns="http://www.w3.org/2000/svg" width="96" height="102.863" viewBox="0 0 96 102.863">
  <g id="intellectual-property" transform="translate(-17.082)">
    <g id="Groupe_1543" data-name="Groupe 1543" transform="translate(18.796 17.143)">
      <path id="Tracé_4981" data-name="Tracé 4981" d="M159.453,274.17c0-7.929,8.872-13.079,8.872-22.99a29.688,29.688,0,0,0-2.031-11.606,3.453,3.453,0,0,0-3.181-2.108h-8.646a13.776,13.776,0,0,1-1.944,2.606,9.946,9.946,0,0,0-3.064,7.423,3.429,3.429,0,0,1-3.419,3.685h-6.857a3.429,3.429,0,0,1-3.429-3.429h0a10.727,10.727,0,0,0-2.933-7.553,13.721,13.721,0,0,1-2.071-2.732h-8.431a3.445,3.445,0,0,0-2.936,1.652,13.39,13.39,0,0,0-2.485,6.92c0,3.4,1.278,4.913,1.278,7.179,0,1.76-3.788,4.437-5.574,7.274a2.808,2.808,0,0,0,.764,3.7l2.73,2.047-.78,1.56a1.094,1.094,0,0,0,.2,1.262l1.708,1.708-.5.5a1.094,1.094,0,0,0-.136,1.38l.916,1.374a2.693,2.693,0,0,1,.15,2.682,3.017,3.017,0,0,0-.148,2.278,3.88,3.88,0,0,0,1.553,1.8,7.442,7.442,0,0,0,4.247,1.253H126.8a6.036,6.036,0,0,1,5.726,4.127,3.992,3.992,0,0,0,3.787,2.73H157.9a3.612,3.612,0,0,0,3.663-4.772A41.3,41.3,0,0,1,159.453,274.17Z" transform="translate(-94.61 -204.895)" fill="#e3e7f2"/>
      <path id="Tracé_4982" data-name="Tracé 4982" d="M45.186,118v6.857a1.719,1.719,0,0,1-1.714,1.714H26.329a1.719,1.719,0,0,1-1.714-1.714V118Z" transform="translate(-24.615 -109.429)" fill="#b19046"/>
      <g id="Groupe_1541" data-name="Groupe 1541">
        <path id="Tracé_4983" data-name="Tracé 4983" d="M24.613,124.857a1.714,1.714,0,0,0,1.714,1.714H43.47a1.714,1.714,0,0,0,1.714-1.714V118H24.613v6.857Z" transform="translate(-24.613 -109.429)" fill="#e3e7f2"/>
        <path id="Tracé_4984" data-name="Tracé 4984" d="M45.185,77.048v6.857H24.614V77.048a1.719,1.719,0,0,1,1.714-1.714H43.471A1.719,1.719,0,0,1,45.185,77.048Z" transform="translate(-24.614 -75.334)" fill="#e3e7f2"/>
      </g>
      <path id="Tracé_4985" data-name="Tracé 4985" d="M99.738,77.048V90.763a1.719,1.719,0,0,1-1.714,1.714H92.881A1.719,1.719,0,0,0,94.6,90.763V77.048a1.719,1.719,0,0,0-1.714-1.714h5.143A1.719,1.719,0,0,1,99.738,77.048Z" transform="translate(-79.166 -75.334)" fill="#a4c2f7"/>
      <path id="Tracé_4986" data-name="Tracé 4986" d="M322.877,284.129a3.615,3.615,0,0,1-3.669,4.766h-5.143a3.615,3.615,0,0,0,3.669-4.766,40.99,40.99,0,0,1-2.126-9.96c0-7.92,8.88-13.08,8.88-22.989a29.909,29.909,0,0,0-2.023-11.606,3.46,3.46,0,0,0-3.189-2.109h5.143a3.46,3.46,0,0,1,3.189,2.109,29.91,29.91,0,0,1,2.023,11.606c0,9.909-8.88,15.069-8.88,22.989A41,41,0,0,0,322.877,284.129Z" transform="translate(-255.916 -204.895)" fill="#7fabfa"/>
      <path id="Tracé_4987" data-name="Tracé 4987" d="M222.685,148.77a13.686,13.686,0,0,1-3.857,9.531,10.875,10.875,0,0,0-3,7.611,3.427,3.427,0,0,1-3.428,3.428h-6.994a3.429,3.429,0,0,1-3.291-3.429,11.078,11.078,0,0,0-3.051-7.663A13.711,13.711,0,0,1,206.4,135.3a9.546,9.546,0,0,1,1.012-.154,13.723,13.723,0,0,1,15.274,13.629Z" transform="translate(-160.972 -123.056)" fill="#a4c2f7"/>
      <path id="Tracé_4988" data-name="Tracé 4988" d="M217.542,149.734a13.686,13.686,0,0,1-3.857,9.531,10.875,10.875,0,0,0-3,7.611,3.427,3.427,0,0,1-3.428,3.428h-1.851a3.429,3.429,0,0,1-3.291-3.429,11.079,11.079,0,0,0-3.051-7.663,13.711,13.711,0,0,1,7.337-22.954A13.713,13.713,0,0,1,217.542,149.734Z" transform="translate(-160.972 -124.02)" fill="#e3e7f2"/>
      <g id="Groupe_1542" data-name="Groupe 1542" transform="translate(0 0.034)">
        <path id="Tracé_4989" data-name="Tracé 4989" d="M29.757,77.218A1.719,1.719,0,0,1,31.471,75.5H26.328a1.719,1.719,0,0,0-1.714,1.714V90.933a1.714,1.714,0,0,0,1.714,1.714h5.143a1.714,1.714,0,0,1-1.714-1.714Z" transform="translate(-24.614 -75.504)" fill="#fff"/>
        <path id="Tracé_4990" data-name="Tracé 4990" d="M115.518,269.236l1.708,1.708-.5.5a1.094,1.094,0,0,0-.136,1.38l.916,1.374a2.693,2.693,0,0,1,.15,2.682,3.017,3.017,0,0,0-.148,2.278,3.881,3.881,0,0,0,1.553,1.8,7.441,7.441,0,0,0,4.247,1.253H126.8a6.036,6.036,0,0,1,5.726,4.127,3.992,3.992,0,0,0,3.787,2.73h5.143a3.992,3.992,0,0,1-3.787-2.73,6.036,6.036,0,0,0-5.726-4.127h-3.495a7.441,7.441,0,0,1-4.247-1.253,3.879,3.879,0,0,1-1.553-1.8,3.017,3.017,0,0,1,.148-2.278,2.693,2.693,0,0,0-.15-2.682l-.916-1.374a1.094,1.094,0,0,1,.136-1.38l.5-.5-1.708-1.708a1.094,1.094,0,0,1-.2-1.262l.78-1.56-2.729-2.047a2.807,2.807,0,0,1-.764-3.7c1.786-2.837,5.574-5.514,5.574-7.274,0-2.265-1.278-3.78-1.278-7.179a13.389,13.389,0,0,1,2.485-6.92,3.444,3.444,0,0,1,2.937-1.651h-5.143a3.445,3.445,0,0,0-2.937,1.651,13.392,13.392,0,0,0-2.485,6.92c0,3.4,1.278,4.913,1.278,7.179,0,1.76-3.788,4.437-5.574,7.274a2.808,2.808,0,0,0,.764,3.7l2.729,2.047-.78,1.56A1.094,1.094,0,0,0,115.518,269.236Z" transform="translate(-94.61 -205.066)" fill="#fff"/>
        <path id="Tracé_4991" data-name="Tracé 4991" d="M306.219,305.9h-.005Z" transform="translate(-249.642 -259.618)" fill="#fff"/>
      </g>
    </g>
    <g id="Groupe_1545" data-name="Groupe 1545" transform="translate(17.082)">
      <rect id="Rectangle_1004" data-name="Rectangle 1004" width="21.585" height="3.429" transform="translate(43.421 99.429)" fill="#8ba3ff"/>
      <g id="Groupe_1544" data-name="Groupe 1544">
        <path id="Tracé_4992" data-name="Tracé 4992" d="M239.023,343.047a1.714,1.714,0,0,0-1.714-1.714H223.594a1.714,1.714,0,1,0,0,3.428h13.714a1.714,1.714,0,0,0,1.714-1.714Z" transform="translate(-180.737 -272.762)" fill="#8ba3ff"/>
        <path id="Tracé_4993" data-name="Tracé 4993" d="M256.014,87.048v3.429a1.714,1.714,0,1,0,3.428,0V87.048a1.714,1.714,0,1,0-3.428,0Z" transform="translate(-208.014 -68.191)" fill="#8ba3ff"/>
        <path id="Tracé_4994" data-name="Tracé 4994" d="M331.349,120.82l-2.424,2.424a1.714,1.714,0,0,0,2.424,2.424l2.424-2.424a1.714,1.714,0,1,0-2.424-2.424Z" transform="translate(-265.877 -96.145)" fill="#8ba3ff"/>
        <path id="Tracé_4995" data-name="Tracé 4995" d="M380.7,199.7v-1.714a1.714,1.714,0,1,0-3.428,0H360.13a1.714,1.714,0,1,0,0,3.428h18.857A1.713,1.713,0,0,0,380.7,199.7Z" transform="translate(-289.844 -156.838)" fill="#8ba3ff"/>
        <path id="Tracé_4996" data-name="Tracé 4996" d="M175.686,126.187a1.714,1.714,0,0,0,1.212-2.926l-2.424-2.424a1.714,1.714,0,0,0-2.424,2.424l2.424,2.424A1.708,1.708,0,0,0,175.686,126.187Z" transform="translate(-140.518 -96.162)" fill="#8ba3ff"/>
        <path id="Tracé_4997" data-name="Tracé 4997" d="M70,201.411H87.138a1.714,1.714,0,0,0,0-3.428H71.709a1.714,1.714,0,0,0-3.428,0V199.7A1.714,1.714,0,0,0,70,201.411Z" transform="translate(-57.995 -156.839)" fill="#8ba3ff"/>
        <path id="Tracé_4998" data-name="Tracé 4998" d="M272.045,495.472a1.809,1.809,0,0,0-.324.565,1.885,1.885,0,0,0-.123.652,1.917,1.917,0,0,0,.447,1.217,1.454,1.454,0,0,0,2.189,0l.185-.257a1.36,1.36,0,0,0,.139-.309,1.169,1.169,0,0,0,.092-.309,2.721,2.721,0,0,0,.031-.342,1.911,1.911,0,0,0-.447-1.217,1.576,1.576,0,0,0-.508-.361A1.459,1.459,0,0,0,272.045,495.472Z" transform="translate(-220.467 -395.546)" fill="#8ba3ff"/>
        <path id="Tracé_4999" data-name="Tracé 4999" d="M164.235,172.418a31.185,31.185,0,0,0-2.166-12.273,5.154,5.154,0,0,0-4.759-3.156h-5.972a15.426,15.426,0,1,0-29.056,0h-5.767a5.178,5.178,0,0,0-4.4,2.475,15.21,15.21,0,0,0-2.736,7.811,15.631,15.631,0,0,0,.807,4.829,8.354,8.354,0,0,1,.477,2.288,12.173,12.173,0,0,1-2.19,2.681,25.33,25.33,0,0,0-3.127,3.742,4.535,4.535,0,0,0,1.187,5.989l1.585,1.188-.141.28a2.8,2.8,0,0,0,.526,3.243l.629.629a2.813,2.813,0,0,0,.229,2.7l.916,1.374a.981.981,0,0,1,.035.983,4.705,4.705,0,0,0-.231,3.574,5.467,5.467,0,0,0,2.2,2.662,9.113,9.113,0,0,0,5.223,1.558H121a4.319,4.319,0,0,1,4.1,2.957,5.7,5.7,0,0,0,5.412,3.9H133.6a1.724,1.724,0,0,0,0-3.428h-3.084a2.277,2.277,0,0,1-2.161-1.558,7.739,7.739,0,0,0-7.351-5.3h-3.5a5.711,5.711,0,0,1-3.271-.948c-.713-.495-.874-.844-.9-.936a1.313,1.313,0,0,1,.065-.984,4.437,4.437,0,0,0-.266-4.382l-.633-.95.137-.138a1.714,1.714,0,0,0,0-2.426l-1.393-1.391.581-1.16a1.716,1.716,0,0,0-.506-2.139l-2.729-2.046a1.1,1.1,0,0,1-.342-1.421,22.452,22.452,0,0,1,2.707-3.2c1.681-1.764,3.131-3.286,3.131-4.984a11.189,11.189,0,0,0-.614-3.329,12.358,12.358,0,0,1-.665-3.85,11.943,11.943,0,0,1,2.237-6.03,1.732,1.732,0,0,1,1.472-.827H124c.065.1.14.185.207.281.16.227.32.452.494.671.239.306.492.6.75.878.076.083.14.174.219.256a9.313,9.313,0,0,1,2.57,6.485,5.148,5.148,0,0,0,5.143,5.143h6.857a5.149,5.149,0,0,0,1.051-.11c.017,0,.033-.012.05-.015a5.1,5.1,0,0,0,.933-.3c.089-.039.169-.1.256-.139a5.144,5.144,0,0,0,.628-.353c.123-.085.23-.19.346-.285a5.163,5.163,0,0,0,.425-.371c.025-.026.056-.044.081-.071.087-.093.149-.2.228-.3a5.156,5.156,0,0,0,.331-.441c.08-.126.144-.258.212-.39a5.052,5.052,0,0,0,.253-.538c.051-.133.086-.269.126-.406a5.059,5.059,0,0,0,.141-.586c.026-.154.035-.308.047-.464.009-.125.038-.245.038-.373a9.161,9.161,0,0,1,2.488-6.394c.03-.032.063-.071.092-.1.216-.226.419-.471.623-.714a15.538,15.538,0,0,0,1.038-1.361h7.69a1.732,1.732,0,0,1,1.6,1.06,27.853,27.853,0,0,1,1.9,10.94c0,4.734-2.309,8.381-4.54,11.907-2.131,3.364-4.333,6.842-4.333,11.083a30.229,30.229,0,0,0,1.564,8.222c.216.744.425,1.468.606,2.16a2.181,2.181,0,0,1-.266,1.908,2.12,2.12,0,0,1-1.739.72h-6.166a1.724,1.724,0,0,0,0,3.428H152.1a5.321,5.321,0,0,0,5.323-6.916c-.187-.724-.405-1.479-.631-2.256a27.306,27.306,0,0,1-1.428-7.267c0-3.246,1.761-6.028,3.8-9.249C161.54,182.4,164.235,178.147,164.235,172.418ZM133.378,170.7a1.717,1.717,0,0,1-1.714-1.716,12.348,12.348,0,0,0-3.425-8.753,12.087,12.087,0,0,1-1.811-2.394l-.02-.025a11.98,11.98,0,0,1,9.023-17.892,12.618,12.618,0,0,1,1.391-.078,11.988,11.988,0,0,1,10.371,17.981l-.011.015a12.967,12.967,0,0,1-.785,1.19l-.025.035a11.59,11.59,0,0,1-.826.981c-.039.042-.073.087-.113.129a12.133,12.133,0,0,0-.806.923,11.131,11.131,0,0,0-2.681,7.759,1.7,1.7,0,0,1-.057.435,1.73,1.73,0,0,1-.063.311,1.708,1.708,0,0,1-.215.354,1.742,1.742,0,0,1-.146.216,1.7,1.7,0,0,1-.377.268,1.664,1.664,0,0,1-.181.122,1.711,1.711,0,0,1-.672.139h-6.857Z" transform="translate(-87.093 -108.99)" fill="#8ba3ff"/>
        <path id="Tracé_5000" data-name="Tracé 5000" d="M433.577,29.143a6.851,6.851,0,0,0-5.143-6.614V3.429A3.433,3.433,0,0,0,425.005,0h-5.143a1.714,1.714,0,1,0,0,3.428h5.143V6.857h-3.429a1.714,1.714,0,1,0,0,3.428h3.429V22.529a6.846,6.846,0,1,0,8.571,6.614Zm-6.857,3.428a3.429,3.429,0,1,1,3.429-3.428A3.429,3.429,0,0,1,426.719,32.571Z" transform="translate(-337.577)" fill="#8ba3ff"/>
        <path id="Tracé_5001" data-name="Tracé 5001" d="M41.082,32.571V18.857a3.417,3.417,0,0,0-1.714-2.952v-5.62a10.286,10.286,0,1,0-20.571,0v5.62a3.417,3.417,0,0,0-1.714,2.952V32.571A3.433,3.433,0,0,0,20.511,36H37.653A3.433,3.433,0,0,0,41.082,32.571Zm-3.429,0H20.51V27.429H37.653Zm0-8.571H20.51V18.857H37.653ZM22.225,10.286a6.857,6.857,0,1,1,13.714,0v5.143H22.225Z" transform="translate(-17.082)" fill="#8ba3ff"/>
      </g>
    </g>
  </g>
</svg>
