<svg xmlns="http://www.w3.org/2000/svg" width="15.114" height="15.112" viewBox="0 0 15.114 15.112">
  <path id="Icon_ionic-ios-call" data-name="Icon ionic-ios-call" d="M19.167,16.336a12.694,12.694,0,0,0-2.652-1.774c-.795-.382-1.086-.374-1.649.031-.468.338-.771.653-1.31.535a7.816,7.816,0,0,1-2.632-1.948,7.759,7.759,0,0,1-1.948-2.632c-.114-.543.2-.842.535-1.31.405-.563.417-.854.031-1.649A12.443,12.443,0,0,0,7.769,4.938c-.578-.578-.708-.452-1.027-.338a5.843,5.843,0,0,0-.94.5A2.837,2.837,0,0,0,4.673,6.291c-.224.484-.484,1.385.838,3.738a20.856,20.856,0,0,0,3.667,4.89h0l0,0,0,0h0a20.937,20.937,0,0,0,4.89,3.667c2.353,1.322,3.254,1.062,3.738.838A2.788,2.788,0,0,0,19.006,18.3a5.843,5.843,0,0,0,.5-.94C19.619,17.044,19.749,16.914,19.167,16.336Z" transform="translate(-4.49 -4.502)" fill="#0026bc"/>
</svg>
