<svg xmlns="http://www.w3.org/2000/svg" xmlns:xlink="http://www.w3.org/1999/xlink" width="67" height="67" viewBox="0 0 67 67">
  <defs>
    <filter id="Path" x="27.779" y="24.272" width="12.2" height="15.266" filterUnits="userSpaceOnUse">
      <feOffset dy="2" input="SourceAlpha"/>
      <feGaussianBlur stdDeviation="1.5" result="blur"/>
      <feFlood flood-color="#0002ff" flood-opacity="0.4"/>
      <feComposite operator="in" in2="blur"/>
      <feComposite in="SourceGraphic"/>
    </filter>
  </defs>
  <g id="Groupe_15886" data-name="Groupe 15886" transform="translate(-0.214 -0.212)">
    <rect id="avatar_bg" data-name="avatar bg" width="67" height="67" rx="20" transform="translate(0.214 0.212)" fill="#f3f6ff"/>
    <g id="face" transform="translate(6.635 21.847)">
      <path id="circle" d="M43.012,5.8a5.77,5.77,0,1,1,5.77,5.8A5.787,5.787,0,0,1,43.012,5.8ZM0,5.8a5.77,5.77,0,1,1,5.77,5.8A5.787,5.787,0,0,1,0,5.8Z" transform="translate(0 12.357)" fill="#79d0ff" opacity="0.3"/>
      <path id="line" d="M0,0A11.973,11.973,0,0,0,11.145,7.269,11.974,11.974,0,0,0,22.281.023" transform="translate(38.571 23.932) rotate(180)" fill="none" stroke="#233a73" stroke-linecap="round" stroke-linejoin="round" stroke-miterlimit="10" stroke-width="4"/>
      <path id="eyes" d="M28.325,7.374a3.645,3.645,0,0,1-3.592-3.687,3.592,3.592,0,1,1,7.181,0A3.643,3.643,0,0,1,28.325,7.374Zm-24.734,0A3.644,3.644,0,0,1,0,3.686,3.644,3.644,0,0,1,3.591,0,3.644,3.644,0,0,1,7.182,3.686,3.644,3.644,0,0,1,3.591,7.374Z" transform="translate(11.515 4.08)" fill="#233a73"/>
      <g transform="matrix(1, 0, 0, 1, -6.42, -21.64)" filter="url(#Path)">
        <path id="Path-2" data-name="Path" d="M1,0V3.066" transform="translate(32.88 28.37)" fill="none" stroke="#79d0ff" stroke-linecap="round" stroke-linejoin="round" stroke-miterlimit="10" stroke-width="3.2"/>
      </g>
      <g id="cejas" transform="translate(9.28 0)">
        <path id="line-2" data-name="line" d="M7.036,1.885,0,0" transform="translate(29.273 0.048)" fill="none" stroke="#233a73" stroke-linecap="round" stroke-linejoin="round" stroke-miterlimit="10" stroke-width="2"/>
        <path id="line-3" data-name="line" d="M7.036,0,0,1.885" transform="translate(0)" fill="none" stroke="#233a73" stroke-linecap="round" stroke-linejoin="round" stroke-miterlimit="10" stroke-width="2"/>
      </g>
    </g>
  </g>
</svg>
