<svg xmlns="http://www.w3.org/2000/svg" xmlns:xlink="http://www.w3.org/1999/xlink" width="66" height="66" viewBox="0 0 66 66">
  <defs>
    <filter id="Path" x="26.844" y="24.355" width="12.2" height="15.247" filterUnits="userSpaceOnUse">
      <feOffset dy="2" input="SourceAlpha"/>
      <feGaussianBlur stdDeviation="1.5" result="blur"/>
      <feFlood flood-color="#0002ff" flood-opacity="0.4"/>
      <feComposite operator="in" in2="blur"/>
      <feComposite in="SourceGraphic"/>
    </filter>
  </defs>
  <g id="Groupe_15887" data-name="Groupe 15887" transform="translate(-0.214 0.277)">
    <rect id="avatar_bg" data-name="avatar bg" width="66" height="66" rx="20" transform="translate(0.214 -0.277)" fill="#f3f6ff"/>
    <g id="face" transform="translate(5.875 21.645)">
      <path id="circle" d="M42.739,5.767a5.733,5.733,0,1,1,5.733,5.767A5.75,5.75,0,0,1,42.739,5.767ZM0,5.767a5.733,5.733,0,1,1,5.733,5.767A5.75,5.75,0,0,1,0,5.767Z" transform="translate(0 11.916)" fill="#ff5959" opacity="0.24"/>
      <path id="line" d="M0,0C1.734,2.971,6.039,5.075,11.075,5.075S20.4,2.979,22.14.016" transform="translate(38.327 21.471) rotate(180)" fill="none" stroke="#233a73" stroke-linecap="round" stroke-linejoin="round" stroke-miterlimit="10" stroke-width="4"/>
      <path id="eyes" d="M28.145,7.327a3.621,3.621,0,0,1-3.569-3.664,3.569,3.569,0,1,1,7.135,0A3.62,3.62,0,0,1,28.145,7.327Zm-24.577,0A3.621,3.621,0,0,1,0,3.663,3.621,3.621,0,0,1,3.568,0,3.621,3.621,0,0,1,7.136,3.663,3.621,3.621,0,0,1,3.568,7.327Z" transform="translate(11.442 3.892)" fill="#233a73"/>
      <g transform="matrix(1, 0, 0, 1, -5.66, -21.92)" filter="url(#Path)">
        <path id="Path-2" data-name="Path" d="M1,0V3.047" transform="translate(31.94 28.46)" fill="none" stroke="#ff8991" stroke-linecap="round" stroke-linejoin="round" stroke-miterlimit="10" stroke-width="3.2"/>
      </g>
      <g id="cejas" transform="translate(11.65 0)">
        <path id="line-2" data-name="line" d="M6.269,0,0,3.619" transform="translate(24.951 0.047)" fill="none" stroke="#233a73" stroke-linecap="round" stroke-linejoin="round" stroke-miterlimit="10" stroke-width="2"/>
        <path id="line-3" data-name="line" d="M6.269,3.619,0,0" transform="translate(0)" fill="none" stroke="#233a73" stroke-linecap="round" stroke-linejoin="round" stroke-miterlimit="10" stroke-width="2"/>
      </g>
    </g>
  </g>
</svg>
