<svg xmlns="http://www.w3.org/2000/svg" xmlns:xlink="http://www.w3.org/1999/xlink" width="68" height="67" viewBox="0 0 68 67">
  <defs>
    <filter id="Path" x="28.228" y="24.776" width="12.2" height="17.793" filterUnits="userSpaceOnUse">
      <feOffset dy="2" input="SourceAlpha"/>
      <feGaussianBlur stdDeviation="1.5" result="blur"/>
      <feFlood flood-color="#0002ff" flood-opacity="0.4"/>
      <feComposite operator="in" in2="blur"/>
      <feComposite in="SourceGraphic"/>
    </filter>
  </defs>
  <g id="Groupe_15884" data-name="Groupe 15884" transform="translate(-0.258 -0.212)">
    <rect id="avatar_bg" data-name="avatar bg" width="68" height="67" rx="20" transform="translate(0.258 0.212)" fill="#f3f6ff"/>
    <g id="face" transform="translate(8.453 20.447)">
      <path id="circle" d="M41.373,5.382a5.553,5.553,0,0,1,11.1,0,5.553,5.553,0,0,1-11.1,0ZM0,5.382A5.468,5.468,0,0,1,5.55,0,5.468,5.468,0,0,1,11.1,5.382a5.468,5.468,0,0,1-5.55,5.382A5.468,5.468,0,0,1,0,5.382Z" transform="translate(0 11.076)" fill="#79d0ff" opacity="0.5"/>
      <path id="line" d="M0,0A11.437,11.437,0,0,0,11.562,10.015,11.438,11.438,0,0,0,23.122.023" transform="translate(14.543 17.267)" fill="none" stroke="#233a73" stroke-linecap="round" stroke-linejoin="round" stroke-miterlimit="10" stroke-width="4"/>
      <path id="eyes" d="M27.5,7.158a3.538,3.538,0,0,1-3.487-3.58,3.487,3.487,0,1,1,6.971,0A3.537,3.537,0,0,1,27.5,7.158Zm-24.012,0A3.538,3.538,0,0,1,0,3.579,3.537,3.537,0,0,1,3.486,0,3.537,3.537,0,0,1,6.972,3.579,3.538,3.538,0,0,1,3.486,7.158Z" transform="translate(10.656 5.051)" fill="#233a73"/>
      <g transform="matrix(1, 0, 0, 1, -8.19, -20.23)" filter="url(#Path)">
        <path id="Path-2" data-name="Path" d="M1,0V5.593" transform="translate(33.33 28.88)" fill="none" stroke="#79d0ff" stroke-linecap="round" stroke-linejoin="round" stroke-miterlimit="10" stroke-width="3.2"/>
      </g>
      <g id="cejas" transform="translate(8.434 0)">
        <path id="Path-3" data-name="Path" d="M7.66,1.25H.588" transform="translate(27.699 -1.25)" fill="none" stroke="#233a73" stroke-linecap="round" stroke-linejoin="round" stroke-miterlimit="10" stroke-width="2.8"/>
        <path id="Path-4" data-name="Path" d="M7.66,1.25H.588" transform="translate(-0.588 -1.25)" fill="none" stroke="#233a73" stroke-linecap="round" stroke-linejoin="round" stroke-miterlimit="10" stroke-width="2.8"/>
      </g>
    </g>
  </g>
</svg>
