<svg xmlns="http://www.w3.org/2000/svg" xmlns:xlink="http://www.w3.org/1999/xlink" width="68" height="67" viewBox="0 0 68 67">
  <defs>
    <filter id="Path" x="26.897" y="25.554" width="12.2" height="17.085" filterUnits="userSpaceOnUse">
      <feOffset dy="2" input="SourceAlpha"/>
      <feGaussianBlur stdDeviation="1.5" result="blur"/>
      <feFlood flood-color="#0002ff" flood-opacity="0.4"/>
      <feComposite operator="in" in2="blur"/>
      <feComposite in="SourceGraphic"/>
    </filter>
  </defs>
  <g id="Groupe_15885" data-name="Groupe 15885" transform="translate(-0.258 0.277)">
    <rect id="avatar_bg" data-name="avatar bg" width="68" height="67" rx="20" transform="translate(0.258 -0.277)" fill="#f3f6ff"/>
    <g id="face" transform="translate(10.429 21.829)">
      <path id="circle" d="M36.138,4.7a4.85,4.85,0,0,1,9.7,0,4.85,4.85,0,0,1-9.7,0ZM0,4.7A4.776,4.776,0,0,1,4.848,0,4.776,4.776,0,0,1,9.7,4.7,4.776,4.776,0,0,1,4.848,9.4,4.776,4.776,0,0,1,0,4.7Z" transform="translate(0 9.885)" fill="#79d0ff" opacity="0.24"/>
      <path id="Path-2" data-name="Path" d="M.453,1.023H31.338" transform="translate(6.872 23.706)" fill="none" stroke="#233a73" stroke-linecap="round" stroke-linejoin="round" stroke-miterlimit="10" stroke-width="4"/>
      <g transform="matrix(1, 0, 0, 1, -10.17, -22.11)" filter="url(#Path)">
        <path id="Path-3" data-name="Path" d="M1,0V4.885" transform="translate(32 29.65)" fill="none" stroke="#79d0ff" stroke-linecap="round" stroke-linejoin="round" stroke-miterlimit="10" stroke-width="3.2"/>
      </g>
      <g id="cejas" transform="translate(7.367 0)">
        <path id="Path-4" data-name="Path" d="M6.765,1.25H.588" transform="translate(24.12 -1.25)" fill="none" stroke="#233a73" stroke-linecap="round" stroke-linejoin="round" stroke-miterlimit="10" stroke-width="2.8"/>
        <path id="Path-5" data-name="Path" d="M6.765,1.25H.588" transform="translate(-0.588 -1.25)" fill="none" stroke="#233a73" stroke-linecap="round" stroke-linejoin="round" stroke-miterlimit="10" stroke-width="2.8"/>
      </g>
      <path id="eyes" d="M24.019,6.253a3.091,3.091,0,0,1-3.046-3.127,3.046,3.046,0,1,1,6.089,0A3.089,3.089,0,0,1,24.019,6.253Zm-20.974,0A3.09,3.09,0,0,1,0,3.126,3.09,3.09,0,0,1,3.045,0,3.09,3.09,0,0,1,6.09,3.126,3.09,3.09,0,0,1,3.045,6.253Z" transform="translate(9.308 2.647)" fill="#233a73"/>
    </g>
  </g>
</svg>
