<svg xmlns="http://www.w3.org/2000/svg" width="23" height="23" viewBox="0 0 23 23">
  <g id="Groupe_1287" data-name="Groupe 1287" transform="translate(-1231 -444)">
    <g id="Rectangle_903" data-name="Rectangle 903" transform="translate(1231 444)" fill="none" stroke="#f9dd2f" stroke-width="1">
      <rect width="23" height="23" rx="8" stroke="none"/>
      <rect x="0.5" y="0.5" width="22" height="22" rx="7.5" fill="none"/>
    </g>
    <path id="Icon_awesome-exclamation" data-name="Icon awesome-exclamation" d="M4.95,10.327A1.912,1.912,0,1,1,3.037,8.415,1.915,1.915,0,0,1,4.95,10.327ZM1.346.6l.325,6.5a.574.574,0,0,0,.573.545H3.83A.574.574,0,0,0,4.4,7.1L4.728.6A.574.574,0,0,0,4.155,0H1.919A.574.574,0,0,0,1.346.6Z" transform="translate(1239.6 449.761)" fill="#f9dd2f"/>
  </g>
</svg>
