<svg xmlns="http://www.w3.org/2000/svg" xmlns:xlink="http://www.w3.org/1999/xlink" width="1366" height="768" viewBox="0 0 1366 768">
  <defs>
    <clipPath id="clip-path">
      <path id="Rectangle_421" data-name="Rectangle 421" d="M0,0H1366a0,0,0,0,1,0,0V292a50,50,0,0,1-50,50H50A50,50,0,0,1,0,292V0A0,0,0,0,1,0,0Z" transform="translate(16189 -6861)" fill="#0026bc"/>
    </clipPath>
    <clipPath id="clip-CALLS_LEADS">
      <rect width="1366" height="768"/>
    </clipPath>
  </defs>
  <g id="CALLS_LEADS" data-name="CALLS/LEADS" clip-path="url(#clip-CALLS_LEADS)">
    <rect width="1366" height="768" fill="#f3f7fc"/>
    <g id="BG">
      <rect id="BG-2" data-name="BG" width="1366" height="768" fill="#f3f7fc"/>
    </g>
    <g id="HUNTEASE_BACKGROUND" data-name="HUNTEASE BACKGROUND">
      <path id="HUNTEASE-BG" d="M0,0H1366a0,0,0,0,1,0,0V290a50,50,0,0,1-50,50H50A50,50,0,0,1,0,290V0A0,0,0,0,1,0,0Z" fill="#0026bc"/>
      <g id="Pattern" transform="translate(-16189 6861)" opacity="0.1" clip-path="url(#clip-path)" style="mix-blend-mode: luminosity;isolation: isolate">
        <g id="Patterns" transform="translate(16061 -7476)">
          <g id="Inn">
            <g id="Shape">
              <path id="Tracé_140" data-name="Tracé 140" d="M217.461,322.986A108.693,108.693,0,0,0,8.277,281.26,109.286,109.286,0,0,0,0,322.986H217.461Z" fill="#94c0d4"/>
              <path id="Tracé_141" data-name="Tracé 141" d="M0,218.075A109.265,109.265,0,0,0,41.722,209.8a109.064,109.064,0,0,0,35.37-23.572,108.737,108.737,0,0,0,23.634-35.279,108.483,108.483,0,0,0,0-83.228A108.727,108.727,0,0,0,77.092,32.439,109.049,109.049,0,0,0,41.722,8.867,109.269,109.269,0,0,0,0,.589V218.075Z" fill="#f45b0f"/>
              <path id="Tracé_142" data-name="Tracé 142" d="M239.266,588.8A109.035,109.035,0,0,1,130.241,479.764H239.266Z" fill="#161616"/>
              <path id="Tracé_143" data-name="Tracé 143" d="M0,348.33a109,109,0,0,1,41.722,8.3,109.04,109.04,0,0,1,35.37,23.637,109.052,109.052,0,0,1,23.634,35.374,109.026,109.026,0,0,1,8.3,41.726H0Z" fill="#f45b0f"/>
              <path id="Tracé_144" data-name="Tracé 144" d="M130.241,110.216A109.028,109.028,0,0,1,239.266,1.179V110.216Z" fill="#ffd726"/>
              <path id="Tracé_145" data-name="Tracé 145" d="M0,534.283a54.516,54.516,0,0,1,54.513-54.519h54.512V588.8H54.513A54.517,54.517,0,0,1,0,534.283Z" fill="#ffd726"/>
              <path id="Tracé_146" data-name="Tracé 146" d="M130.241,403.438a54.516,54.516,0,0,0,54.513,54.519h54.512V348.919H184.754a54.516,54.516,0,0,0-54.513,54.519Z" fill="#048ecb"/>
              <ellipse id="Ellipse_115" data-name="Ellipse 115" cx="43.315" cy="43.32" rx="43.315" ry="43.32" transform="translate(152.636 131.434)" fill="#ffd726"/>
              <path id="Tracé_147" data-name="Tracé 147" d="M1587.64,218.075a109.024,109.024,0,0,0-109.02-109.038V218.075Z" fill="#94c0d4"/>
              <path id="Tracé_148" data-name="Tracé 148" d="M1239.35,110.216a54.069,54.069,0,0,0,38.34-15.968A54.6,54.6,0,0,0,1260.1,5.329a53.974,53.974,0,0,0-20.75-4.15V110.216Z" fill="#94c0d4"/>
              <path id="Tracé_149" data-name="Tracé 149" d="M1457.4.589a108.743,108.743,0,1,0,0,217.486V.589Z" fill="#f45b0f"/>
              <path id="Tracé_150" data-name="Tracé 150" d="M1348.38,479.175A109.021,109.021,0,0,1,1457.4,370.138V479.175Z" fill="#161616"/>
              <path id="Tracé_151" data-name="Tracé 151" d="M1478.62,587.623a108.743,108.743,0,1,0,0-217.485V587.623Z" fill="#94c0d4"/>
              <path id="Tracé_152" data-name="Tracé 152" d="M1239.35,240.472a108.743,108.743,0,1,1,0,217.485V240.472Z" fill="#e6e6e6"/>
              <path id="Tracé_153" data-name="Tracé 153" d="M1369.59,239.882a108.73,108.73,0,1,0,217.46,0H1369.59Z" fill="#94c0d4"/>
              <path id="Tracé_154" data-name="Tracé 154" d="M1348.38,534.283a54.521,54.521,0,0,1-54.52,54.519h-54.51V479.764h54.51a54.52,54.52,0,0,1,54.52,54.519Z" fill="#f45b0f"/>
              <ellipse id="Ellipse_116" data-name="Ellipse 116" cx="43.315" cy="43.32" rx="43.315" ry="43.32" transform="translate(1478.615 1.179)" fill="#ffd726"/>
              <ellipse id="Ellipse_117" data-name="Ellipse 117" cx="43.315" cy="43.32" rx="43.315" ry="43.32" transform="translate(1239.355 131.434)" fill="#f45b0f"/>
              <ellipse id="Ellipse_118" data-name="Ellipse 118" cx="43.315" cy="43.32" rx="43.315" ry="43.32" transform="translate(1369.595 502.161)" fill="#ffd726"/>
              <path id="Tracé_155" data-name="Tracé 155" d="M608.773,370.138A109.028,109.028,0,0,1,499.748,479.175V370.138Z" fill="#ffd726"/>
              <path id="Tracé_156" data-name="Tracé 156" d="M957.065,500.982a54.069,54.069,0,0,1-38.339-15.968,54.6,54.6,0,0,1,17.59-88.919,53.959,53.959,0,0,1,20.749-4.15Z" fill="#161616"/>
              <path id="Tracé_157" data-name="Tracé 157" d="M717.8,109.037A54.074,54.074,0,0,1,679.46,93.07,54.6,54.6,0,0,1,697.05,4.15,53.972,53.972,0,0,1,717.8,0Z" fill="#f45b0f"/>
              <path id="Tracé_158" data-name="Tracé 158" d="M260.482,478.585a54.065,54.065,0,0,1,38.338,15.969,54.6,54.6,0,0,1-17.59,88.919,53.954,53.954,0,0,1-20.748,4.15Z" fill="#94c0d4"/>
              <path id="Tracé_159" data-name="Tracé 159" d="M478.532,587.623a108.743,108.743,0,1,1,0-217.485Z" fill="#94c0d4"/>
              <path id="Tracé_160" data-name="Tracé 160" d="M369.507,109.037H478.532V218.075A109.035,109.035,0,0,1,369.507,109.037Z" fill="#f45b0f"/>
              <path id="Tracé_161" data-name="Tracé 161" d="M499.748.589a108.743,108.743,0,1,1,0,217.486Z" fill="#ffd726"/>
              <path id="Tracé_162" data-name="Tracé 162" d="M739.6,587.623a108.731,108.731,0,1,1,217.462,0Z" fill="#048ecb"/>
              <path id="Tracé_163" data-name="Tracé 163" d="M1195.74,265.226a108.73,108.73,0,1,1-217.46,0Z" fill="#ffd726"/>
              <path id="Tracé_164" data-name="Tracé 164" d="M978.28,370.138a108.743,108.743,0,1,1,0,217.485Z" fill="#f45b0f"/>
              <path id="Tracé_165" data-name="Tracé 165" d="M869.844,239.293a108.733,108.733,0,1,1,217.466,0Z" fill="#048ecb"/>
              <path id="Tracé_166" data-name="Tracé 166" d="M957.065,0a109.287,109.287,0,0,1-8.277,41.726A109.074,109.074,0,0,1,925.217,77.1a108.712,108.712,0,0,1-35.274,23.637,108.446,108.446,0,0,1-83.218,0A108.712,108.712,0,0,1,771.451,77.1,109.074,109.074,0,0,1,747.88,41.726,109.286,109.286,0,0,1,739.6,0Z" fill="#ffd726"/>
              <path id="Tracé_167" data-name="Tracé 167" d="M717.8,347.741a108.743,108.743,0,1,1,0-217.486Z" fill="#94c0d4"/>
              <path id="Tracé_168" data-name="Tracé 168" d="M260.482,347.741V130.255a108.743,108.743,0,1,1,0,217.486Z" fill="#ffd726"/>
              <path id="Tracé_169" data-name="Tracé 169" d="M390.723,348.33a108.731,108.731,0,1,1,217.461,0Z" fill="#f45b0f"/>
              <path id="Tracé_170" data-name="Tracé 170" d="M848.039,370.138a108.731,108.731,0,1,1-217.461,0Z" fill="#f45b0f"/>
              <path id="Tracé_171" data-name="Tracé 171" d="M848.039,239.293H739.014V130.255A109.035,109.035,0,0,1,848.039,239.293Z" fill="#161616"/>
              <path id="Tracé_172" data-name="Tracé 172" d="M1217.55,0V109.037H1108.52A109.024,109.024,0,0,1,1217.55,0Z" fill="#161616"/>
              <path id="Tracé_173" data-name="Tracé 173" d="M848.039,261.1H957.065V370.138A109.035,109.035,0,0,1,848.039,261.1Z" fill="#f45b0f"/>
              <path id="Tracé_174" data-name="Tracé 174" d="M1108.52,478.585h109.03V587.623a109.038,109.038,0,0,1-109.03-109.038Z" fill="#e6e6e6"/>
              <path id="Tracé_175" data-name="Tracé 175" d="M663.286,478.585A54.516,54.516,0,0,1,717.8,533.1v54.519H608.773V533.1A54.516,54.516,0,0,1,663.286,478.585Z" fill="#e6e6e6"/>
              <path id="Tracé_176" data-name="Tracé 176" d="M369.507,54.519a54.516,54.516,0,0,1-54.513,54.518H260.482V0h54.512A54.516,54.516,0,0,1,369.507,54.519Z" fill="#048ecb"/>
              <path id="Tracé_177" data-name="Tracé 177" d="M978.28,54.519A54.518,54.518,0,0,1,1032.79,0h54.52V109.037h-54.52A54.517,54.517,0,0,1,978.28,54.519Z" fill="#048ecb"/>
              <path id="Tracé_178" data-name="Tracé 178" d="M1108.52,184.774a54.518,54.518,0,0,1,54.51-54.519h54.52V239.293h-54.52A54.518,54.518,0,0,1,1108.52,184.774Z" fill="#94c0d4"/>
              <path id="Tracé_179" data-name="Tracé 179" d="M543.063,500.982A43.32,43.32,0,1,1,499.748,544.3,43.318,43.318,0,0,1,543.063,500.982Z" fill="#f45b0f"/>
              <path id="Tracé_180" data-name="Tracé 180" d="M303.8,370.727a43.32,43.32,0,1,1-43.315,43.32A43.318,43.318,0,0,1,303.8,370.727Z" fill="#e6e6e6"/>
              <path id="Tracé_181" data-name="Tracé 181" d="M434.038,0a43.32,43.32,0,1,1-43.315,43.32A43.318,43.318,0,0,1,434.038,0Z" fill="#161616"/>
              <path id="Tracé_182" data-name="Tracé 182" d="M782.919,261.69A43.32,43.32,0,1,1,739.6,305.01,43.318,43.318,0,0,1,782.919,261.69Z" fill="#94c0d4"/>
              <path id="Tracé_183" data-name="Tracé 183" d="M1174.23,370.727a43.32,43.32,0,1,1-43.31,43.32A43.323,43.323,0,0,1,1174.23,370.727Z" fill="#ffd726"/>
              <path id="Tracé_184" data-name="Tracé 184" d="M348.291,982.515A109.028,109.028,0,0,1,239.266,1091.55V982.515Z" fill="#94c0d4"/>
              <path id="Tracé_185" data-name="Tracé 185" d="M696.583,1113.36a54.258,54.258,0,0,1-50.091-33.66,54.557,54.557,0,0,1,29.343-71.23,53.95,53.95,0,0,1,20.748-4.15Z" fill="#ffd726"/>
              <path id="Tracé_186" data-name="Tracé 186" d="M457.317,721.415a54.069,54.069,0,0,1-38.339-15.968,54.6,54.6,0,0,1,17.59-88.92,53.978,53.978,0,0,1,20.749-4.15Z" fill="#161616"/>
              <path id="Tracé_187" data-name="Tracé 187" d="M0,1090.96a53.955,53.955,0,0,1,20.748,4.15,54.248,54.248,0,0,1,17.59,11.82,54.466,54.466,0,0,1,11.753,17.69,54.745,54.745,0,0,1,4.127,20.86,54.745,54.745,0,0,1-4.127,20.86,54.468,54.468,0,0,1-11.753,17.69,54.249,54.249,0,0,1-17.59,11.82A53.955,53.955,0,0,1,0,1200Z" fill="#161616"/>
              <path id="Tracé_188" data-name="Tracé 188" d="M218.05,1200a108.743,108.743,0,1,1,0-217.485Z" fill="#ffd726"/>
              <path id="Tracé_189" data-name="Tracé 189" d="M109.025,720.825H218.05V829.862A109.034,109.034,0,0,1,109.025,720.825Z" fill="#f45b0f"/>
              <path id="Tracé_190" data-name="Tracé 190" d="M239.266,612.377a108.743,108.743,0,1,1,0,217.485Z" fill="#f45b0f"/>
              <path id="Tracé_191" data-name="Tracé 191" d="M479.122,1200a108.731,108.731,0,1,1,217.461,0Z" fill="#94c0d4"/>
              <path id="Tracé_192" data-name="Tracé 192" d="M935.259,878.193a108.731,108.731,0,1,1-217.461,0Z" fill="#ffd726"/>
              <path id="Tracé_193" data-name="Tracé 193" d="M717.8,982.515a108.743,108.743,0,1,1,0,217.485Z" fill="#048ecb"/>
              <path id="Tracé_194" data-name="Tracé 194" d="M609.362,851.67a108.731,108.731,0,1,1,217.462,0Z" fill="#f45b0f"/>
              <path id="Tracé_195" data-name="Tracé 195" d="M696.583,612.377a108.731,108.731,0,1,1-217.461,0Z" fill="#f45b0f"/>
              <path id="Tracé_196" data-name="Tracé 196" d="M457.317,960.707a108.743,108.743,0,1,1,0-217.485Z" fill="#94c0d4"/>
              <path id="Tracé_197" data-name="Tracé 197" d="M0,960.707V743.222A109.25,109.25,0,0,1,41.722,751.5a109.046,109.046,0,0,1,35.37,23.573,108.722,108.722,0,0,1,23.633,35.278,108.5,108.5,0,0,1,8.3,41.614,108.49,108.49,0,0,1-8.3,41.613,108.724,108.724,0,0,1-23.634,35.279,109.075,109.075,0,0,1-35.37,23.573A109.267,109.267,0,0,1,0,960.707Z" fill="#f45b0f"/>
              <path id="Tracé_198" data-name="Tracé 198" d="M130.241,960.707a108.731,108.731,0,1,1,217.461,0Z" fill="#048ecb"/>
              <path id="Tracé_199" data-name="Tracé 199" d="M587.557,982.515a108.731,108.731,0,1,1-217.461,0Z" fill="#f45b0f"/>
              <path id="Tracé_200" data-name="Tracé 200" d="M587.557,851.67H478.532V742.633A109.035,109.035,0,0,1,587.557,851.67Z" fill="#94c0d4"/>
              <path id="Tracé_201" data-name="Tracé 201" d="M957.065,612.377V721.415H848.039A109.029,109.029,0,0,1,957.065,612.377Z" fill="#161616"/>
              <path id="Tracé_202" data-name="Tracé 202" d="M587.557,873.477H696.583V982.515A109.035,109.035,0,0,1,587.557,873.477Z" fill="#ffd726"/>
              <path id="Tracé_203" data-name="Tracé 203" d="M848.039,1090.96H957.065V1200a109.034,109.034,0,0,1-109.026-109.04Z" fill="#f45b0f"/>
              <path id="Tracé_204" data-name="Tracé 204" d="M402.8,1090.96a54.517,54.517,0,0,1,54.513,54.52V1200H348.291v-54.52A54.517,54.517,0,0,1,402.8,1090.96Z" fill="#048ecb"/>
              <path id="Tracé_205" data-name="Tracé 205" d="M109.025,666.9a54.516,54.516,0,0,1-54.512,54.519H0V612.377H54.513A54.516,54.516,0,0,1,109.025,666.9Z" fill="#048ecb"/>
              <path id="Tracé_206" data-name="Tracé 206" d="M717.8,666.9a54.516,54.516,0,0,1,54.513-54.519h54.513V721.415H772.311A54.517,54.517,0,0,1,717.8,666.9Z" fill="#ffd726"/>
              <path id="Tracé_207" data-name="Tracé 207" d="M848.039,797.151a54.516,54.516,0,0,1,54.513-54.518h54.513V851.67H902.552A54.516,54.516,0,0,1,848.039,797.151Z" fill="#e6e6e6"/>
              <path id="Tracé_208" data-name="Tracé 208" d="M282.582,1113.36a43.32,43.32,0,1,1-43.316,43.32A43.314,43.314,0,0,1,282.582,1113.36Z" fill="#e6e6e6"/>
              <path id="Tracé_209" data-name="Tracé 209" d="M43.315,983.1A43.318,43.318,0,1,1,0,1026.42,43.317,43.317,0,0,1,43.315,983.1Z" fill="#048ecb"/>
              <path id="Tracé_210" data-name="Tracé 210" d="M173.556,612.377a43.32,43.32,0,1,1-43.315,43.32A43.318,43.318,0,0,1,173.556,612.377Z" fill="#161616"/>
              <path id="Tracé_211" data-name="Tracé 211" d="M522.437,874.067a43.32,43.32,0,1,1-43.315,43.32A43.318,43.318,0,0,1,522.437,874.067Z" fill="#161616"/>
              <path id="Tracé_212" data-name="Tracé 212" d="M913.749,983.1a43.318,43.318,0,1,1-43.315,43.316A43.318,43.318,0,0,1,913.749,983.1Z" fill="#161616"/>
              <path id="Tracé_213" data-name="Tracé 213" d="M1241.12,699.018a54.07,54.07,0,0,1,38.34,15.968,54.6,54.6,0,0,1-17.59,88.919,53.971,53.971,0,0,1-20.75,4.15Z" fill="#161616"/>
              <path id="Tracé_214" data-name="Tracé 214" d="M1480.97,1090.96a54.061,54.061,0,0,1,38.34,15.97,54.6,54.6,0,0,1-17.59,88.92,53.934,53.934,0,0,1-20.75,4.15Z" fill="#161616"/>
              <path id="Tracé_215" data-name="Tracé 215" d="M1458.58,612.377a108.73,108.73,0,1,1-217.46,0Z" fill="#94c0d4"/>
              <path id="Tracé_216" data-name="Tracé 216" d="M1002.44,934.774a108.73,108.73,0,1,1,217.46,0Z" fill="#94c0d4"/>
              <path id="Tracé_217" data-name="Tracé 217" d="M1219.9,829.862a108.743,108.743,0,1,1,0-217.485Z" fill="#048ecb"/>
              <path id="Tracé_218" data-name="Tracé 218" d="M1328.34,960.707a108.73,108.73,0,1,1-217.46,0Z" fill="#f45b0f"/>
              <path id="Tracé_219" data-name="Tracé 219" d="M1241.12,1200a108.73,108.73,0,1,1,217.46,0Z" fill="#ffd726"/>
              <path id="Tracé_220" data-name="Tracé 220" d="M1480.97,852.259a108.741,108.741,0,1,1,0,217.481Z" fill="#048ecb"/>
              <path id="Tracé_221" data-name="Tracé 221" d="M1350.14,829.862a108.735,108.735,0,1,1,217.47,0Z" fill="#f45b0f"/>
              <path id="Tracé_222" data-name="Tracé 222" d="M1350.73,960.707h109.03V1069.74a109.037,109.037,0,0,1-109.03-109.033Z" fill="#048ecb"/>
              <path id="Tracé_223" data-name="Tracé 223" d="M980.638,1200V1090.96H1089.66A109.024,109.024,0,0,1,980.638,1200Z" fill="#f45b0f"/>
              <path id="Tracé_224" data-name="Tracé 224" d="M1350.14,938.9H1241.12V829.862A109.008,109.008,0,0,1,1350.14,938.9Z" fill="#f45b0f"/>
              <path id="Tracé_225" data-name="Tracé 225" d="M1089.66,721.415H980.638V612.377A109.038,109.038,0,0,1,1089.66,721.415Z" fill="#e6e6e6"/>
              <path id="Tracé_226" data-name="Tracé 226" d="M1535.49,721.415a54.52,54.52,0,0,1-54.52-54.519V612.377H1590V666.9A54.518,54.518,0,0,1,1535.49,721.415Z" fill="#048ecb"/>
              <path id="Tracé_227" data-name="Tracé 227" d="M1219.9,1145.48a54.512,54.512,0,0,1-54.51,54.52h-54.51V1090.96h54.51A54.512,54.512,0,0,1,1219.9,1145.48Z" fill="#e6e6e6"/>
              <path id="Tracé_228" data-name="Tracé 228" d="M1089.66,1015.23a54.5,54.5,0,0,1-54.51,54.51H980.638V960.707h54.512A54.512,54.512,0,0,1,1089.66,1015.23Z" fill="#048ecb"/>
              <path id="Tracé_229" data-name="Tracé 229" d="M1415.85,938.31a43.32,43.32,0,1,1,43.32-43.32A43.315,43.315,0,0,1,1415.85,938.31Z" fill="#ffd726"/>
              <path id="Tracé_230" data-name="Tracé 230" d="M1023.95,829.273a43.32,43.32,0,1,1,43.32-43.32A43.316,43.316,0,0,1,1023.95,829.273Z" fill="#ffd726"/>
            </g>
          </g>
        </g>
      </g>
    </g>
  </g>
</svg>
