<svg xmlns="http://www.w3.org/2000/svg" width="73" height="73" viewBox="0 0 73 73">
  <path id="Shape" d="M62.709,73H10.293A10.3,10.3,0,0,1,0,62.709V10.293A10.3,10.3,0,0,1,10.293,0H62.707A10.3,10.3,0,0,1,73,10.293V62.707A10.3,10.3,0,0,1,62.709,73ZM36.819,41.1A16.466,16.466,0,0,0,20.371,57.547h32.9A16.467,16.467,0,0,0,36.819,41.1ZM24.8,29.868h0l4.213,4.213,3.225-3.226-4.214-4.214,4.214-4.213L29.011,19.2,24.8,23.417,20.584,19.2l-3.226,3.226,4.214,4.213-4.214,4.214,3.226,3.226L24.8,29.869Zm23.406,0h0l4.213,4.213,3.226-3.226L51.428,26.64l4.214-4.214L52.416,19.2,48.2,23.415,43.989,19.2l-3.226,3.225,4.214,4.214-4.214,4.214,3.226,3.226L48.2,29.867Z" fill="#e9effb"/>
</svg>
