<svg xmlns="http://www.w3.org/2000/svg" width="132.958" height="159.35" viewBox="0 0 132.958 159.35">
  <g id="Groupe_1479" data-name="Groupe 1479" transform="translate(-334.949 -78.167)">
    <g id="Groupe_1476" data-name="Groupe 1476">
      <g id="Groupe_1471" data-name="Groupe 1471">
        <g id="Groupe_1470" data-name="Groupe 1470">
          <path id="Tracé_4880" data-name="Tracé 4880" d="M415.781,202.467l-3.308-34.254s-3.837,4.109-8.882,5.06-9.887-2.257-9.948-2.3-4.073-3.7-4.073-3.7l-2.6,35.324a7.707,7.707,0,0,1-.107,1.141l28.986-.269A7,7,0,0,1,415.781,202.467Z" fill="#f8e6e9" stroke="#1e0a05" stroke-miterlimit="10" stroke-width="1.147"/>
        </g>
        <path id="Tracé_4881" data-name="Tracé 4881" d="M386.046,165.307s5.356,20.661,19.42,18.8c10.176-1.346,8.14-20.4,8.14-20.4Z" fill="#1e0a05"/>
      </g>
      <path id="Tracé_4882" data-name="Tracé 4882" d="M384.159,96.492s-8.75-2.357-15.969,8.948c-10.729,16.8,9.149,44.021,9.149,44.021Z" fill="#1e0a05"/>
      <path id="Tracé_4883" data-name="Tracé 4883" d="M417.974,96.492s7.733-2.357,14.952,8.948c10.73,16.8-8.132,44.021-8.132,44.021Z" fill="#1e0a05"/>
      <g id="Groupe_1472" data-name="Groupe 1472">
        <path id="Tracé_4884" data-name="Tracé 4884" d="M383.673,143.158a9.317,9.317,0,1,1-9.577-9.05A9.318,9.318,0,0,1,383.673,143.158Z" fill="#f8e6e9" stroke="#1e0a05" stroke-miterlimit="10" stroke-width="1.147"/>
      </g>
      <g id="Groupe_1473" data-name="Groupe 1473">
        <path id="Tracé_4885" data-name="Tracé 4885" d="M437.786,143.158a9.317,9.317,0,1,1-9.576-9.05A9.317,9.317,0,0,1,437.786,143.158Z" fill="#f8e6e9" stroke="#1e0a05" stroke-miterlimit="10" stroke-width="1.147"/>
      </g>
      <circle id="Ellipse_169" data-name="Ellipse 169" cx="33.249" cy="33.249" r="33.249" transform="translate(353.926 125.188) rotate(-45)" fill="#1e0a05"/>
      <g id="Groupe_1474" data-name="Groupe 1474">
        <path id="Tracé_4886" data-name="Tracé 4886" d="M429.488,128.819a118.714,118.714,0,0,1-3.165,27.633c-1.583,6.7-6.107,11.4-12.516,15.191l-1.167.692a23.037,23.037,0,0,1-22.492.351h0c-6.984-3.835-11.886-8.912-13.423-16.082a173.39,173.39,0,0,1-3.166-27.5S369.632,98.926,399.8,99.321,429.488,128.819,429.488,128.819Z" fill="#f8e6e9" stroke="#1e0a05" stroke-miterlimit="10" stroke-width="1.147"/>
      </g>
      <g id="Groupe_1475" data-name="Groupe 1475">
        <path id="Tracé_4887" data-name="Tracé 4887" d="M415.413,125.609s5.947.882,5.449,4.135c0,0-.107,3.384-5.538,2.482s-8.09-3.63-7.834-5.162C407.851,124.911,412.551,124.91,415.413,125.609Z" fill="#1e0a05"/>
        <path id="Tracé_4888" data-name="Tracé 4888" d="M385.554,125.609s-5.947.882-5.45,4.135c0,0,.107,3.384,5.538,2.482s8.09-3.63,7.834-5.162C393.115,124.911,388.415,124.91,385.554,125.609Z" fill="#1e0a05"/>
        <circle id="Ellipse_170" data-name="Ellipse 170" cx="2.441" cy="2.441" r="2.441" transform="translate(410.442 136.775)" fill="#1e0a05"/>
        <circle id="Ellipse_171" data-name="Ellipse 171" cx="2.441" cy="2.441" r="2.441" transform="translate(386.491 136.775)" fill="#1e0a05"/>
        <path id="Tracé_4889" data-name="Tracé 4889" d="M401.837,139.217l1.285,10.3h-3.213" fill="none" stroke="#000" stroke-linecap="round" stroke-linejoin="round" stroke-width="1.147"/>
        <path id="Tracé_4890" data-name="Tracé 4890" d="M391.884,154.36s2.738,1.414,8.761,1.414c6.969,0,9.366-1.414,9.366-1.414" fill="none" stroke="#000" stroke-linecap="round" stroke-linejoin="round" stroke-width="1.073"/>
        <line id="Ligne_95" data-name="Ligne 95" x2="4.149" transform="translate(399.425 160.043)" fill="none" stroke="#000" stroke-linecap="round" stroke-linejoin="round" stroke-width="1.073"/>
      </g>
      <path id="Tracé_4891" data-name="Tracé 4891" d="M383.247,103.62s-1.263,15.854-11.809,22.885C371.438,126.5,370.74,105.05,383.247,103.62Z" fill="#1e0a05"/>
      <path id="Tracé_4892" data-name="Tracé 4892" d="M441.857,90.922a175.1,175.1,0,0,1-18.206,1.967c2.857-4.829,1.573-8.027,1.573-8.027-5.668,4.748-19.048-.493-29.979.5-20.1,1.822-19.94,19.443-19.94,19.443l4.19-.482c1.341,4.637,6.629,15.59,26.533,14.133,19.743-1.445,20.916-2.375,34.672,2.094,0,0-.533-8.783-5.718-15.5C438.558,102.2,441.275,97.766,441.857,90.922Z" fill="#1e0a05"/>
    </g>
    <g id="Groupe_1478" data-name="Groupe 1478">
      <path id="Tracé_4893" data-name="Tracé 4893" d="M451.843,209.608l-36.259-11.23H387.272l-36.259,11.23s-15.49,5.467-15.49,27.335h131.81C467.333,215.075,451.843,209.608,451.843,209.608Z" fill="#f8e63a" stroke="#1e0a05" stroke-miterlimit="10" stroke-width="1.147"/>
      <g id="Groupe_1477" data-name="Groupe 1477">
        <path id="Tracé_4894" data-name="Tracé 4894" d="M387.865,198.2l-11.689,3.62.613.446a40.625,40.625,0,0,0,48.841-.772h0l-11.1-3.436" fill="#f8e6e9" stroke="#1e0a05" stroke-miterlimit="10" stroke-width="1.147"/>
        <path id="Tracé_4895" data-name="Tracé 4895" d="M387.925,197.4l-.442,5.179,7.99-.268,19.684-.357-.451-4.836Z" fill="#f8e6e9"/>
      </g>
    </g>
  </g>
</svg>
