<svg xmlns="http://www.w3.org/2000/svg" xmlns:xlink="http://www.w3.org/1999/xlink" width="522" height="402" viewBox="0 0 522 402">
  <defs>
    <linearGradient id="linear-gradient" x1="0.323" y1="0.017" x2="0.534" y2="1.008" gradientUnits="objectBoundingBox">
      <stop offset="0" stop-color="#ff7a46"/>
      <stop offset="1" stop-color="#ff5946"/>
    </linearGradient>
    <linearGradient id="linear-gradient-2" x1="0.094" y1="0.929" x2="-0.41" y2="0.722" gradientUnits="objectBoundingBox">
      <stop offset="0" stop-color="#ffcfcb"/>
      <stop offset="1" stop-color="#d77e8e"/>
    </linearGradient>
    <linearGradient id="linear-gradient-3" x1="1.619" y1="0.193" x2="0.83" y2="1.144" xlink:href="#linear-gradient"/>
    <linearGradient id="linear-gradient-4" x1="0.016" y1="0.325" x2="0.985" y2="0.706" gradientUnits="objectBoundingBox">
      <stop offset="0" stop-color="#0a0652"/>
      <stop offset="0.99" stop-color="#310477"/>
    </linearGradient>
    <linearGradient id="linear-gradient-5" x1="0" y1="0.696" x2="0.453" y2="0.407" xlink:href="#linear-gradient-2"/>
    <linearGradient id="linear-gradient-6" x1="-0.029" y1="0.02" x2="0.848" y2="0.929" xlink:href="#linear-gradient"/>
    <linearGradient id="linear-gradient-7" x1="0.966" y1="0.43" x2="0.015" y2="0.818" xlink:href="#linear-gradient-4"/>
    <linearGradient id="linear-gradient-8" x1="0.971" y1="0.868" x2="2.658" y2="-0.132" xlink:href="#linear-gradient-2"/>
    <linearGradient id="linear-gradient-9" x1="0.901" y1="0.51" x2="0.524" y2="0.893" xlink:href="#linear-gradient"/>
    <linearGradient id="linear-gradient-10" x1="0.428" y1="0.209" x2="0.306" y2="-0.655" xlink:href="#linear-gradient-2"/>
    <linearGradient id="linear-gradient-11" x1="0.391" y1="0.657" x2="0.452" y2="0.851" xlink:href="#linear-gradient"/>
    <linearGradient id="linear-gradient-12" x1="1.15" y1="1.295" x2="-1.261" y2="-0.857" xlink:href="#linear-gradient-2"/>
    <linearGradient id="linear-gradient-13" x1="0.869" y1="1.286" x2="-0.328" y2="1.616" xlink:href="#linear-gradient-2"/>
    <linearGradient id="linear-gradient-14" x1="0.059" y1="0.442" x2="1.075" y2="0.467" gradientUnits="objectBoundingBox">
      <stop offset="0" stop-color="#934de6"/>
      <stop offset="1" stop-color="#6229ce"/>
    </linearGradient>
    <linearGradient id="linear-gradient-15" x1="0.679" y1="0.193" x2="4.926" y2="1.804" xlink:href="#linear-gradient-14"/>
  </defs>
  <g id="Groupe_15844" data-name="Groupe 15844" transform="translate(-386 -72)">
    <text id="_404" data-name="404" transform="translate(386 386)" fill="#bad1ff" font-size="300" font-family="Roboto-Black, Roboto" font-weight="800"><tspan x="0" y="0">404</tspan></text>
    <g id="Characters_Woman-2" data-name="Characters / Woman-2" transform="translate(545 258)">
      <g id="Woman-2" transform="translate(0.225 0.198)">
        <path id="Body-2" d="M43.855.777c5.058,3.483,12.769,4.1,17.4,2.268,9.424-3.736,14.411,5.913,18.855,13.4,4.93,8.3,8.092,18.654,7.944,28.077-.438,28.843,4.316,30.456-5.837,53.733C79.13,105.342,78.024,119.365,73,118.5c-2.451-.422-4.9-1.279-7.344-1.04-2.128.209-3.989,1.222-5.982,1.86-8.119,2.592-16.393-1.276-24.513-2.565-9.067-1.441-18.143-2.818-27.186-4.418-2.047-.361-4.282-.81-5.681-2.049-6.484-5.738,2.539-14.384,5.395-19.325,3.5-6.075,10.388-16.318,13.093-22.613,7.239-16.875,14.657-32.43,2.07-46.737C19,17.231,26.278,9.1,31.747,5.7,35.611,3.3,39.846-1.98,43.855.777Z" transform="translate(50.114 64.341)" fill="url(#linear-gradient)"/>
        <g id="Leg-5" transform="translate(10.802 135.527)">
          <path id="Skin-5" d="M18.828,0l-14,7.685L0,20.021l19.846-9.588L18.828,0Z" transform="translate(22.819 42.286)" fill="url(#linear-gradient-2)"/>
          <g id="Shoe-3" transform="translate(0 37.561)">
            <path id="Path" d="M2.654,6.745A5.964,5.964,0,0,1,5.105,4.207c.607-.3,1.264-.449,1.888-.705A3.13,3.13,0,0,0,8.605,2.2a1.635,1.635,0,0,0,.223-.786A1.33,1.33,0,0,0,8.13.285,2.665,2.665,0,0,0,6.909.029a8.422,8.422,0,0,0-2.846.25A4.188,4.188,0,0,0,1.679,2.071,9.361,9.361,0,0,0,.732,5.162C.483,6.452.186,7.737.058,9.05a10.385,10.385,0,0,0,.067,2.7c.054.3.266,1.708.7,1.637.556-.091.654-2.983.752-3.5A10.979,10.979,0,0,1,2.654,6.745Z" transform="translate(23.281 10.123)" fill="#0a0652"/>
            <path id="Path-2" data-name="Path" d="M25,2.906c-.587-.412-1.4-.759-1.9-.192a2.33,2.33,0,0,0-.4,1.039C21.346,9.7,17.526,14.4,13.7,18.6S5.768,26.967,3.58,32.559a41.485,41.485,0,0,0-1.74,6.058c-.125.543-.212,1.225.152,1.579a.89.89,0,0,0,.448.219,9.355,9.355,0,0,1-1.585-.209,1.105,1.105,0,0,1-.6-.25c-.364-.354-.27-1.046-.138-1.6a43.137,43.137,0,0,1,1.8-6.163c2.259-5.694,5-10.942,8.881-15.235a24.162,24.162,0,0,0,3.78-5.4c1.295-2.575,1.972-5.6,3.19-8.242C18.217,2.343,18.9.544,19.862.1c1.167-.537,2.893,1.127,3.851,1.8.486.337.958.712,1.416,1.1Z" transform="translate(0 0)" fill="#0a0652"/>
            <path id="Path-3" data-name="Path" d="M30.511,9.082a8.708,8.708,0,0,0-4.262.861,8.284,8.284,0,0,0-3.325,4.539,25.222,25.222,0,0,0-1.042,4.975,11.453,11.453,0,0,1,1.767-.03,4.225,4.225,0,0,1,2.667.965,3.109,3.109,0,0,1,1.962,1.434,1.006,1.006,0,0,1,.067,1.033.877.877,0,0,1-.337.233,24.251,24.251,0,0,1-2.9,1.286c-.674.2-1.4.246-2.084.432-2.084.564-4.134,1.411-6.218,1.931a18.8,18.8,0,0,0-4.383,2.025c-2.445,1.634-4.3,4.249-6.1,6.8a6.649,6.649,0,0,1-2.5,2.464,5.124,5.124,0,0,1-2.964,0L.708,38A.89.89,0,0,1,.26,37.78C-.1,37.425-.016,36.743.108,36.2a41.486,41.486,0,0,1,1.74-6.058c2.2-5.592,6.3-9.764,10.115-13.956s7.657-8.886,9-14.85A2.33,2.33,0,0,1,21.367.3c.5-.567,1.312-.219,1.9.192l.118.088A22.8,22.8,0,0,1,30.511,9.082Z" transform="translate(1.712 2.42)" fill="url(#linear-gradient-3)"/>
            <path id="Path-4" data-name="Path" d="M.666,5.62a.482.482,0,0,1-.421-.257A2.483,2.483,0,0,1,.035,4.351a14.864,14.864,0,0,1,0-2.052A4.931,4.931,0,0,1,.646.233.472.472,0,0,1,1.3.068a.48.48,0,0,1,.165.651A4.006,4.006,0,0,0,.98,2.386,13.989,13.989,0,0,0,.98,4.3a1.8,1.8,0,0,0,.1.624.476.476,0,0,1-.2.641.458.458,0,0,1-.216.051Z" transform="translate(14.246 25.434)" fill="#ecf2fe"/>
            <path id="Path-5" data-name="Path" d="M.49,5.8a.472.472,0,0,1-.472-.466A12.482,12.482,0,0,1,.608.269a.475.475,0,0,1,.877.365A11.663,11.663,0,0,0,.965,5.3.476.476,0,0,1,.5,5.783Z" transform="translate(17.511 24.032)" fill="#ecf2fe"/>
            <path id="Path-6" data-name="Path" d="M.731,6.413a.476.476,0,0,1-.465-.391A13.33,13.33,0,0,1,0,3.129,6.806,6.806,0,0,1,.7.226a.475.475,0,0,1,.84.442A5.88,5.88,0,0,0,.95,3.159a12.391,12.391,0,0,0,.25,2.7.476.476,0,0,1-.381.553Z" transform="translate(21.441 21.62)" fill="#ecf2fe"/>
            <path id="Path-7" data-name="Path" d="M4.2,20.6c.03-.877-.155-2.427-1.15-2.45a1.173,1.173,0,0,0-.813.449c-.6.651-1.13,1.323-2.006,1.013C.125,19.577,0,19.5,0,19.357a.382.382,0,0,1,.115-.243c1.1-1.35,2.151-2.717,3.284-4.006,1.261-1.438,2.569-2.822,3.749-4.357a40.115,40.115,0,0,0,3.169-5.086,23.625,23.625,0,0,0,2.3-4.84,1.435,1.435,0,0,1,.32-.675c.337-.3.829-.091,1.146.115a12.28,12.28,0,0,1,3.035,3.162c.233.317.489.645.32,1.08a1.744,1.744,0,0,1-.789.813c-1.059.6-2.185,1.013-3.237,1.644a6.66,6.66,0,0,0-3.082,3.54,7.692,7.692,0,0,0,.091,4.286A12.833,12.833,0,0,0,11.6,17.967a1.013,1.013,0,0,1,.152.412.553.553,0,0,1-.4.557.674.674,0,0,1-.614-.219,2.5,2.5,0,0,1-.418-.6l-1.059-1.89c-.1-.186-.233-.392-.425-.422-.8-.118-1.012,1.8-1.012,2.39,0,.651.081,1.3.1,1.947a1.574,1.574,0,0,1-.04.472.442.442,0,0,1-.283.321.458.458,0,0,1-.384-.169A2.914,2.914,0,0,1,6.5,19.094c-.1-.7.1-1.633-.233-2.241-.5-.911-1.291,1.158-1.349,1.505-.121.9.034,1.809-.078,2.7a1.689,1.689,0,0,1-.162.6.428.428,0,0,1-.169.192.239.239,0,0,1-.29-.051C4.039,21.568,4.194,20.91,4.2,20.6Z" transform="translate(10.829 3.279)" fill="#ffb900"/>
          </g>
          <path id="Leg-6" d="M99.882,13.19q5.189-1.752,10.385-3.469C126.529,4.354,148.047-6.142,164,4.766a20.327,20.327,0,0,1,7.506,10.03c6.106,16.892-10.4,19.238-18.386,21.087-28.137,6.47-56.48,10.108-84.968,12.96-9.2.925-18.4,1.829-27.591,2.909-8.2.962-16.909,1.218-24.712,4.766-2.077.945-4.579,3.328-6.824,2.5-2.441-.9-4.552-6.288-6.288-8.68-2.987-4.124-3.83-10.6-1.012-15.5,2.734-4.752,5.951,3.9,10,2.136,7.708-3.355,13.329,4.094,20.618-.9,6.669-4.57,14-5.235,21.181-7.476C69.05,23.75,84.449,18.394,99.882,13.19Z" transform="translate(29.553 0)" fill="url(#linear-gradient-4)"/>
        </g>
        <g id="Leg-7" transform="translate(0 135.92)">
          <path id="Skin-6" d="M0,0,13.966,5.883,19.823,17.57.169,10.53,0,0Z" transform="translate(159.752 48.65)" fill="url(#linear-gradient-5)"/>
          <g id="Shoe-4" transform="translate(169.327 41.207)">
            <path id="Path-8" data-name="Path" d="M6.374,6.341A5.6,5.6,0,0,0,3.8,4.123c-.6-.226-1.234-.29-1.848-.466A2.876,2.876,0,0,1,.3,2.561,1.661,1.661,0,0,1,0,1.808,1.394,1.394,0,0,1,.537.6,2.494,2.494,0,0,1,1.657.185a7.478,7.478,0,0,1,2.7-.111A3.853,3.853,0,0,1,6.785,1.558a9.527,9.527,0,0,1,1.221,2.96c.374,1.255.789,2.5,1.045,3.79a10.912,10.912,0,0,1,.226,2.7c-.017.307-.064,1.738-.479,1.721-.533-.02-.931-2.889-1.082-3.4A11.183,11.183,0,0,0,6.374,6.341Z" transform="translate(0.103 11.213)" fill="#0a0652"/>
            <path id="Path-9" data-name="Path" d="M.111,3.518c.506-.483,1.231-.935,1.76-.435a2.363,2.363,0,0,1,.5.986C4.262,9.829,8.362,14.024,12.4,17.716s8.338,7.33,11.005,12.626A42.9,42.9,0,0,1,25.7,36.161c.175.527.337,1.195.027,1.593a.873.873,0,0,1-.4.277,8.568,8.568,0,0,0,1.463-.408,1.055,1.055,0,0,0,.539-.338c.3-.4.138-1.08-.044-1.617a44.322,44.322,0,0,0-2.36-5.913c-2.731-5.4-5.863-10.274-9.974-14.057a23.572,23.572,0,0,1-4.127-4.9c-1.49-2.406-2.451-5.329-3.878-7.81C6.42,2.073,5.577.365,4.633.051,3.48-.333,2.037,1.543,1.21,2.33c-.418.4-.819.834-1.21,1.279Z" transform="translate(5.742 0)" fill="#0a0652"/>
            <path id="Path-10" data-name="Path" d="M0,10.13a7.687,7.687,0,0,1,4.09.317,7.989,7.989,0,0,1,3.608,4.1,26.1,26.1,0,0,1,1.514,4.826,10.16,10.16,0,0,0-1.662.2,3.971,3.971,0,0,0-2.4,1.3,3.077,3.077,0,0,0-1.686,1.688A1.065,1.065,0,0,0,3.51,23.6a.782.782,0,0,0,.337.189,21.286,21.286,0,0,0,2.859.911c.674.118,1.349.071,2,.169,2.023.3,4.046.881,6.046,1.134a16.9,16.9,0,0,1,4.316,1.451c2.468,1.32,4.488,3.692,6.454,6.007a6.156,6.156,0,0,0,2.613,2.14,4.566,4.566,0,0,0,2.782-.381.964.964,0,0,0,.138-.051.873.873,0,0,0,.4-.277,1.858,1.858,0,0,0-.027-1.593,42.9,42.9,0,0,0-2.286-5.819c-2.667-5.3-6.959-8.934-11.005-12.626S9.994,6.964,8.1,1.2A2.363,2.363,0,0,0,7.6.218c-.529-.5-1.254-.047-1.76.435l-.1.1A23.44,23.44,0,0,0,0,10.13Z" transform="translate(0 2.875)" fill="url(#linear-gradient-6)"/>
            <path id="Path-11" data-name="Path" d="M1.353,5.581a.448.448,0,0,1-.158-.027.476.476,0,0,1-.287-.608A1.939,1.939,0,0,0,.941,4.3a14.34,14.34,0,0,0-.2-1.914A4.1,4.1,0,0,0,.109.779.476.476,0,1,1,.877.222,5.045,5.045,0,0,1,1.67,2.2a15.218,15.218,0,0,1,.216,2.025A2.662,2.662,0,0,1,1.8,5.284.475.475,0,0,1,1.353,5.581Z" transform="translate(16.939 24.714)" fill="#ecf2fe"/>
            <path id="Path-12" data-name="Path" d="M1.534,5.751a.476.476,0,0,1-.475-.435A12.272,12.272,0,0,0,.071.725.476.476,0,1,1,.91.283a12.979,12.979,0,0,1,1.1,4.951.476.476,0,0,1-.432.516Z" transform="translate(13.73 23.717)" fill="#ecf2fe"/>
            <path id="Path-13" data-name="Path" d="M1.449,6.395h-.03a.476.476,0,0,1-.445-.5,12.945,12.945,0,0,0-.057-2.72A6.015,6.015,0,0,0,.09.755a.476.476,0,1,1,.8-.513,6.974,6.974,0,0,1,.968,2.795,14.381,14.381,0,0,1,.064,2.913A.472.472,0,0,1,1.449,6.395Z" transform="translate(9.725 21.818)" fill="#ecf2fe"/>
            <path id="Path-14" data-name="Path" d="M14.247,19.4c-.121-.871-.115-2.44.816-2.589a1.041,1.041,0,0,1,.809.337c.637.57,1.2,1.174,2,.759a.314.314,0,0,0,.2-.284.392.392,0,0,0-.135-.226c-1.173-1.191-2.313-2.437-3.513-3.581-1.349-1.272-2.718-2.484-3.985-3.868A38.87,38.87,0,0,1,6.907,5.283,23.183,23.183,0,0,1,4.23.754,1.468,1.468,0,0,0,3.852.106c-.337-.256-.786,0-1.062.26A12.97,12.97,0,0,0,.268,3.906,1.155,1.155,0,0,0,.086,5.024a1.622,1.622,0,0,0,.826.709c1.059.469,2.161.729,3.217,1.228A6.31,6.31,0,0,1,7.4,10.1a8.174,8.174,0,0,1,.378,4.283A13.825,13.825,0,0,1,7.011,17.7a1.034,1.034,0,0,0-.094.429.536.536,0,0,0,.428.506.651.651,0,0,0,.556-.3,2.782,2.782,0,0,0,.337-.658l.792-2.025c.078-.2.175-.425.354-.476.742-.219,1.13,1.667,1.2,2.254.071.648.064,1.3.111,1.954a1.652,1.652,0,0,0,.088.466.425.425,0,0,0,.3.283.435.435,0,0,0,.337-.219,3.06,3.06,0,0,0,.5-1.748,7.43,7.43,0,0,1-.02-2.268c.368-.969,1.349.989,1.416,1.333.212.877.165,1.806.364,2.7a1.844,1.844,0,0,0,.216.58.432.432,0,0,0,.182.176.226.226,0,0,0,.266-.091C14.507,20.356,14.291,19.718,14.247,19.4Z" transform="translate(3.212 3.749)" fill="#ffb900"/>
          </g>
          <path id="Leg-8" d="M65.524,4.62C53.862,2.2,42.108-.365,30.424.043a52.452,52.452,0,0,0-17.28,3.348C8.71,5.112,3.329,7.036.976,13.084-.95,18.032.055,24.873,3.282,28.771a18.6,18.6,0,0,0,7.7,5.16c13.227,5.457,26.95,6.6,40.4,9.312a325.562,325.562,0,0,0,43.408,6.146c5.28.338,10.55.493,15.847,1.063,5.85.631,11.7,1.775,17.533,2.916l14.263,2.784c5.078.989,10.2,2,15.116,4.624,1.608.857,3.291,1.9,4.892,1.482,3.844-1.013,7.158-9.069,4.417-13.838s-7.5-3.712-11.393-5.535c-7.4-3.446-19.5-9.025-26.559-14.1-6.457-4.641-21.242-8.2-28.127-10.533C85.637,13.1,80.785,7.758,65.524,4.62Z" fill="url(#linear-gradient-7)"/>
        </g>
        <g id="Arm-5" transform="translate(15.239 37.68)">
          <path id="Skin-7" d="M0,24.246s3.561-4,3.861-6.986C4.95,6.459,6.986-.648,8.187.047S7.556,15.13,9.39,17.013c5.395,5.515,1.568,6,1.747,6.345s-9.761,8.289-9.761,8.289Z" transform="translate(51.877 0)" fill="url(#linear-gradient-8)"/>
          <path id="Arm-6" d="M51.075,0S8.223,43.426,3.7,49.211-.405,65.286.826,75.252s5.9,8.438,17.081,4.367S71.818,41.3,71.818,41.3L64.966,12.434,33.9,42.134l24.25-34.81Z" transform="translate(0 21.127)" fill="url(#linear-gradient-9)"/>
        </g>
        <g id="Arm-7" transform="translate(120.828 51.433)">
          <g id="Skin-8" transform="translate(61.76 79.491)">
            <path id="Path-15" data-name="Path" d="M1.123,5.984A36.109,36.109,0,0,1,7.628,9a17.8,17.8,0,0,0,4.488,2.244,29.1,29.1,0,0,1,4.026.9c.92.388,1.639,1.029,2.552,1.428a.846.846,0,0,0,.806.02c.263-.2.1-.543-.094-.766a9.531,9.531,0,0,0-4.066-2.7c.223-.25.674-.2,1.012-.1a18.771,18.771,0,0,1,4.461,1.826c2.084,1.191,3.864,2.788,6.278,3.51.243-.175.094-.483-.071-.675A58.075,58.075,0,0,0,19.574,7.53a12.59,12.59,0,0,0-3.051-2.116c-1.811-.8-4.006-.881-6.069-1.195a5.94,5.94,0,0,1-2.067-.608A14.939,14.939,0,0,1,6.852,2.369C5.935,1.694,4.637,1.333,4.02.452a1.042,1.042,0,0,0-.378-.4c-.388-.179-.887.118-1.2.412a6.98,6.98,0,0,0-2.4,5.785" transform="translate(0 0)" fill="url(#linear-gradient-10)"/>
          </g>
          <g id="Arm-8" transform="translate(0)">
            <path id="Path-16" data-name="Path" d="M53.969,83.744C42.424,80.868,31.6,75.809,23.66,68.492c-8.487-7.82-18-17.749-21.653-28.448C-.927,33.294-1.385,3.881,5.763,0c3.847,6.166,8.3,16.443,11.8,23.014,4.215,7.793,7.684,14.124,12.344,21.88A110.475,110.475,0,0,0,50.014,68.928,67.263,67.263,0,0,0,66.067,79.761c2.782,1.31-.448,3.854-3.432,4.938C59.144,85.968,56.535,84.382,53.969,83.744Z" transform="translate(0)" fill="url(#linear-gradient-11)"/>
          </g>
        </g>
        <g id="Hair-2" transform="translate(64.308 0)">
          <path id="Path-17" data-name="Path" d="M5.769,0l4.518,25.9L0,28.647,5.769,0Z" transform="translate(36.775 41.49)" fill="url(#linear-gradient-12)"/>
          <path id="Path-18" data-name="Path" d="M2.053,1.658C2.67.392,4.36.122,5.793.021a1.849,1.849,0,0,1,.84.068A1.633,1.633,0,0,1,7.4.983c1.224,2.633,1.012,5.67.657,8.542a4.953,4.953,0,0,1-.742,2.433A3.629,3.629,0,0,1,3.6,13.035,10.806,10.806,0,0,1,0,11.145" transform="translate(46.031 32.131)" fill="url(#linear-gradient-13)"/>
          <path id="Path-19" data-name="Path" d="M34.526,7.446c2.289,2.835,3.314,6.5,4.066,10.3a75.878,75.878,0,0,1,1.43,12.487,56.085,56.085,0,0,1-4.144,24.03,39.66,39.66,0,0,1-2.62,5.022c-1.72,2.784-4.552,5.258-6.454,4.961-5.688-.891-11.181-7.088-14.6-11.89C8.22,46.761,7.822,43.4,4.764,37.213,3.88,35.428,1.463,21.53.91,19.626-.26,15.576-.705,10.615,2.093,7.139A19.308,19.308,0,0,1,12.316.537c6.389-1.623,12.617.675,18.224,3.642A12.711,12.711,0,0,1,34.526,7.446Z" transform="translate(6.508 8.836)" fill="#ffcfcb"/>
          <path id="Path-20" data-name="Path" d="M3.814,9.879h-.03a9.709,9.709,0,0,1-1.662-.317A3.087,3.087,0,0,1,.833,8.92,3.254,3.254,0,0,1,.159,6.2l.2-3.281A4.381,4.381,0,0,0,.058.5.317.317,0,1,1,.6.182,4.833,4.833,0,0,1,.992,2.96l-.2,3.28a2.745,2.745,0,0,0,.479,2.217,2.538,2.538,0,0,0,1.028.5,9.16,9.16,0,0,0,1.554.294.318.318,0,0,1-.034.634Z" transform="translate(23.457 46.546)" fill="#d77e8e"/>
          <path id="Path-21" data-name="Path" d="M.727.507a.88.88,0,0,1,1.18-.3.831.831,0,0,1,.219,1.168,1.659,1.659,0,0,1-.479.381,1.483,1.483,0,0,1-1.086.311A.916.916,0,0,1,.168.676,1.9,1.9,0,0,1,1.692,0" transform="translate(28.782 39.815)" fill="#000614"/>
          <path id="Path-22" data-name="Path" d="M.323.076A2.7,2.7,0,0,1,1.6.076a.908.908,0,0,1,.674.948A.945.945,0,0,1,2,1.494a1.312,1.312,0,0,1-1.8.1A.891.891,0,0,1,.761.144" transform="translate(16.964 44.296)" fill="#000614"/>
          <path id="Path-23" data-name="Path" d="M.317,2.132A.283.283,0,0,1,.189,2.1.314.314,0,0,1,.027,1.69,3.1,3.1,0,0,1,3.1,0,8.836,8.836,0,0,1,6.706,1.146a.317.317,0,0,1,.138.425.337.337,0,0,1-.425.138A8.314,8.314,0,0,0,3.078.633,2.521,2.521,0,0,0,.607,1.96.314.314,0,0,1,.317,2.132Z" transform="translate(28.609 61.671)" fill="#d77e8e"/>
          <path id="Path-24" data-name="Path" d="M0,.368A5.845,5.845,0,0,0,3.665,0" transform="translate(38.326 19.502)" fill="none"/>
          <path id="Path-25" data-name="Path" d="M0,1.461,1.457,0" transform="translate(45.947 16.286)" fill="none"/>
          <path id="Path-26" data-name="Path" d="M2.375,1.647A6.034,6.034,0,0,0,.015,6.869,5.19,5.19,0,0,0,3.521,11.28a6.667,6.667,0,0,0,3.446,0A7.789,7.789,0,0,0,10.042,9.9a6.017,6.017,0,0,0,2.175-5.555C11.435-.678,5.861-1.015,2.375,1.647Z" transform="translate(31.211 44.392)" fill="#d77e8e" opacity="0.31"/>
          <path id="Path-27" data-name="Path" d="M3.8.593A2.448,2.448,0,0,0,1.1.276,2.733,2.733,0,0,0,.039,3.02,5.1,5.1,0,0,0,.808,4.907,5.159,5.159,0,0,0,2.069,6.331a2.392,2.392,0,0,0,2.805.155C6.776,5.109,5.677,1.994,3.8.593Z" transform="translate(15.285 52.436)" fill="#d77e8e" opacity="0.31"/>
          <path id="Path-28" data-name="Path" d="M2.212,1.315a3.076,3.076,0,0,1,2.175.176c.142.067.6.439.755.4s.148-.419.047-.415A2.519,2.519,0,0,0,2.8.049,2.541,2.541,0,0,0,.024,1.3a.311.311,0,0,0,0,.24.307.307,0,0,0,.293.118A10.689,10.689,0,0,0,2.212,1.315Z" transform="translate(27.378 35.825)" fill="#750114"/>
          <path id="Path-29" data-name="Path" d="M2,1.672A3.077,3.077,0,0,1,4.048.922c.158,0,.728.152.856.051s-.04-.442-.135-.4A2.506,2.506,0,0,0,2,.278a2.532,2.532,0,0,0-2,2.292.3.3,0,0,0,.088.219.307.307,0,0,0,.317,0A10.6,10.6,0,0,0,2,1.672Z" transform="translate(14.183 39.839)" fill="#750114"/>
          <path id="Path-30" data-name="Path" d="M3.113,25.665c-3.051-7.142-5.25-15.275.3-20.993C7.571.393,16.115.052,22.275,0A33.934,33.934,0,0,1,39.96,4.5a24.77,24.77,0,0,1,9.5,10.236c2.08,4.28,1.706,8.8,2.967,13.247,2.074,7.334,8.139,12.207,16.141,13.3,12.361,1.688,16.876,7.992,16.623,20.925A9.858,9.858,0,0,0,86.5,67.66c5.557,9.19,20.982,7.223,23.555,14.259,2.074,5.673-7.118,11.218-4.5,15.3,1.821,2.849,7.873,1.59,10.85,2.133a13.021,13.021,0,0,1,8.625,5.738c1.706,2.734,2.32,6.173,4.909,8.215,2.064,1.627,4.983,1.988,7.661,1.688a69.841,69.841,0,0,0,7.846-1.806c2.111-.489,4.771-.614,6.019,1.053,1.187,1.593.3,3.8.836,5.677a2.285,2.285,0,0,0,.674,1.137,2.875,2.875,0,0,0,3.23-.125c.968-.6,1.736-1.465,2.761-1.971s2.522-.5,3.129.425a2.256,2.256,0,0,1,.276,1.4,6.294,6.294,0,0,1-3.672,5.171c-3.837,1.769-8.352-.209-12.624-.547a1.132,1.132,0,0,0-.674.084c-.4.24-.3.824-.057,1.208.816,1.276,2.482,1.785,3.851,2.545a.928.928,0,0,1,.438.4c.138.338-.219.7-.556.9-3.948,2.443-9.357,1.114-13.426-1.174s-7.644-5.468-12.138-6.9c-4.363-1.4-9.158-.989-13.642,0-.985.216-2.151.645-2.276,1.583-.132.992,1.012,1.688,2.043,2.025,3.567,1.147,7.489,1.056,11.046,2.234,1.271.422,2.674,1.283,2.606,2.535a2.951,2.951,0,0,1-1.484,2.025,16.249,16.249,0,0,1-15.584,1.5c-7.293-3.257-10.452-10.9-15.294-16.453-.526-.6-1.308-1.256-2.077-.969a1.643,1.643,0,0,0-.782.753c-1.012,1.688-.971,3.783-1.935,5.5a1.555,1.555,0,0,1-1.089.894c-.715.078-1.231-.607-1.561-1.2-3.136-5.68-5.145-13.122-12.017-15.957-7.148-2.95-12.762,2.592-18.036-.442-5.786-3.324,1.349-15.076-4.586-20.091-2.539-2.143-5-.149-7.04-2.109-3.948-3.8,3.287-11.762,1.116-20.9-1.406-5.93-7.138-5.623-9.293-12.059-1.75-5.224,2.967-9.1.57-11.812-.674-.759-1.143-.675-6.744-2.086-2.829-.712-4.778-5.015-7.485-5.97-2.856-1.013-6.342,1.421-9.215.459C7.557,30.8,4.415,28.712,3.113,25.665Z" transform="translate(7.002 0)" fill="url(#linear-gradient-14)"/>
          <path id="Path-31" data-name="Path" d="M22.162,10.96c.216,1.141-5.732,2.656-8.942,2.531-1.9-.074-3.159,4.3-3.207,5.4-.121,2.673,2.084,6.919-.256,8.826a1.143,1.143,0,0,1-1.133.31c-.577-.28-.391-1.124-.236-1.745A4.944,4.944,0,0,0,7.181,21.75c-.937-.975-2.266-1.542-3.085-2.616-1.538-2.025-.759-4.958-1.635-7.337a30.807,30.807,0,0,0-1.9-3.375c-1.706-3.294.7-7.337,4.117-8.184a12.21,12.21,0,0,1,6.5.557,18.419,18.419,0,0,1,8.21,4.786A11.192,11.192,0,0,1,22.162,10.96Z" transform="translate(0 13.979)" fill="url(#linear-gradient-15)"/>
          <g id="Group" transform="translate(6.169 2.876)" opacity="0.35">
            <path id="Shape" d="M.245,4.888a.317.317,0,0,1-.236-.381C.43,2.738,1.04.973,2.618.045a.317.317,0,0,1,.435.111.338.338,0,0,1-.111.436C1.563,1.4,1.013,3.021.625,4.641a.317.317,0,0,1-.307.246l-.037,0ZM8.451,1.121c-.3-.152-.607-.3-.92-.435A.317.317,0,1,1,7.78.105c.337.138.644.293.958.449A.317.317,0,0,1,8.876.98a.31.31,0,0,1-.28.175h0A.312.312,0,0,1,8.451,1.121Z" transform="translate(18.565 0)" fill="#ba9aff"/>
            <path id="Shape-2" data-name="Shape" d="M32.259,21.062a.318.318,0,0,1,.226-.594,3.222,3.222,0,0,0,1.757.175.337.337,0,0,1,.371.25.314.314,0,0,1-.249.371,3.546,3.546,0,0,1-.684.067A4,4,0,0,1,32.259,21.062Zm-3.571-3.729c-.1-.169-.212-.337-.337-.506a13.748,13.748,0,0,0-2.94-3.189.318.318,0,0,1,.394-.5,14.568,14.568,0,0,1,3.082,3.321c.114.172.226.337.337.523a.317.317,0,0,1-.1.439.335.335,0,0,1-.169.061h0A.316.316,0,0,1,28.688,17.333Zm-7.593-6.085a17.12,17.12,0,0,0-1.77-.533c-.543-.128-1.1-.236-1.652-.337-.489-.094-.974-.189-1.457-.3A.318.318,0,0,1,15.98,9.7a.338.338,0,0,1,.378-.236c.472.108.954.2,1.433.294.567.108,1.133.216,1.686.337a15.874,15.874,0,0,1,1.841.557.314.314,0,0,1-.108.611l-.007.007A.3.3,0,0,1,21.095,11.248Zm-9.11-3.594h0Zm-.25-.128a14.779,14.779,0,0,1-1.366-2.433A16.418,16.418,0,0,0,9.29,3.067a.318.318,0,0,1,.088-.439.337.337,0,0,1,.438.088,17.092,17.092,0,0,1,1.126,2.1,13.972,13.972,0,0,0,1.3,2.329.317.317,0,0,1-.064.442.338.338,0,0,1-.191.071A.318.318,0,0,1,11.735,7.525ZM.315.941A.317.317,0,0,1,.271.31,21.071,21.071,0,0,1,5.4.08a.317.317,0,0,1-.081.628A20.654,20.654,0,0,0,.355.941Z" transform="translate(46.851 34.251)" fill="#ba9aff"/>
            <path id="Shape-3" data-name="Shape" d="M8.491,4.338a.317.317,0,0,1,.243-.378,6.383,6.383,0,0,0,2.633-1.208.317.317,0,0,1,.391.5,7.073,7.073,0,0,1-2.893,1.33L8.8,4.588A.314.314,0,0,1,8.491,4.338ZM3.855,4.011a.288.288,0,0,1-.128-.027A9.819,9.819,0,0,1,1.8,2.846,4.059,4.059,0,0,1,0,.373.317.317,0,0,1,.264,0a.313.313,0,0,1,.364.26A3.5,3.5,0,0,0,2.179,2.34a9.571,9.571,0,0,0,1.8,1.066.314.314,0,0,1-.119.6Z" transform="translate(73.461 64.273)" fill="#ba9aff"/>
            <path id="Shape-4" data-name="Shape" d="M9.442,6.2a5,5,0,0,1-.715-.226.317.317,0,0,1-.178-.412.337.337,0,0,1,.411-.179,5.1,5.1,0,0,0,.631.2,6.877,6.877,0,0,0,3.176-.155c.313-.074.627-.166.934-.263a.338.338,0,0,1,.4.206.318.318,0,0,1-.209.4c-.32.1-.648.2-.978.277a9.264,9.264,0,0,1-2.192.294h-.035A5.525,5.525,0,0,1,9.442,6.2ZM4.435,3.145A18.189,18.189,0,0,0,.18.6.317.317,0,0,1,.406.013a18.617,18.617,0,0,1,4.41,2.626.317.317,0,0,1-.189.57h0A.314.314,0,0,1,4.435,3.145Z" transform="translate(65.152 82.388)" fill="#ba9aff"/>
            <path id="Shape-5" data-name="Shape" d="M13.447,5.872a39.832,39.832,0,0,1-5.084-.385A.317.317,0,0,1,8.1,5.127a.31.31,0,0,1,.361-.267,39.066,39.066,0,0,0,5,.378.317.317,0,0,1,0,.635ZM3.4,4.158A7.341,7.341,0,0,1,1.349,2.95,3.609,3.609,0,0,1,0,.317a.317.317,0,1,1,.634,0A2.966,2.966,0,0,0,1.767,2.47a6.639,6.639,0,0,0,1.871,1.1.317.317,0,0,1-.121.611H3.511A.262.262,0,0,1,3.4,4.158Z" transform="translate(82.043 89.384)" fill="#ba9aff"/>
            <path id="Path-32" data-name="Path" d="M1.64,1.887a1.685,1.685,0,0,1-1.349-.57A1.577,1.577,0,0,1,0,.338.337.337,0,0,1,.318,0,.3.3,0,0,1,.635.294.993.993,0,0,0,.794.932a1.2,1.2,0,0,0,1.065.314l.226-.027a13.4,13.4,0,0,0,2.34-.4.318.318,0,0,1,.266.577,11.765,11.765,0,0,1-2.532.449l-.226.027A2.722,2.722,0,0,1,1.64,1.887Z" transform="translate(0 14.064)" fill="#ba9aff"/>
          </g>
          <g id="Group-2" data-name="Group" transform="translate(11.171 10.997)" opacity="0.31">
            <path id="Path-33" data-name="Path" d="M30.207,12.887H30.13a3.37,3.37,0,0,1-2.485-1.127,7.155,7.155,0,0,1-.708-1.039,3.256,3.256,0,0,0-1.2-1.387,3.1,3.1,0,0,0-1.824-.068,6.2,6.2,0,0,1-1.372.1,6.006,6.006,0,0,1-3.429-2,5.883,5.883,0,0,0-2.944-1.836,5.319,5.319,0,0,0-2.7.608c-.236.094-.472.192-.7.277-1.615.6-3.018.462-3.851-.378A4.315,4.315,0,0,1,7.981,3.2a8.627,8.627,0,0,0-.2-1.441C7.654,1.284,7.333.7,6.848.636a1.624,1.624,0,0,0-.711.145A10.009,10.009,0,0,0,3.459,2.742C2.185,3.9,1.079,4.889.148,4.389a.317.317,0,0,1,.293-.56C1,4.122,2.03,3.181,3.034,2.273A10.19,10.19,0,0,1,5.917.187,2.1,2.1,0,0,1,6.929,0a1.983,1.983,0,0,1,1.46,1.6,9.236,9.236,0,0,1,.219,1.542,3.792,3.792,0,0,0,.755,2.447c.927.935,2.536.472,3.183.233.226-.084.459-.175.674-.27a5.9,5.9,0,0,1,3.014-.648,6.418,6.418,0,0,1,3.291,2A5.527,5.527,0,0,0,22.56,8.739a5.575,5.575,0,0,0,1.231-.1,3.535,3.535,0,0,1,2.2.128,3.724,3.724,0,0,1,1.46,1.63,6.467,6.467,0,0,0,.641.948,2.737,2.737,0,0,0,2.023.908,2.618,2.618,0,0,0,1.935-.756.317.317,0,1,1,.462.435A3.2,3.2,0,0,1,30.207,12.887Z" transform="translate(16.305 10.906)" fill="#6229ce"/>
            <path id="Path-34" data-name="Path" d="M.319,9.272a.337.337,0,0,1-.131-.027.317.317,0,0,1-.158-.422A17.908,17.908,0,0,1,3.337,3.5,10.1,10.1,0,0,1,9.861.018c2.748-.2,5.24,1.35,5.732,3.527.057.263.091.537.125.813a2.415,2.415,0,0,0,.637,1.7c.738.577,2.04.155,2.569-.054l.6-.253a6.149,6.149,0,0,1,2.4-.675h.037a5.222,5.222,0,0,1,3.119,1.492l.337.257c.674.537,2.023,1.35,3.2.823a.317.317,0,0,1,.26.577c-1.487.675-3.051-.28-3.851-.9l-.337-.263a4.629,4.629,0,0,0-2.734-1.35h-.03a5.642,5.642,0,0,0-2.155.618c-.2.091-.408.179-.614.26-.782.31-2.235.719-3.193-.034a2.944,2.944,0,0,1-.873-2.126,6.861,6.861,0,0,0-.118-.753C14.554,1.8,12.343.48,9.915.642a9.466,9.466,0,0,0-6.1,3.274A17.345,17.345,0,0,0,.612,9.08a.337.337,0,0,1-.293.192Z" transform="translate(13.41 4.656)" fill="#6229ce"/>
            <path id="Path-35" data-name="Path" d="M8.759,10.829a.317.317,0,0,1-.314-.29,12.848,12.848,0,0,0-.674-3.686,4.386,4.386,0,0,0-2.391-2.6,8.086,8.086,0,0,0-1.787-.412,8.9,8.9,0,0,1-1.888-.432A2.743,2.743,0,0,1,.05,1.612,1.631,1.631,0,0,1,.434.1.315.315,0,1,1,.9.529a.99.99,0,0,0-.233.938,2.112,2.112,0,0,0,1.268,1.35,8.466,8.466,0,0,0,1.757.4,8.78,8.78,0,0,1,1.922.445A5.061,5.061,0,0,1,8.365,6.624a13.839,13.839,0,0,1,.7,3.858.314.314,0,0,1-.287.337Z" transform="translate(0 5.016)" fill="#6229ce"/>
            <path id="Path-36" data-name="Path" d="M.314,15.845H.27A.314.314,0,0,1,0,15.487a2.538,2.538,0,0,1,.88-1.5c.762-.776,1.709-1.741.789-5.92a8.834,8.834,0,0,0-.641-1.721,7.184,7.184,0,0,1-.765-2.47A3.692,3.692,0,0,1,2.964.006a.314.314,0,0,1,.371.25.317.317,0,0,1-.25.371A3.09,3.09,0,0,0,.9,3.844a6.559,6.559,0,0,0,.715,2.251,9.456,9.456,0,0,1,.674,1.839c1.012,4.516-.084,5.616-.954,6.5a2.006,2.006,0,0,0-.708,1.141A.314.314,0,0,1,.314,15.845Z" transform="translate(8.445 0)" fill="#6229ce"/>
            <path id="Path-37" data-name="Path" d="M15.166,28.791a.313.313,0,0,1-.253-.128,25.5,25.5,0,0,0-5.54-5c-.637-.472-1.275-.942-1.892-1.428-3.466-2.7-5.294-5.336-5.6-8A12.352,12.352,0,0,1,2.65,9.257l.03-.1a10.476,10.476,0,0,0,.634-4.826A4.679,4.679,0,0,0,.239.62.317.317,0,0,1,.01.235.337.337,0,0,1,.394.006,5.263,5.263,0,0,1,3.938,4.215a11.113,11.113,0,0,1-.654,5.117l-.027.1a11.834,11.834,0,0,0-.749,4.725c.283,2.454,2.087,5,5.361,7.574.617.483,1.248.952,1.881,1.417a26.1,26.1,0,0,1,5.671,5.13.317.317,0,0,1-.256.506Z" transform="translate(40.967 32.795)" fill="#6229ce"/>
            <path id="Path-38" data-name="Path" d="M4.6,3.249A4.841,4.841,0,0,1,.015.427.338.338,0,0,1,.2.019a.317.317,0,0,1,.4.189c.715,1.917,3.372,2.936,5.54,2.14a.317.317,0,0,1,.216.594A5.154,5.154,0,0,1,4.6,3.249Z" transform="translate(90.563 93.715)" fill="#6229ce"/>
          </g>
        </g>
      </g>
    </g>
  </g>
</svg>
