<svg xmlns="http://www.w3.org/2000/svg" xmlns:xlink="http://www.w3.org/1999/xlink" width="1366" height="768" viewBox="0 0 1366 768">
  <defs>
    <clipPath id="clip-SIGN_UP_AS_A_COMPANY_5">
      <rect width="1366" height="768"/>
    </clipPath>
  </defs>
  <g id="SIGN_UP_AS_A_COMPANY_5" data-name="SIGN UP AS A COMPANY – 5" clip-path="url(#clip-SIGN_UP_AS_A_COMPANY_5)">
    <rect width="1366" height="768" fill="#f3f7fc"/>
    <path id="Rectangle_435" data-name="Rectangle 435" d="M0,0H579a50,50,0,0,1,50,50V718a50,50,0,0,1-50,50H0a0,0,0,0,1,0,0V0A0,0,0,0,1,0,0Z" fill="#0026bc"/>
    <g id="Patterns" transform="translate(-278 3)" opacity="0.05" style="mix-blend-mode: color;isolation: isolate">
      <g id="Inn" transform="translate(0 0)">
        <g id="Shape">
          <path id="Tracé_140" data-name="Tracé 140" d="M141.858,285.078A70.9,70.9,0,0,0,5.4,257.859,71.291,71.291,0,0,0,0,285.078H141.858Z" transform="translate(0 -74.382)" fill="#94c0d4"/>
          <path id="Tracé_141" data-name="Tracé 141" d="M0,142.464a71.278,71.278,0,0,0,27.217-5.4A71.147,71.147,0,0,0,50.29,121.687,70.933,70.933,0,0,0,65.707,98.673a70.767,70.767,0,0,0,0-54.293A70.927,70.927,0,0,0,50.29,21.366,71.137,71.137,0,0,0,27.217,5.989,71.28,71.28,0,0,0,0,.589V142.464Z" transform="translate(0 -0.205)" fill="#f45b0f"/>
          <path id="Tracé_142" data-name="Tracé 142" d="M201.362,550.894a71.128,71.128,0,0,1-71.121-71.13h71.121Z" transform="translate(-45.28 -166.796)" fill="#161616"/>
          <path id="Tracé_143" data-name="Tracé 143" d="M0,348.33a71.108,71.108,0,0,1,27.217,5.414A71.13,71.13,0,0,1,50.29,369.164,71.139,71.139,0,0,1,65.707,392.24a71.122,71.122,0,0,1,5.414,27.219H0Z" transform="translate(0 -121.101)" fill="#f45b0f"/>
          <path id="Tracé_144" data-name="Tracé 144" d="M130.241,72.308A71.123,71.123,0,0,1,201.362,1.179V72.308Z" transform="translate(-45.28 -0.41)" fill="#ffd726"/>
          <path id="Tracé_145" data-name="Tracé 145" d="M0,515.329a35.563,35.563,0,0,1,35.561-35.565H71.121v71.13H35.561A35.563,35.563,0,0,1,0,515.329Z" transform="translate(0 -166.796)" fill="#ffd726"/>
          <path id="Tracé_146" data-name="Tracé 146" d="M130.241,384.484A35.563,35.563,0,0,0,165.8,420.049h35.56v-71.13H165.8a35.563,35.563,0,0,0-35.561,35.565Z" transform="translate(-45.28 -121.306)" fill="#048ecb"/>
          <ellipse id="Ellipse_115" data-name="Ellipse 115" cx="28.256" cy="28.259" rx="28.256" ry="28.259" transform="translate(99.57 85.739)" fill="#ffd726"/>
          <path id="Tracé_147" data-name="Tracé 147" d="M1549.738,180.167a71.121,71.121,0,0,0-71.118-71.13v71.13Z" transform="translate(-514.06 -37.908)" fill="#94c0d4"/>
          <path id="Tracé_148" data-name="Tracé 148" d="M1239.35,72.308a35.272,35.272,0,0,0,25.011-10.417,35.618,35.618,0,0,0-11.475-58.005,35.209,35.209,0,0,0-13.536-2.707V72.308Z" transform="translate(-430.875 -0.41)" fill="#94c0d4"/>
          <path id="Tracé_149" data-name="Tracé 149" d="M1419.5.589a70.937,70.937,0,1,0,0,141.874V.589Z" transform="translate(-468.781 -0.205)" fill="#f45b0f"/>
          <path id="Tracé_150" data-name="Tracé 150" d="M1348.38,441.267a71.119,71.119,0,0,1,71.118-71.129v71.129Z" transform="translate(-468.781 -128.683)" fill="#161616"/>
          <path id="Tracé_151" data-name="Tracé 151" d="M1478.62,512.012a70.937,70.937,0,1,0,0-141.874V512.012Z" transform="translate(-514.06 -128.683)" fill="#94c0d4"/>
          <path id="Tracé_152" data-name="Tracé 152" d="M1239.35,240.472a70.937,70.937,0,1,1,0,141.874V240.472Z" transform="translate(-430.875 -83.603)" fill="#e6e6e6"/>
          <path id="Tracé_153" data-name="Tracé 153" d="M1369.59,239.882a70.929,70.929,0,1,0,141.857,0H1369.59Z" transform="translate(-476.154 -83.398)" fill="#94c0d4"/>
          <path id="Tracé_154" data-name="Tracé 154" d="M1310.474,515.329a35.566,35.566,0,0,1-35.565,35.565H1239.35v-71.13h35.559a35.565,35.565,0,0,1,35.565,35.565Z" transform="translate(-430.875 -166.796)" fill="#f45b0f"/>
          <ellipse id="Ellipse_116" data-name="Ellipse 116" cx="28.256" cy="28.259" rx="28.256" ry="28.259" transform="translate(964.556 0.769)" fill="#ffd726"/>
          <ellipse id="Ellipse_117" data-name="Ellipse 117" cx="28.256" cy="28.259" rx="28.256" ry="28.259" transform="translate(808.478 85.739)" fill="#f45b0f"/>
          <ellipse id="Ellipse_118" data-name="Ellipse 118" cx="28.256" cy="28.259" rx="28.256" ry="28.259" transform="translate(893.439 327.579)" fill="#ffd726"/>
          <path id="Tracé_155" data-name="Tracé 155" d="M570.869,370.138a71.123,71.123,0,0,1-71.121,71.129V370.138Z" transform="translate(-173.743 -128.683)" fill="#ffd726"/>
          <path id="Tracé_156" data-name="Tracé 156" d="M938.215,463.074a35.271,35.271,0,0,1-25.01-10.417,35.618,35.618,0,0,1,11.475-58.005,35.2,35.2,0,0,1,13.535-2.707Z" transform="translate(-313.886 -136.264)" fill="#161616"/>
          <path id="Tracé_157" data-name="Tracé 157" d="M698.948,71.129a35.274,35.274,0,0,1-25.009-10.416A35.618,35.618,0,0,1,685.414,2.707,35.208,35.208,0,0,1,698.948,0Z" transform="translate(-230.702 0)" fill="#f45b0f"/>
          <path id="Tracé_158" data-name="Tracé 158" d="M260.482,478.585A35.269,35.269,0,0,1,285.491,489a35.618,35.618,0,0,1-11.475,58.005,35.2,35.2,0,0,1-13.535,2.707Z" transform="translate(-90.56 -166.386)" fill="#94c0d4"/>
          <path id="Tracé_159" data-name="Tracé 159" d="M440.628,512.012a70.937,70.937,0,1,1,0-141.874Z" transform="translate(-128.464 -128.683)" fill="#94c0d4"/>
          <path id="Tracé_160" data-name="Tracé 160" d="M369.507,109.037h71.121v71.13a71.128,71.128,0,0,1-71.121-71.13Z" transform="translate(-128.464 -37.908)" fill="#f45b0f"/>
          <path id="Tracé_161" data-name="Tracé 161" d="M499.748.589a70.937,70.937,0,1,1,0,141.874Z" transform="translate(-173.743 -0.205)" fill="#ffd726"/>
          <path id="Tracé_162" data-name="Tracé 162" d="M739.6,549.715a70.929,70.929,0,1,1,141.859,0Z" transform="translate(-257.132 -166.386)" fill="#048ecb"/>
          <path id="Tracé_163" data-name="Tracé 163" d="M1120.137,265.226a70.929,70.929,0,1,1-141.857,0Z" transform="translate(-340.111 -92.209)" fill="#ffd726"/>
          <path id="Tracé_164" data-name="Tracé 164" d="M978.28,370.138a70.937,70.937,0,1,1,0,141.874Z" transform="translate(-340.111 -128.683)" fill="#f45b0f"/>
          <path id="Tracé_165" data-name="Tracé 165" d="M869.844,201.385a70.931,70.931,0,1,1,141.861,0Z" transform="translate(-302.412 -45.285)" fill="#048ecb"/>
          <path id="Tracé_166" data-name="Tracé 166" d="M881.462,0a71.292,71.292,0,0,1-5.4,27.22A71.153,71.153,0,0,1,860.686,50.3a70.917,70.917,0,0,1-23.011,15.419,70.743,70.743,0,0,1-54.286,0A70.917,70.917,0,0,1,760.379,50.3,71.151,71.151,0,0,1,745,27.22,71.291,71.291,0,0,1,739.6,0Z" transform="translate(-257.132 0)" fill="#ffd726"/>
          <path id="Tracé_167" data-name="Tracé 167" d="M679.894,272.129a70.937,70.937,0,1,1,0-141.874Z" transform="translate(-211.647 -45.285)" fill="#94c0d4"/>
          <path id="Tracé_168" data-name="Tracé 168" d="M260.482,272.129V130.255a70.937,70.937,0,1,1,0,141.874Z" transform="translate(-90.56 -45.285)" fill="#ffd726"/>
          <path id="Tracé_169" data-name="Tracé 169" d="M390.723,310.422a70.929,70.929,0,1,1,141.858,0Z" transform="translate(-135.84 -83.193)" fill="#f45b0f"/>
          <path id="Tracé_170" data-name="Tracé 170" d="M772.436,370.138a70.929,70.929,0,1,1-141.858,0Z" transform="translate(-219.228 -128.683)" fill="#f45b0f"/>
          <path id="Tracé_171" data-name="Tracé 171" d="M810.135,201.385H739.014v-71.13a71.128,71.128,0,0,1,71.121,71.13Z" transform="translate(-256.927 -45.285)" fill="#161616"/>
          <path id="Tracé_172" data-name="Tracé 172" d="M1179.645,0V71.129H1108.52A71.12,71.12,0,0,1,1179.645,0Z" transform="translate(-385.39 0)" fill="#161616"/>
          <path id="Tracé_173" data-name="Tracé 173" d="M848.039,261.1h71.122v71.13a71.128,71.128,0,0,1-71.122-71.13Z" transform="translate(-294.831 -90.775)" fill="#f45b0f"/>
          <path id="Tracé_174" data-name="Tracé 174" d="M1108.52,478.585h71.125v71.13a71.13,71.13,0,0,1-71.125-71.13Z" transform="translate(-385.39 -166.386)" fill="#e6e6e6"/>
          <path id="Tracé_175" data-name="Tracé 175" d="M644.334,478.585a35.563,35.563,0,0,1,35.56,35.565v35.565H608.773V514.15A35.563,35.563,0,0,1,644.334,478.585Z" transform="translate(-211.647 -166.386)" fill="#e6e6e6"/>
          <path id="Tracé_176" data-name="Tracé 176" d="M331.6,35.565a35.563,35.563,0,0,1-35.561,35.564h-35.56V0h35.56A35.563,35.563,0,0,1,331.6,35.565Z" transform="translate(-90.56 0)" fill="#048ecb"/>
          <path id="Tracé_177" data-name="Tracé 177" d="M978.28,35.565A35.564,35.564,0,0,1,1013.839,0H1049.4V71.129h-35.566A35.564,35.564,0,0,1,978.28,35.565Z" transform="translate(-340.111 0)" fill="#048ecb"/>
          <path id="Tracé_178" data-name="Tracé 178" d="M1108.52,165.82a35.564,35.564,0,0,1,35.559-35.565h35.566v71.13h-35.566A35.564,35.564,0,0,1,1108.52,165.82Z" transform="translate(-385.39 -45.285)" fill="#94c0d4"/>
          <path id="Tracé_179" data-name="Tracé 179" d="M528,500.982a28.26,28.26,0,1,1-28.256,28.26A28.258,28.258,0,0,1,528,500.982Z" transform="translate(-173.743 -174.172)" fill="#f45b0f"/>
          <path id="Tracé_180" data-name="Tracé 180" d="M288.738,370.727a28.259,28.259,0,1,1-28.256,28.259A28.258,28.258,0,0,1,288.738,370.727Z" transform="translate(-90.56 -128.888)" fill="#e6e6e6"/>
          <path id="Tracé_181" data-name="Tracé 181" d="M418.979,0a28.259,28.259,0,1,1-28.256,28.259A28.258,28.258,0,0,1,418.979,0Z" transform="translate(-135.84 0)" fill="#161616"/>
          <path id="Tracé_182" data-name="Tracé 182" d="M767.86,261.69A28.259,28.259,0,1,1,739.6,289.949,28.258,28.258,0,0,1,767.86,261.69Z" transform="translate(-257.132 -90.98)" fill="#94c0d4"/>
          <path id="Tracé_183" data-name="Tracé 183" d="M1159.173,370.727a28.259,28.259,0,1,1-28.253,28.259A28.261,28.261,0,0,1,1159.173,370.727Z" transform="translate(-393.178 -128.888)" fill="#ffd726"/>
          <path id="Tracé_184" data-name="Tracé 184" d="M310.387,982.515a71.124,71.124,0,0,1-71.121,71.128V982.515Z" transform="translate(-83.184 -341.583)" fill="#94c0d4"/>
          <path id="Tracé_185" data-name="Tracé 185" d="M677.733,1075.451a35.394,35.394,0,0,1-32.676-21.958,35.59,35.59,0,0,1,19.141-46.466,35.194,35.194,0,0,1,13.535-2.707Z" transform="translate(-223.326 -349.164)" fill="#ffd726"/>
          <path id="Tracé_186" data-name="Tracé 186" d="M438.467,683.507a35.272,35.272,0,0,1-25.01-10.417,35.618,35.618,0,0,1,11.475-58.006,35.211,35.211,0,0,1,13.535-2.707Z" transform="translate(-140.142 -212.9)" fill="#161616"/>
          <path id="Tracé_187" data-name="Tracé 187" d="M0,1090.96a35.2,35.2,0,0,1,13.535,2.707,35.387,35.387,0,0,1,11.474,7.711,35.53,35.53,0,0,1,7.667,11.54,35.712,35.712,0,0,1,2.692,13.608,35.712,35.712,0,0,1-2.692,13.608,35.532,35.532,0,0,1-7.667,11.54,35.388,35.388,0,0,1-11.474,7.711A35.2,35.2,0,0,1,0,1162.091Z" transform="translate(0 -379.285)" fill="#161616"/>
          <path id="Tracé_188" data-name="Tracé 188" d="M180.146,1124.389a70.937,70.937,0,1,1,0-141.874Z" transform="translate(-37.904 -341.583)" fill="#ffd726"/>
          <path id="Tracé_189" data-name="Tracé 189" d="M109.025,720.825h71.121v71.129a71.127,71.127,0,0,1-71.121-71.129Z" transform="translate(-37.904 -250.604)" fill="#f45b0f"/>
          <path id="Tracé_190" data-name="Tracé 190" d="M239.266,612.377a70.937,70.937,0,1,1,0,141.874Z" transform="translate(-83.184 -212.9)" fill="#f45b0f"/>
          <path id="Tracé_191" data-name="Tracé 191" d="M479.122,1162.091a70.929,70.929,0,1,1,141.858,0Z" transform="translate(-166.573 -379.285)" fill="#94c0d4"/>
          <path id="Tracé_192" data-name="Tracé 192" d="M859.656,878.193a70.929,70.929,0,1,1-141.858,0Z" transform="translate(-249.551 -305.314)" fill="#ffd726"/>
          <path id="Tracé_193" data-name="Tracé 193" d="M717.8,982.515a70.937,70.937,0,1,1,0,141.874Z" transform="translate(-249.551 -341.583)" fill="#048ecb"/>
          <path id="Tracé_194" data-name="Tracé 194" d="M609.362,813.762a70.929,70.929,0,1,1,141.859,0Z" transform="translate(-211.852 -258.185)" fill="#f45b0f"/>
          <path id="Tracé_195" data-name="Tracé 195" d="M620.98,612.377a70.929,70.929,0,1,1-141.858,0Z" transform="translate(-166.573 -212.9)" fill="#f45b0f"/>
          <path id="Tracé_196" data-name="Tracé 196" d="M419.413,885.1a70.937,70.937,0,1,1,0-141.874Z" transform="translate(-121.088 -258.39)" fill="#94c0d4"/>
          <path id="Tracé_197" data-name="Tracé 197" d="M0,885.1V743.222a71.268,71.268,0,0,1,27.217,5.4A71.135,71.135,0,0,1,50.29,764a70.923,70.923,0,0,1,15.417,23.013,70.778,70.778,0,0,1,5.414,27.146A70.772,70.772,0,0,1,65.707,841.3,70.925,70.925,0,0,1,50.29,864.319,71.155,71.155,0,0,1,27.217,879.7,71.28,71.28,0,0,1,0,885.1Z" transform="translate(0 -258.39)" fill="#f45b0f"/>
          <path id="Tracé_198" data-name="Tracé 198" d="M130.241,922.8a70.929,70.929,0,1,1,141.858,0Z" transform="translate(-45.28 -296.093)" fill="#048ecb"/>
          <path id="Tracé_199" data-name="Tracé 199" d="M511.954,982.515a70.929,70.929,0,1,1-141.858,0Z" transform="translate(-128.668 -341.583)" fill="#f45b0f"/>
          <path id="Tracé_200" data-name="Tracé 200" d="M549.653,813.762H478.532V742.633a71.128,71.128,0,0,1,71.121,71.129Z" transform="translate(-166.367 -258.185)" fill="#94c0d4"/>
          <path id="Tracé_201" data-name="Tracé 201" d="M919.161,612.377v71.13H848.039a71.124,71.124,0,0,1,71.122-71.13Z" transform="translate(-294.831 -212.9)" fill="#161616"/>
          <path id="Tracé_202" data-name="Tracé 202" d="M587.557,873.477h71.122v71.13a71.128,71.128,0,0,1-71.122-71.13Z" transform="translate(-204.271 -303.675)" fill="#ffd726"/>
          <path id="Tracé_203" data-name="Tracé 203" d="M848.039,1090.96h71.122v71.131a71.127,71.127,0,0,1-71.122-71.131Z" transform="translate(-294.831 -379.285)" fill="#f45b0f"/>
          <path id="Tracé_204" data-name="Tracé 204" d="M383.852,1090.96a35.564,35.564,0,0,1,35.561,35.566v35.565H348.291v-35.565A35.564,35.564,0,0,1,383.852,1090.96Z" transform="translate(-121.088 -379.285)" fill="#048ecb"/>
          <path id="Tracé_205" data-name="Tracé 205" d="M71.121,647.942a35.563,35.563,0,0,1-35.561,35.565H0v-71.13H35.561A35.563,35.563,0,0,1,71.121,647.942Z" transform="translate(0 -212.9)" fill="#048ecb"/>
          <path id="Tracé_206" data-name="Tracé 206" d="M717.8,647.942a35.563,35.563,0,0,1,35.561-35.565H788.92v71.13H753.359A35.564,35.564,0,0,1,717.8,647.942Z" transform="translate(-249.551 -212.9)" fill="#ffd726"/>
          <path id="Tracé_207" data-name="Tracé 207" d="M848.039,778.2A35.563,35.563,0,0,1,883.6,742.633h35.561v71.129H883.6A35.563,35.563,0,0,1,848.039,778.2Z" transform="translate(-294.831 -258.185)" fill="#e6e6e6"/>
          <path id="Tracé_208" data-name="Tracé 208" d="M267.523,1113.36a28.259,28.259,0,1,1-28.257,28.259A28.256,28.256,0,0,1,267.523,1113.36Z" transform="translate(-83.184 -387.073)" fill="#e6e6e6"/>
          <path id="Tracé_209" data-name="Tracé 209" d="M28.256,983.1A28.258,28.258,0,1,1,0,1011.361,28.258,28.258,0,0,1,28.256,983.1Z" transform="translate(0 -341.788)" fill="#048ecb"/>
          <path id="Tracé_210" data-name="Tracé 210" d="M158.5,612.377a28.26,28.26,0,1,1-28.256,28.259A28.258,28.258,0,0,1,158.5,612.377Z" transform="translate(-45.28 -212.9)" fill="#161616"/>
          <path id="Tracé_211" data-name="Tracé 211" d="M507.378,874.067a28.259,28.259,0,1,1-28.256,28.259A28.258,28.258,0,0,1,507.378,874.067Z" transform="translate(-166.573 -303.88)" fill="#161616"/>
          <path id="Tracé_212" data-name="Tracé 212" d="M898.69,983.1a28.258,28.258,0,1,1-28.256,28.257A28.258,28.258,0,0,1,898.69,983.1Z" transform="translate(-302.617 -341.788)" fill="#161616"/>
          <path id="Tracé_213" data-name="Tracé 213" d="M1241.12,699.018a35.272,35.272,0,0,1,25.011,10.417,35.618,35.618,0,0,1-11.475,58.005,35.207,35.207,0,0,1-13.536,2.707Z" transform="translate(-431.49 -243.022)" fill="#161616"/>
          <path id="Tracé_214" data-name="Tracé 214" d="M1480.97,1090.96a35.266,35.266,0,0,1,25.011,10.418,35.62,35.62,0,0,1-11.475,58.006,35.182,35.182,0,0,1-13.536,2.707Z" transform="translate(-514.877 -379.285)" fill="#161616"/>
          <path id="Tracé_215" data-name="Tracé 215" d="M1382.977,612.377a70.929,70.929,0,1,1-141.857,0Z" transform="translate(-431.49 -212.9)" fill="#94c0d4"/>
          <path id="Tracé_216" data-name="Tracé 216" d="M1002.44,896.866a70.929,70.929,0,1,1,141.857,0Z" transform="translate(-348.51 -287.077)" fill="#94c0d4"/>
          <path id="Tracé_217" data-name="Tracé 217" d="M1182,754.251a70.937,70.937,0,1,1,0-141.874Z" transform="translate(-386.211 -212.9)" fill="#048ecb"/>
          <path id="Tracé_218" data-name="Tracé 218" d="M1252.737,960.707a70.929,70.929,0,1,1-141.857,0Z" transform="translate(-386.211 -334.001)" fill="#f45b0f"/>
          <path id="Tracé_219" data-name="Tracé 219" d="M1241.12,1162.091a70.929,70.929,0,1,1,141.857,0Z" transform="translate(-431.49 -379.285)" fill="#ffd726"/>
          <path id="Tracé_220" data-name="Tracé 220" d="M1480.97,852.259a70.936,70.936,0,1,1,0,141.871Z" transform="translate(-514.877 -296.298)" fill="#048ecb"/>
          <path id="Tracé_221" data-name="Tracé 221" d="M1350.14,791.954a70.932,70.932,0,1,1,141.864,0Z" transform="translate(-469.392 -250.604)" fill="#f45b0f"/>
          <path id="Tracé_222" data-name="Tracé 222" d="M1350.73,960.707h71.125v71.126a71.129,71.129,0,0,1-71.125-71.126Z" transform="translate(-469.598 -334.001)" fill="#048ecb"/>
          <path id="Tracé_223" data-name="Tracé 223" d="M980.638,1162.091V1090.96h71.119a71.121,71.121,0,0,1-71.119,71.131Z" transform="translate(-340.931 -379.285)" fill="#f45b0f"/>
          <path id="Tracé_224" data-name="Tracé 224" d="M1312.238,900.992H1241.12v-71.13a71.11,71.11,0,0,1,71.118,71.13Z" transform="translate(-431.49 -288.512)" fill="#f45b0f"/>
          <path id="Tracé_225" data-name="Tracé 225" d="M1051.757,683.507H980.638v-71.13a71.13,71.13,0,0,1,71.119,71.13Z" transform="translate(-340.931 -212.9)" fill="#e6e6e6"/>
          <path id="Tracé_226" data-name="Tracé 226" d="M1516.536,683.507a35.565,35.565,0,0,1-35.566-35.565V612.377h71.125v35.565A35.564,35.564,0,0,1,1516.536,683.507Z" transform="translate(-514.877 -212.9)" fill="#048ecb"/>
          <path id="Tracé_227" data-name="Tracé 227" d="M1182,1126.526a35.56,35.56,0,0,1-35.559,35.565H1110.88V1090.96h35.559A35.56,35.56,0,0,1,1182,1126.526Z" transform="translate(-386.211 -379.285)" fill="#e6e6e6"/>
          <path id="Tracé_228" data-name="Tracé 228" d="M1051.757,996.274a35.555,35.555,0,0,1-35.559,35.559h-35.56V960.707h35.56A35.56,35.56,0,0,1,1051.757,996.274Z" transform="translate(-340.931 -334.001)" fill="#048ecb"/>
          <path id="Tracé_229" data-name="Tracé 229" d="M1400.793,908.189a28.259,28.259,0,1,1,28.259-28.259A28.256,28.256,0,0,1,1400.793,908.189Z" transform="translate(-477.18 -296.093)" fill="#ffd726"/>
          <path id="Tracé_230" data-name="Tracé 230" d="M1008.892,799.152a28.259,28.259,0,1,1,28.259-28.259A28.257,28.257,0,0,1,1008.892,799.152Z" transform="translate(-340.931 -258.185)" fill="#ffd726"/>
        </g>
      </g>
    </g>
    <g id="Groupe_811" data-name="Groupe 811">
      <rect id="Rectangle_441" data-name="Rectangle 441" width="131" height="35" rx="11" transform="translate(60 30)" fill="#fff" opacity="0.16"/>
      <text id="LOGO" transform="translate(126 53)" fill="#fff" font-size="16" font-family="Helvetica-Bold, Helvetica" font-weight="700" opacity="0.17"><tspan x="-23.555" y="0">LOGO</tspan></text>
    </g>
  </g>
</svg>
